SplineFontDB: 3.0
FontName: DuctusExtended
FullName: Ductus Extended
FamilyName: DuctusExtended
Weight: Book
Copyright: 
Version: 001.000
ItalicAngle: 0
UnderlinePosition: -150
UnderlineWidth: 50
Ascent: 800
Descent: 200
InvalidEm: 0
sfntRevision: 0x00010000
LayerCount: 2
Layer: 0 1 "Arri+AOgA-re" 1
Layer: 1 1 "Avant" 0
XUID: [1021 706 -322349554 2294540]
StyleMap: 0x0000
FSType: 0
OS2Version: 4
OS2_WeightWidthSlopeOnly: 0
OS2_UseTypoMetrics: 1
CreationTime: 1510948569
ModificationTime: 1519145098
PfmFamily: 17
TTFWeight: 400
TTFWidth: 5
LineGap: 90
VLineGap: 0
Panose: 2 0 5 3 0 0 0 0 0 0
OS2TypoAscent: 800
OS2TypoAOffset: 0
OS2TypoDescent: -200
OS2TypoDOffset: 0
OS2TypoLinegap: 90
OS2WinAscent: 1194
OS2WinAOffset: 0
OS2WinDescent: 262
OS2WinDOffset: 0
HheadAscent: 1194
HheadAOffset: 0
HheadDescent: -262
HheadDOffset: 0
OS2SubXSize: 650
OS2SubYSize: 700
OS2SubXOff: 0
OS2SubYOff: 140
OS2SupXSize: 650
OS2SupYSize: 700
OS2SupXOff: 0
OS2SupYOff: 480
OS2StrikeYSize: 49
OS2StrikeYPos: 258
OS2CapHeight: 727
OS2XHeight: 515
OS2Vendor: 'PfEd'
OS2CodePages: 00000001.00000000
OS2UnicodeRanges: 00000003.00000000.00000000.00000000
MarkAttachClasses: 1
DEI: 91125
ShortTable: cvt  2
  33
  633
EndShort
ShortTable: maxp 16
  1
  0
  150
  99
  5
  0
  0
  2
  0
  1
  1
  0
  64
  46
  0
  0
EndShort
LangName: 1033 "" "" "Extended"
GaspTable: 1 65535 2 0
Encoding: UnicodeBmp
UnicodeInterp: none
NameList: AGL For New Fonts
DisplaySize: -48
AntiAlias: 1
FitToEm: 0
WinInfo: 60 30 11
BeginPrivate: 0
EndPrivate
Grid
-1000 541.686279297 m 0
 2000 541.686279297 l 1024
EndSplineSet
BeginChars: 65539 150

StartChar: .notdef
Encoding: 65536 -1 0
Width: 364
Flags: W
LayerCount: 2
Fore
SplineSet
33 0 m 1,0,-1
 33 666 l 1,1,-1
 298 666 l 1,2,-1
 298 0 l 1,3,-1
 33 0 l 1,0,-1
66 33 m 1,4,-1
 265 33 l 1,5,-1
 265 633 l 1,6,-1
 66 633 l 1,7,-1
 66 33 l 1,4,-1
EndSplineSet
EndChar

StartChar: exclam
Encoding: 33 33 4
Width: 330
Flags: W
LayerCount: 2
Fore
SplineSet
166 730 m 1,0,-1
 206 730 l 1,1,-1
 206 243 l 1,2,-1
 166 243 l 1,3,-1
 126 243 l 1,4,-1
 126 730 l 1,5,-1
 166 730 l 1,0,-1
166 97 m 1,6,-1
 206 97 l 1,7,-1
 206 0 l 1,8,-1
 166 0 l 1,9,-1
 126 0 l 1,10,-1
 126 97 l 1,11,-1
 166 97 l 1,6,-1
EndSplineSet
EndChar

StartChar: quotedbl
Encoding: 34 34 5
Width: 510
Flags: W
LayerCount: 2
Fore
SplineSet
155 731 m 1,0,-1
 115 731 l 1,1,-1
 115 840 l 1,2,-1
 155 840 l 1,3,-1
 195 840 l 1,4,-1
 195 731 l 1,5,-1
 155 731 l 1,0,-1
349 731 m 1,6,-1
 309 731 l 1,7,-1
 309 840 l 1,8,-1
 349 840 l 1,9,-1
 389 840 l 1,10,-1
 389 731 l 1,11,-1
 349 731 l 1,6,-1
EndSplineSet
EndChar

StartChar: numbersign
Encoding: 35 35 6
Width: 861
Flags: W
LayerCount: 2
Fore
SplineSet
706 163 m 1,0,-1
 706 123 l 1,1,-1
 147 123 l 1,2,-1
 147 163 l 1,3,-1
 147 203 l 1,4,-1
 706 203 l 1,5,-1
 706 163 l 1,0,-1
706 349 m 1,6,-1
 706 309 l 1,7,-1
 147 309 l 1,8,-1
 147 349 l 1,9,-1
 147 389 l 1,10,-1
 706 389 l 1,11,-1
 706 349 l 1,6,-1
333 489 m 1,12,-1
 373 485 l 1,13,-1
 327 19 l 1,14,-1
 287 23 l 1,15,-1
 247 27 l 1,16,-1
 294 493 l 1,17,-1
 333 489 l 1,12,-1
566 489 m 1,18,-1
 606 485 l 1,19,-1
 560 19 l 1,20,-1
 520 23 l 1,21,-1
 480 27 l 1,22,-1
 526 493 l 1,23,-1
 566 489 l 1,18,-1
EndSplineSet
EndChar

StartChar: dollar
Encoding: 36 36 7
Width: 847
Flags: W
LayerCount: 2
Fore
SplineSet
692 571 m 1,0,-1
 663 543 l 1,1,2
 605 603 605 603 527 636 c 0,3,4
 410 684 410 684 319.5 660.5 c 128,-1,5
 229 637 229 637 196 556 c 0,6,7
 180 517 180 517 213.5 491 c 128,-1,8
 247 465 247 465 314.5 450 c 128,-1,9
 382 435 382 435 457 422 c 128,-1,10
 532 409 532 409 612.5 386 c 128,-1,11
 693 363 693 363 738 332 c 0,12,13
 789 294 789 294 783.5 234 c 128,-1,14
 778 174 778 174 723 106 c 0,15,16
 721 103 721 103 718 101 c 0,17,18
 625 20 625 20 499.5 -3.5 c 128,-1,19
 374 -27 374 -27 254 13 c 128,-1,20
 134 53 134 53 56 146 c 1,21,-1
 86 171 l 1,22,-1
 117 197 l 1,23,24
 180 122 180 122 279 89.5 c 128,-1,25
 378 57 378 57 482 75 c 128,-1,26
 586 93 586 93 663 159 c 1,27,28
 691 195 691 195 700.5 219 c 128,-1,29
 710 243 710 243 705 253 c 128,-1,30
 700 263 700 263 687 270 c 0,31,32
 663 283 663 283 626 294 c 128,-1,33
 589 305 589 305 550 313 c 128,-1,34
 511 321 511 321 466.5 329.5 c 128,-1,35
 422 338 422 338 379.5 345.5 c 128,-1,36
 337 353 337 353 295.5 364 c 128,-1,37
 254 375 254 375 220 387.5 c 128,-1,38
 186 400 186 400 159.5 419 c 128,-1,39
 133 438 133 438 118.5 461 c 128,-1,40
 104 484 104 484 104 516 c 128,-1,41
 104 548 104 548 121 586 c 0,42,43
 156 666 156 666 227 707 c 128,-1,44
 298 748 298 748 383.5 747.5 c 128,-1,45
 469 747 469 747 558 710 c 0,46,47
 651 671 651 671 721 598 c 1,48,-1
 692 571 l 1,0,-1
412 796 m 1,49,-1
 452 796 l 1,50,-1
 452 -56 l 1,51,-1
 412 -56 l 1,52,-1
 372 -56 l 1,53,-1
 372 796 l 1,54,-1
 412 796 l 1,49,-1
EndSplineSet
EndChar

StartChar: percent
Encoding: 37 37 8
Width: 903
Flags: W
LayerCount: 2
Fore
SplineSet
306 583 m 1,0,-1
 340 561 l 1,1,2
 320 529 320 529 288 514.5 c 128,-1,3
 256 500 256 500 225.5 503.5 c 128,-1,4
 195 507 195 507 169 523 c 0,5,6
 142 540 142 540 126 567.5 c 128,-1,7
 110 595 110 595 110.5 630.5 c 128,-1,8
 111 666 111 666 134 699 c 1,9,-1
 167 676 l 1,10,-1
 173 672 l 1,11,-1
 179 667 l 1,12,-1
 199 653 l 1,13,14
 173 616 173 616 212 591 c 0,15,16
 249 567 249 567 273 604 c 1,17,-1
 306 583 l 1,0,-1
167 676 m 1,18,-1
 133 697 l 1,19,20
 154 730 154 730 185.5 744.5 c 128,-1,21
 217 759 217 759 247.5 755.5 c 128,-1,22
 278 752 278 752 304 736 c 0,23,24
 331 719 331 719 347 691.5 c 128,-1,25
 363 664 363 664 362.5 628.5 c 128,-1,26
 362 593 362 593 339 560 c 1,27,-1
 306 583 l 1,28,-1
 299 588 l 1,29,-1
 293 593 l 1,30,-1
 274 606 l 1,31,32
 300 643 300 643 261 668 c 0,33,34
 224 692 224 692 201 655 c 1,35,-1
 167 676 l 1,18,-1
754 71 m 1,36,-1
 787 49 l 1,37,38
 767 16 767 16 735 2 c 128,-1,39
 703 -12 703 -12 672.5 -9 c 128,-1,40
 642 -6 642 -6 616 11 c 0,41,42
 589 28 589 28 573 55.5 c 128,-1,43
 557 83 557 83 557.5 118.5 c 128,-1,44
 558 154 558 154 581 187 c 1,45,-1
 614 164 l 1,46,-1
 621 159 l 1,47,-1
 628 154 l 1,48,-1
 647 141 l 1,49,50
 620 103 620 103 659 78 c 0,51,52
 696 55 696 55 720 92 c 1,53,-1
 754 71 l 1,36,-1
614 164 m 1,54,-1
 580 185 l 1,55,56
 601 218 601 218 632.5 232.5 c 128,-1,57
 664 247 664 247 694.5 243.5 c 128,-1,58
 725 240 725 240 751 223 c 0,59,60
 778 206 778 206 794 179 c 128,-1,61
 810 152 810 152 809.5 116 c 128,-1,62
 809 80 809 80 786 48 c 1,63,-1
 754 71 l 1,64,-1
 747 75 l 1,65,-1
 740 80 l 1,66,-1
 721 93 l 1,67,68
 747 131 747 131 708 156 c 0,69,70
 671 180 671 180 648 142 c 1,71,-1
 614 164 l 1,54,-1
726 676 m 1,72,-1
 756 650 l 1,73,-1
 197 -2 l 1,74,-1
 167 24 l 1,75,-1
 136 50 l 1,76,-1
 695 702 l 1,77,-1
 726 676 l 1,72,-1
EndSplineSet
EndChar

StartChar: ampersand
Encoding: 38 38 9
Width: 717
Flags: W
LayerCount: 2
Fore
SplineSet
571 384 m 1,0,-1
 611 384 l 5,1,2
 612 329 612 329 590 238 c 0,3,4
 590 237 590 237 594 233 c 0,5,6
 618 208 618 208 632 166 c 0,7,8
 644 131 644 131 638 89 c 128,-1,9
 632 47 632 47 604 7 c 1,10,-1
 571 30 l 1,11,-1
 538 53 l 1,12,13
 559 82 559 82 561.5 106 c 128,-1,14
 564 130 564 130 553 150 c 1,15,16
 521 92 521 92 470 48 c 0,17,18
 408 -6 408 -6 323.5 -22.5 c 0,19,20
 219 -43 219 -43 153.5 -23 c 0,21,22
 94 -5 94 -5 46 51 c 0,23,24
 10 93 10 93 4.5 147 c 128,-1,25
 -1 201 -1 201 20 247.5 c 128,-1,26
 41 294 41 294 73 334.5 c 0,27,28
 81 345 81 345 147 400 c 1,29,30
 121 426 121 426 104 454.5 c 128,-1,31
 87 483 87 483 79 515.5 c 128,-1,32
 71 548 71 548 79.5 585 c 128,-1,33
 88 622 88 622 114 658 c 0,34,35
 129 680 129 680 160 703.5 c 128,-1,36
 191 727 191 727 254.5 724 c 128,-1,37
 318 721 318 721 331.5 710.5 c 128,-1,38
 345 700 345 700 362 688 c 0,39,40
 396 664 396 664 415 622 c 128,-1,41
 434 580 434 580 430.663085938 513.936523438 c 0,42,43
 428 466 428 466 395 433 c 0,44,-1
 351 388 l 0,45,46
 353 386 l 1,47,48
 372 372 372 372 437 346 c 128,-1,49
 502 320 502 320 524 302 c 1,50,51
 531 342 531 342 531 384 c 1,52,-1
 571 384 l 1,0,-1
498 219 m 1,53,54
 475 240 475 240 368 288.5 c 128,-1,55
 261 337 261 337 233 358 c 1,56,57
 150 309 150 309 122.5 267.5 c 0,58,59
 87 214 87 214 82.5 175.5 c 0,60,61
 78 133 78 133 107 102 c 0,62,63
 150 56 150 56 174.5 51.5 c 0,64,65
 255 39 255 39 302 50.5 c 0,66,67
 371 68 371 68 419 109 c 0,68,69
 469 151 469 151 498 219 c 1,53,54
259 422 m 1,70,71
 279 430 279 430 287.5 437.5 c 0,72,73
 306 452 306 452 316.5 463 c 0,74,75
 333 481 333 481 334 482 c 0,76,77
 348 501 348 501 352.5 522 c 0,78,79
 356 540 356 540 352.5 560 c 0,80,81
 348 586 348 586 346.5 591 c 0,82,83
 338 611 338 611 316 626 c 0,84,85
 279 649 279 649 260 649 c 0,86,87
 201.946577039 647.904652397 201.946577039 647.904652397 179 613 c 0,88,89
 110 505 110 505 259 422 c 1,70,71
EndSplineSet
EndChar

StartChar: quotesingle
Encoding: 39 39 10
Width: 309
Flags: W
LayerCount: 2
Fore
SplineSet
117 604 m 1,0,-1
 82 623 l 1,1,2
 126 706 126 706 126 799 c 1,3,-1
 166 799 l 1,4,-1
 206 799 l 1,5,6
 206 686 206 686 153 586 c 1,7,-1
 117 604 l 1,0,-1
EndSplineSet
EndChar

StartChar: parenleft
Encoding: 40 40 11
Width: 427
Flags: W
LayerCount: 2
Fore
SplineSet
291 753 m 1,0,-1
 322 727 l 1,1,2
 257 650 257 650 223 554.5 c 128,-1,3
 189 459 189 459 189 363.5 c 128,-1,4
 189 268 189 268 223 173 c 128,-1,5
 257 78 257 78 322 0 c 1,6,-1
 291 -26 l 1,7,-1
 261 -51 l 1,8,9
 161 67 161 67 126.5 215.5 c 128,-1,10
 92 364 92 364 126.5 512 c 128,-1,11
 161 660 161 660 261 779 c 1,12,-1
 291 753 l 1,0,-1
EndSplineSet
EndChar

StartChar: parenright
Encoding: 41 41 12
Width: 422
Flags: W
LayerCount: 2
Fore
SplineSet
123 756 m 1,0,-1
 154 782 l 1,1,2
 253 663 253 663 288 515 c 128,-1,3
 323 367 323 367 288 218.5 c 128,-1,4
 253 70 253 70 154 -48 c 1,5,-1
 123 -23 l 1,6,-1
 92 3 l 1,7,8
 179 107 179 107 210 237 c 128,-1,9
 241 367 241 367 210 496.5 c 128,-1,10
 179 626 179 626 92 730 c 1,11,-1
 123 756 l 1,0,-1
EndSplineSet
EndChar

StartChar: plus
Encoding: 43 43 14
Width: 566
Flags: W
LayerCount: 2
Fore
SplineSet
467 277 m 1,0,-1
 467 237 l 1,1,-1
 95 237 l 1,2,-1
 95 277 l 1,3,-1
 95 317 l 1,4,-1
 467 317 l 1,5,-1
 467 277 l 1,0,-1
281 423 m 1,6,-1
 321 423 l 1,7,-1
 321 131 l 1,8,-1
 281 131 l 1,9,-1
 241 131 l 1,10,-1
 241 423 l 1,11,-1
 281 423 l 1,6,-1
EndSplineSet
EndChar

StartChar: comma
Encoding: 44 44 15
Width: 234
Flags: W
LayerCount: 2
Fore
SplineSet
75 -155 m 5,0,-1
 38 -140 l 5,1,2
 84 -31 84 -31 84 88 c 5,3,-1
 124 88 l 5,4,-1
 164 88 l 5,5,6
 164 -46 164 -46 112 -171 c 5,7,-1
 75 -155 l 5,0,-1
EndSplineSet
EndChar

StartChar: hyphen
Encoding: 45 45 16
Width: 566
Flags: W
LayerCount: 2
Fore
SplineSet
451 298 m 1,0,-1
 451 258 l 1,1,-1
 116 258 l 1,2,-1
 116 298 l 1,3,-1
 116 338 l 1,4,-1
 451 338 l 1,5,-1
 451 298 l 1,0,-1
EndSplineSet
EndChar

StartChar: period
Encoding: 46 46 17
Width: 287
Flags: W
LayerCount: 2
Fore
SplineSet
145 97 m 5,0,-1
 185 97 l 5,1,-1
 185 0 l 5,2,-1
 145 0 l 5,3,-1
 105 0 l 5,4,-1
 105 97 l 5,5,-1
 145 97 l 5,0,-1
EndSplineSet
EndChar

StartChar: slash
Encoding: 47 47 18
Width: 621
Flags: W
LayerCount: 2
Fore
SplineSet
484 703 m 5,0,-1
 521 687 l 5,1,-1
 184 6 l 5,2,-1
 147 22 l 5,3,-1
 110 38 l 5,4,-1
 447 719 l 5,5,-1
 484 703 l 5,0,-1
EndSplineSet
EndChar

StartChar: zero
Encoding: 48 48 19
Width: 877
Flags: W
LayerCount: 2
Fore
SplineSet
433 386 m 5,0,-1
 473 386 l 5,1,-1
 473 248 l 5,2,-1
 433 248 l 5,3,-1
 393 248 l 5,4,-1
 393 386 l 5,5,-1
 433 386 l 5,0,-1
252 579 m 1,6,-1
 272 545 l 1,7,8
 204 506 204 506 172 447.5 c 128,-1,9
 140 389 140 389 142 329.5 c 128,-1,10
 144 270 144 270 173 212 c 0,11,12
 195 170 195 170 243 136.5 c 128,-1,13
 291 103 291 103 349 85.5 c 128,-1,14
 407 68 407 68 473 71.5 c 128,-1,15
 539 75 539 75 593 103 c 1,16,-1
 611 67 l 1,17,-1
 630 31 l 1,18,19
 560 -5 560 -5 476.5 -8.5 c 128,-1,20
 393 -12 393 -12 321 11.5 c 128,-1,21
 249 35 249 35 189.5 78.5 c 128,-1,22
 130 122 130 122 102 176 c 0,23,24
 75 230 75 230 67 289.5 c 128,-1,25
 59 349 59 349 71.5 408 c 128,-1,26
 84 467 84 467 125 521.5 c 128,-1,27
 166 576 166 576 232 614 c 1,28,-1
 252 579 l 1,6,-1
611 67 m 1,29,-1
 591 102 l 1,30,31
 659 141 659 141 691.5 199.5 c 128,-1,32
 724 258 724 258 721.5 317.5 c 128,-1,33
 719 377 719 377 690 434 c 0,34,35
 673 468 673 468 638.5 497 c 128,-1,36
 604 526 604 526 559.5 544.5 c 128,-1,37
 515 563 515 563 466 571.5 c 128,-1,38
 417 580 417 580 365.5 573 c 128,-1,39
 314 566 314 566 270 544 c 1,40,-1
 252 579 l 1,41,-1
 234 615 l 1,42,43
 304 651 304 651 387 654.5 c 128,-1,44
 470 658 470 658 542.5 635 c 128,-1,45
 615 612 615 612 674 568.5 c 128,-1,46
 733 525 733 525 761 471 c 256,47,48
 789 417 789 417 796.5 357 c 128,-1,49
 804 297 804 297 791.5 238.5 c 128,-1,50
 779 180 779 180 738 125 c 128,-1,51
 697 70 697 70 631 32 c 1,52,-1
 611 67 l 1,29,-1
EndSplineSet
EndChar

StartChar: one
Encoding: 49 49 20
Width: 757
Flags: W
LayerCount: 2
Fore
SplineSet
64 402 m 1,0,-1
 64 442 l 1,1,2
 201 442 201 442 342 495.5 c 128,-1,3
 483 549 483 549 558 638 c 0,4,5
 569 651 569 651 586.5 652 c 128,-1,6
 604 653 604 653 617 641 c 0,7,8
 629 629 629 629 629 612 c 2,9,-1
 629 2 l 1,10,-1
 589 2 l 1,11,-1
 549 2 l 1,12,-1
 549 516 l 1,13,14
 492 469 492 469 408 433 c 128,-1,15
 324 397 324 397 235 379.5 c 128,-1,16
 146 362 146 362 64 362 c 1,17,-1
 64 402 l 1,0,-1
EndSplineSet
EndChar

StartChar: two
Encoding: 50 50 21
Width: 810
Flags: W
LayerCount: 2
Fore
SplineSet
145 531 m 1,0,-1
 120 562 l 1,1,2
 192 620 192 620 299.5 642 c 128,-1,3
 407 664 407 664 487 650 c 0,4,5
 590 632 590 632 653.5 560.5 c 128,-1,6
 717 489 717 489 702 391 c 0,7,8
 695 347 695 347 662.5 312.5 c 128,-1,9
 630 278 630 278 583.5 257 c 128,-1,10
 537 236 537 236 481.5 220 c 128,-1,11
 426 204 426 204 370.5 191 c 128,-1,12
 315 178 315 178 267.5 164 c 128,-1,13
 220 150 220 150 186 130 c 128,-1,14
 152 110 152 110 144 83 c 1,15,-1
 709 83 l 1,16,-1
 709 43 l 1,17,-1
 709 3 l 1,18,-1
 73 3 l 2,19,20
 70 3 70 3 68 3.5 c 128,-1,21
 66 4 66 4 64.5 5.5 c 128,-1,22
 63 7 63 7 61.5 8 c 128,-1,23
 60 9 60 9 59.5 11.5 c 128,-1,24
 59 14 59 14 58.5 16 c 128,-1,25
 58 18 58 18 58 22 c 128,-1,26
 58 26 58 26 58 28 c 128,-1,27
 58 30 58 30 58 35 c 128,-1,28
 58 40 58 40 58 43 c 0,29,30
 58 99 58 99 87.5 141 c 128,-1,31
 117 183 117 183 164.5 208 c 128,-1,32
 212 233 212 233 270.5 252 c 128,-1,33
 329 271 329 271 388.5 285 c 128,-1,34
 448 299 448 299 498.5 314 c 128,-1,35
 549 329 549 329 583 351.5 c 128,-1,36
 617 374 617 374 623 405 c 0,37,38
 634 464 634 464 592 511 c 128,-1,39
 550 558 550 558 473 571 c 0,40,41
 409 583 409 583 318.5 565 c 128,-1,42
 228 547 228 547 170 500 c 1,43,-1
 145 531 l 1,0,-1
EndSplineSet
EndChar

StartChar: three
Encoding: 51 51 22
Width: 815
Flags: W
LayerCount: 2
Fore
SplineSet
276 568 m 1,0,-1
 250 598 l 1,1,2
 289 631 289 631 336 643 c 0,3,4
 399 657 399 657 456 646.5 c 128,-1,5
 513 636 513 636 557 600.5 c 128,-1,6
 601 565 601 565 614 515 c 0,7,8
 631 451 631 451 585.5 397.5 c 128,-1,9
 540 344 540 344 443 319 c 1,10,-1
 433 358 l 1,11,-1
 423 396 l 1,12,13
 456 405 456 405 479.5 415.5 c 128,-1,14
 503 426 503 426 514.5 436.5 c 128,-1,15
 526 447 526 447 532.5 458 c 128,-1,16
 539 469 539 469 538 478 c 128,-1,17
 537 487 537 487 537 495 c 0,18,19
 526 534 526 534 470.5 557.5 c 128,-1,20
 415 581 415 581 357 566 c 0,21,22
 327 558 327 558 302 537 c 1,23,-1
 276 568 l 1,0,-1
433 357 m 1,24,-1
 428 396 l 1,25,26
 454 400 454 400 481 400 c 0,27,28
 544 400 544 400 601.5 380 c 128,-1,29
 659 360 659 360 698 318.5 c 128,-1,30
 737 277 737 277 737 222 c 256,31,32
 737 167 737 167 706.5 122.5 c 128,-1,33
 676 78 676 78 626 48 c 0,34,35
 580 21 580 21 520.5 5.5 c 128,-1,36
 461 -10 461 -10 397 -10 c 128,-1,37
 333 -10 333 -10 273.5 3.5 c 128,-1,38
 214 17 214 17 163 51 c 128,-1,39
 112 85 112 85 82 134 c 1,40,-1
 117 155 l 1,41,-1
 151 175 l 1,42,43
 184 120 184 120 263.5 92.5 c 128,-1,44
 343 65 343 65 432.5 72 c 128,-1,45
 522 79 522 79 585 117 c 0,46,47
 657 159 657 159 657 222 c 0,48,49
 657 243 657 243 636.5 265.5 c 128,-1,50
 616 288 616 288 574.5 304 c 128,-1,51
 533 320 533 320 481 320 c 0,52,53
 460 320 460 320 439 317 c 1,54,-1
 433 357 l 1,24,-1
EndSplineSet
EndChar

StartChar: four
Encoding: 52 52 23
Width: 747
Flags: W
LayerCount: 2
Fore
SplineSet
486 638 m 1,0,-1
 486 212 l 1,1,-1
 679 212 l 1,2,-1
 679 132 l 1,3,-1
 486 132 l 1,4,-1
 486 0 l 1,5,-1
 406 0 l 1,6,-1
 406 132 l 1,7,-1
 120 132 l 2,8,9
 94 132 94 132 84 155 c 0,10,11
 79 166 79 166 80.5 177 c 128,-1,12
 82 188 82 188 89 197 c 128,-1,13
 96 206 96 206 106 210 c 0,14,15
 241 259 241 259 323.5 376.5 c 128,-1,16
 406 494 406 494 406 638 c 1,17,-1
 486 638 l 1,0,-1
406 212 m 1,18,-1
 406 356 l 1,19,20
 354 272 354 272 276 212 c 1,21,-1
 406 212 l 1,18,-1
EndSplineSet
EndChar

StartChar: five
Encoding: 53 53 24
Width: 800
Flags: W
LayerCount: 2
Fore
SplineSet
659 597 m 1,0,-1
 659 557 l 1,1,-1
 176 557 l 1,2,-1
 176 423 l 1,3,4
 257 449 257 449 334.5 454.5 c 128,-1,5
 412 460 412 460 476 447 c 128,-1,6
 540 434 540 434 591 408 c 128,-1,7
 642 382 642 382 677 344 c 0,8,9
 713 307 713 307 729 256 c 128,-1,10
 745 205 745 205 733 153.5 c 128,-1,11
 721 102 721 102 678 69 c 0,12,13
 592 3 592 3 484.5 -14.5 c 128,-1,14
 377 -32 377 -32 269.5 4.5 c 128,-1,15
 162 41 162 41 82 126 c 1,16,-1
 111 154 l 1,17,-1
 140 181 l 1,18,19
 206 110 206 110 292.5 79.5 c 128,-1,20
 379 49 379 49 466 61.5 c 128,-1,21
 553 74 553 74 623 127 c 0,22,23
 661 157 661 157 658.5 203.5 c 128,-1,24
 656 250 656 250 619 290 c 0,25,26
 591 319 591 319 546.5 340 c 128,-1,27
 502 361 502 361 443.5 371 c 128,-1,28
 385 381 385 381 308 370.5 c 128,-1,29
 231 360 231 360 151 327 c 0,30,31
 145 325 145 325 139 324 c 0,32,33
 122 323 122 323 109 335 c 128,-1,34
 96 347 96 347 96 364 c 2,35,-1
 96 612 l 2,36,37
 96 614 96 614 96 619.5 c 128,-1,38
 96 625 96 625 96 626.5 c 128,-1,39
 96 628 96 628 97 631 c 128,-1,40
 98 634 98 634 100 635 c 128,-1,41
 102 636 102 636 106 636.5 c 128,-1,42
 110 637 110 637 116 637 c 2,43,-1
 659 637 l 1,44,-1
 659 597 l 1,0,-1
EndSplineSet
EndChar

StartChar: six
Encoding: 54 54 25
Width: 762
Flags: W
LayerCount: 2
Fore
SplineSet
252 372 m 1,0,1
 271 460 271 460 338 536 c 128,-1,2
 405 612 405 612 520 665 c 1,3,-1
 537 629 l 1,4,-1
 554 593 l 1,5,6
 388 516 388 516 341 391 c 1,7,8
 444 401 444 401 529 364.5 c 128,-1,9
 614 328 614 328 660 263 c 0,10,11
 687 224 687 224 694.5 181 c 128,-1,12
 702 138 702 138 684.5 95 c 128,-1,13
 667 52 667 52 624 23 c 0,14,15
 576 -11 576 -11 520 -14 c 0,16,17
 450 -18 450 -18 387 23.5 c 128,-1,18
 324 65 324 65 286 135.5 c 128,-1,19
 248 206 248 206 244 285 c 1,20,21
 166 254 166 254 90 190 c 1,22,-1
 64 221 l 1,23,-1
 38 252 l 1,24,25
 142 338 142 338 252 372 c 1,0,1
324 308 m 1,26,27
 322 213 322 213 380.5 140 c 128,-1,28
 439 67 439 67 507 66 c 0,29,30
 545 65 545 65 578 88 c 0,31,32
 650 138 650 138 594 217 c 0,33,34
 560 267 560 267 487 295 c 128,-1,35
 414 323 414 323 324 308 c 1,26,27
EndSplineSet
EndChar

StartChar: seven
Encoding: 55 55 26
Width: 720
Flags: W
LayerCount: 2
Fore
SplineSet
69 599 m 1,0,-1
 69 639 l 1,1,-1
 648 639 l 2,2,3
 659 639 659 639 664 633 c 128,-1,4
 669 627 669 627 669 617 c 128,-1,5
 669 607 669 607 668 596 c 0,6,7
 667 576 667 576 651 566 c 0,8,9
 514 474 514 474 421 325.5 c 128,-1,10
 328 177 328 177 295 -4 c 1,11,-1
 256 3 l 1,12,-1
 216 11 l 1,13,14
 246 174 246 174 322.5 315 c 128,-1,15
 399 456 399 456 512 559 c 1,16,-1
 69 559 l 1,17,-1
 69 599 l 1,0,-1
144 274 m 1,18,-1
 144 314 l 1,19,-1
 546 314 l 1,20,-1
 546 274 l 1,21,-1
 546 234 l 1,22,-1
 144 234 l 1,23,-1
 144 274 l 1,18,-1
EndSplineSet
EndChar

StartChar: eight
Encoding: 56 56 27
Width: 770
Flags: W
LayerCount: 2
Fore
SplineSet
215 344 m 1,0,-1
 245 317 l 1,1,2
 194 258 194 258 195 213.5 c 128,-1,3
 196 169 196 169 244 126 c 0,4,5
 282 92 282 92 346 74.5 c 128,-1,6
 410 57 410 57 478 67 c 128,-1,7
 546 77 546 77 584 118 c 0,8,9
 604 145 604 145 613 162.5 c 128,-1,10
 622 180 622 180 619 192 c 128,-1,11
 616 204 616 204 610.5 210.5 c 128,-1,12
 605 217 605 217 589 229 c 0,13,14
 562 248 562 248 509 267 c 0,15,16
 477 279 477 279 380.5 298 c 128,-1,17
 284 317 284 317 251 327 c 1,18,-1
 215 344 l 1,0,-1
560 334 m 1,19,20
 614 310 614 310 638 292 c 0,21,22
 751 208 751 208 647 69 c 0,23,24
 646 68 646 68 645 66 c 0,25,26
 605 22 605 22 543.5 1.5 c 128,-1,27
 482 -19 482 -19 419.5 -16 c 128,-1,28
 357 -13 357 -13 299.5 6 c 128,-1,29
 242 25 242 25 204 55 c 0,30,31
 157 92 157 92 134.5 138.5 c 128,-1,32
 112 185 112 185 120.5 242.5 c 128,-1,33
 129 300 129 300 174 357 c 1,34,35
 139 374 139 374 110.5 410.5 c 128,-1,36
 82 447 82 447 82 479 c 0,37,38
 82 558 82 558 147 606.5 c 128,-1,39
 212 655 212 655 297 655 c 0,40,41
 361 655 361 655 430.5 632.5 c 128,-1,42
 500 610 500 610 552 564.5 c 128,-1,43
 604 519 604 519 603 465 c 0,44,45
 603 393 603 393 560 334 c 1,19,20
480 362 m 1,46,47
 523 411 523 411 523 465 c 0,48,49
 523 491 523 491 488 516.5 c 128,-1,50
 453 542 453 542 400 558.5 c 128,-1,51
 347 575 347 575 297 575 c 0,52,53
 258 575 258 575 227.5 564 c 128,-1,54
 197 553 197 553 179.5 531 c 128,-1,55
 162 509 162 509 162 479 c 0,56,57
 162 471 162 471 168 462 c 128,-1,58
 174 453 174 453 192.5 440 c 128,-1,59
 211 427 211 427 239 416 c 0,60,61
 269 405 269 405 357.5 388.5 c 128,-1,62
 446 372 446 372 480 362 c 1,46,47
EndSplineSet
EndChar

StartChar: nine
Encoding: 57 57 28
Width: 732
Flags: W
LayerCount: 2
Fore
SplineSet
665 325 m 1,0,-1
 678 287 l 1,1,2
 621 267 621 267 562 258 c 1,3,4
 553 203 553 203 526.5 154 c 128,-1,5
 500 105 500 105 458.5 66.5 c 128,-1,6
 417 28 417 28 356.5 5.5 c 128,-1,7
 296 -17 296 -17 225 -17 c 1,8,-1
 225 23 l 1,9,-1
 225 63 l 1,10,11
 296 63 296 63 350 89.5 c 128,-1,12
 404 116 404 116 435 157 c 128,-1,13
 466 198 466 198 479 251 c 1,14,15
 394 251 394 251 315.5 276.5 c 128,-1,16
 237 302 237 302 182.5 342.5 c 128,-1,17
 128 383 128 383 95.5 433.5 c 128,-1,18
 63 484 63 484 63 533 c 0,19,20
 63 590 63 590 108 623 c 128,-1,21
 153 656 153 656 225 656 c 0,22,23
 303 656 303 656 368 629 c 128,-1,24
 433 602 433 602 474.5 557.5 c 128,-1,25
 516 513 516 513 540 457 c 128,-1,26
 564 401 564 401 567 340 c 1,27,28
 609 348 609 348 652 363 c 1,29,-1
 665 325 l 1,0,-1
487 331 m 1,30,31
 485 380 485 380 468 423 c 128,-1,32
 451 466 451 466 419.5 500.5 c 128,-1,33
 388 535 388 535 337.5 555.5 c 128,-1,34
 287 576 287 576 225 576 c 0,35,36
 175 576 175 576 159 563.5 c 128,-1,37
 143 551 143 551 143 533 c 0,38,39
 143 509 143 509 166.5 475.5 c 128,-1,40
 190 442 190 442 231 409.5 c 128,-1,41
 272 377 272 377 338 354 c 128,-1,42
 404 331 404 331 478 331 c 0,43,44
 483 331 483 331 487 331 c 1,30,31
EndSplineSet
EndChar

StartChar: colon
Encoding: 58 58 29
Width: 328
Flags: W
LayerCount: 2
Fore
SplineSet
166 134 m 1,0,-1
 206 134 l 1,1,-1
 206 37 l 1,2,-1
 166 37 l 1,3,-1
 126 37 l 1,4,-1
 126 134 l 1,5,-1
 166 134 l 1,0,-1
166 377 m 1,6,-1
 126 377 l 1,7,-1
 126 475 l 1,8,-1
 166 475 l 1,9,-1
 206 475 l 1,10,-1
 206 377 l 1,11,-1
 166 377 l 1,6,-1
EndSplineSet
EndChar

StartChar: semicolon
Encoding: 59 59 30
Width: 319
Flags: W
LayerCount: 2
Fore
SplineSet
113 -110 m 1,0,-1
 76 -95 l 1,1,2
 122 14 122 14 122 133 c 1,3,-1
 162 133 l 1,4,-1
 202 133 l 1,5,6
 202 -1 202 -1 150 -126 c 1,7,-1
 113 -110 l 1,0,-1
162 389 m 1,8,-1
 122 389 l 1,9,-1
 122 486 l 1,10,-1
 162 486 l 1,11,-1
 202 486 l 1,12,-1
 202 389 l 1,13,-1
 162 389 l 1,8,-1
EndSplineSet
EndChar

StartChar: less
Encoding: 60 60 31
Width: 480
Flags: W
LayerCount: 2
Fore
SplineSet
282 134 m 1,0,-1
 249 112 l 1,1,-1
 152 258 l 2,2,3
 137 280 137 280 152 302 c 2,4,-1
 249 448 l 1,5,-1
 282 426 l 1,6,-1
 316 404 l 1,7,-1
 233 280 l 1,8,-1
 316 156 l 1,9,-1
 282 134 l 1,0,-1
EndSplineSet
EndChar

StartChar: equal
Encoding: 61 61 32
Width: 671
Flags: W
LayerCount: 2
Fore
SplineSet
537 216 m 1,0,-1
 537 176 l 1,1,-1
 137 176 l 1,2,-1
 137 216 l 1,3,-1
 137 256 l 1,4,-1
 537 256 l 1,5,-1
 537 216 l 1,0,-1
537 362 m 1,6,-1
 537 322 l 1,7,-1
 137 322 l 1,8,-1
 137 362 l 1,9,-1
 137 402 l 1,10,-1
 537 402 l 1,11,-1
 537 362 l 1,6,-1
EndSplineSet
EndChar

StartChar: greater
Encoding: 62 62 33
Width: 464
Flags: W
LayerCount: 2
Fore
SplineSet
182 426 m 1,0,-1
 215 448 l 1,1,-1
 313 302 l 2,2,3
 327 280 327 280 313 258 c 2,4,-1
 215 112 l 1,5,-1
 182 134 l 1,6,-1
 149 156 l 1,7,-1
 231 280 l 1,8,-1
 149 404 l 1,9,-1
 182 426 l 1,0,-1
EndSplineSet
EndChar

StartChar: question
Encoding: 63 63 34
Width: 735
Flags: W
LayerCount: 2
Fore
SplineSet
60 702 m 1,0,-1
 26 724 l 1,1,2
 127 874 127 874 269 890 c 0,3,4
 338 899 338 899 407 873.5 c 128,-1,5
 476 848 476 848 527 801.5 c 128,-1,6
 578 755 578 755 613 694 c 128,-1,7
 648 633 648 633 655 571 c 0,8,9
 667 465 667 465 594.5 387.5 c 128,-1,10
 522 310 522 310 371 293 c 1,11,-1
 371 236 l 1,12,-1
 331 236 l 1,13,-1
 291 236 l 1,14,-1
 291 329 l 2,15,16
 291 344 291 344 301.5 356 c 128,-1,17
 312 368 312 368 328 369 c 0,18,19
 371 372 371 372 406.5 379 c 128,-1,20
 442 386 442 386 467.5 396 c 128,-1,21
 493 406 493 406 513 420 c 128,-1,22
 533 434 533 434 545 449 c 128,-1,23
 557 464 557 464 564.5 481.5 c 128,-1,24
 572 499 572 499 574.5 516 c 128,-1,25
 577 533 577 533 576 551 c 0,26,27
 573 598 573 598 547 646 c 128,-1,28
 521 694 521 694 482 732 c 128,-1,29
 443 770 443 770 391 792.5 c 128,-1,30
 339 815 339 815 289 812 c 0,31,32
 177 805 177 805 93 680 c 1,33,-1
 60 702 l 1,0,-1
331 143 m 1,34,-1
 371 143 l 1,35,-1
 371 50 l 1,36,-1
 331 50 l 1,37,-1
 291 50 l 1,38,-1
 291 143 l 1,39,-1
 331 143 l 1,34,-1
EndSplineSet
EndChar

StartChar: at
Encoding: 64 64 35
Width: 855
Flags: W
LayerCount: 2
Fore
SplineSet
537 348 m 2,0,-1
 509 325 l 1,1,2
 503 332 503 332 497 337 c 0,3,4
 466 364 466 364 424.5 360.5 c 128,-1,5
 383 357 383 357 356 325 c 0,6,7
 326 284 326 284 329.5 248.5 c 128,-1,8
 333 213 333 213 362 183 c 0,9,10
 383 163 383 163 407.5 154.5 c 128,-1,11
 432 146 432 146 459.5 153 c 128,-1,12
 487 160 487 160 511 184 c 1,13,-1
 540 156 l 1,14,-1
 568 128 l 1,15,16
 528 87 528 87 477.5 76 c 128,-1,17
 427 65 427 65 383.5 79.5 c 128,-1,18
 340 94 340 94 306 126 c 0,19,20
 275 157 275 157 260 198 c 128,-1,21
 245 239 245 239 252.5 287 c 128,-1,22
 260 335 260 335 295 376 c 0,23,24
 343 434 343 434 418 440 c 128,-1,25
 493 446 493 446 549 398 c 0,26,27
 560 388 560 388 570 376 c 1,28,-1
 540 351 l 1,29,30
 540 351 540 351 537 348 c 2,0,-1
540 399 m 1,31,-1
 580 399 l 1,32,-1
 580 156 l 2,33,34
 580 143 580 143 593 135 c 0,35,36
 605 130 605 130 620.5 128.5 c 128,-1,37
 636 127 636 127 656 139 c 128,-1,38
 676 151 676 151 690 176 c 0,39,40
 724 235 724 235 726 296 c 128,-1,41
 728 357 728 357 704 408 c 128,-1,42
 680 459 680 459 635 499 c 0,43,44
 602 529 602 529 563 548 c 128,-1,45
 524 567 524 567 480 573.5 c 128,-1,46
 436 580 436 580 392 572.5 c 128,-1,47
 348 565 348 565 303 539 c 128,-1,48
 258 513 258 513 219 470 c 0,49,50
 161 405 161 405 142 330.5 c 128,-1,51
 123 256 123 256 138.5 190 c 128,-1,52
 154 124 154 124 197 65 c 0,53,54
 222 32 222 32 253.5 5 c 128,-1,55
 285 -22 285 -22 321 -40.5 c 128,-1,56
 357 -59 357 -59 398 -67.5 c 128,-1,57
 439 -76 439 -76 480.5 -73.5 c 128,-1,58
 522 -71 522 -71 566.5 -54 c 128,-1,59
 611 -37 611 -37 652 -6 c 1,60,-1
 676 -39 l 1,61,-1
 700 -71 l 1,62,63
 624 -127 624 -127 540 -145 c 128,-1,64
 456 -163 456 -163 381.5 -145.5 c 128,-1,65
 307 -128 307 -128 242.5 -86 c 128,-1,66
 178 -44 178 -44 133 18 c 0,67,68
 80 89 80 89 61 173 c 128,-1,69
 42 257 42 257 65.5 350.5 c 128,-1,70
 89 444 89 444 159 523 c 0,71,72
 219 590 219 590 292 623.5 c 128,-1,73
 365 657 365 657 435.5 656 c 128,-1,74
 506 655 506 655 571 630 c 128,-1,75
 636 605 636 605 688 559 c 0,76,77
 745 508 745 508 776.5 441.5 c 128,-1,78
 808 375 808 375 805.5 293.5 c 128,-1,79
 803 212 803 212 759 136 c 0,80,81
 735 94 735 94 697.5 71 c 128,-1,82
 660 48 660 48 623 48.5 c 128,-1,83
 586 49 586 49 553 66 c 0,84,85
 529 79 529 79 514.5 103 c 128,-1,86
 500 127 500 127 500 156 c 2,87,-1
 500 399 l 1,88,-1
 540 399 l 1,31,-1
EndSplineSet
EndChar

StartChar: A
Encoding: 65 65 36
Width: 931
Flags: W
LayerCount: 2
Fore
SplineSet
77 9 m 5,0,-1
 42 29 l 5,1,-1
 426 729 l 6,2,3
 435 744 435 744 452 748 c 132,-1,4
 469 752 469 752 483 743 c 4,5,6
 491 737 491 737 496 729 c 6,7,-1
 886 26 l 5,8,-1
 851 7 l 5,9,-1
 816 -13 l 5,10,-1
 461 627 l 5,11,-1
 112 -10 l 5,12,-1
 77 9 l 5,0,-1
204 244 m 5,13,-1
 204 284 l 5,14,-1
 720 284 l 5,15,-1
 720 244 l 5,16,-1
 720 204 l 5,17,-1
 204 204 l 5,18,-1
 204 244 l 5,13,-1
EndSplineSet
EndChar

StartChar: B
Encoding: 66 66 37
Width: 814
Flags: W
LayerCount: 2
Fore
SplineSet
106 41 m 1,0,-1
 104 74 l 1,1,-1
 104 737 l 2,2,3
 104 750 104 750 105 754 c 128,-1,4
 106 758 106 758 109 760 c 128,-1,5
 112 762 112 762 121 762 c 0,6,7
 213 769 213 769 311.5 758 c 128,-1,8
 410 747 410 747 467 720 c 0,9,10
 523 693 523 693 556 649.5 c 128,-1,11
 589 606 589 606 594.5 549.5 c 128,-1,12
 600 493 600 493 568 427 c 1,13,-1
 532 445 l 1,14,-1
 496 462 l 1,15,16
 519 507 519 507 517 542.5 c 128,-1,17
 515 578 515 578 494 603 c 128,-1,18
 473 628 473 628 432 647 c 0,19,20
 393 666 393 666 323.5 676 c 128,-1,21
 254 686 254 686 184 684 c 1,22,-1
 184 74 l 1,23,-1
 106 41 l 1,0,-1
144 445 m 1,24,-1
 144 485 l 1,25,-1
 532 485 l 2,26,27
 633 485 633 485 699 419 c 0,28,29
 759 359 759 359 760 276 c 128,-1,30
 761 193 761 193 693 120 c 0,31,32
 673 100 673 100 647.5 84 c 128,-1,33
 622 68 622 68 596.5 56 c 128,-1,34
 571 44 571 44 537.5 35 c 128,-1,35
 504 26 504 26 476.5 20 c 128,-1,36
 449 14 449 14 411 10 c 128,-1,37
 373 6 373 6 346.5 4 c 128,-1,38
 320 2 320 2 280.5 1 c 128,-1,39
 241 0 241 0 219 0.5 c 128,-1,40
 197 1 197 1 159 1 c 128,-1,41
 121 1 121 1 106 1 c 1,42,-1
 106 41 l 1,43,-1
 106 81 l 1,44,45
 163 81 163 81 192 81.5 c 128,-1,46
 221 82 221 82 276.5 83.5 c 128,-1,47
 332 85 332 85 365.5 88.5 c 128,-1,48
 399 92 399 92 446 99 c 128,-1,49
 493 106 493 106 523.5 116 c 128,-1,50
 554 126 554 126 585 141.5 c 128,-1,51
 616 157 616 157 636 176 c 0,52,53
 681 226 681 226 680.5 275.5 c 128,-1,54
 680 325 680 325 643 362 c 0,55,56
 600 405 600 405 532 405 c 2,57,-1
 144 405 l 1,58,-1
 144 445 l 1,24,-1
EndSplineSet
EndChar

StartChar: C
Encoding: 67 67 38
Width: 901
Flags: W
LayerCount: 2
Fore
SplineSet
794 567 m 5,0,-1
 764 542 l 5,1,2
 745 564 745 564 723 582 c 4,3,4
 657 637 657 637 560 660.5 c 132,-1,5
 463 684 463 684 368 659.5 c 132,-1,6
 273 635 273 635 216 567 c 4,7,8
 154 493 154 493 150 404.5 c 4,9,10
 146 332 146 332 193 254 c 4,11,12
 241 174 241 174 332.5 124.5 c 4,13,14
 426 74 426 74 541 71.5 c 132,-1,15
 656 69 656 69 774 134 c 5,16,-1
 794 99 l 5,17,-1
 814 64 l 5,18,19
 676 -12 676 -12 539.5 -8 c 132,-1,20
 403 -4 403 -4 291 57 c 4,21,22
 175 120 175 120 124 214 c 4,23,24
 4 438 4 438 155 618 c 4,25,26
 226 703 226 703 341 734.5 c 132,-1,27
 456 766 456 766 574.5 739 c 132,-1,28
 693 712 693 712 775 643 c 4,29,30
 802 620 802 620 825 593 c 5,31,-1
 794 567 l 5,0,-1
EndSplineSet
EndChar

StartChar: D
Encoding: 68 68 39
Width: 853
Flags: W
LayerCount: 2
Fore
SplineSet
181 83 m 1,0,1
 246 82 246 82 289 83.5 c 128,-1,2
 332 85 332 85 392 91 c 128,-1,3
 452 97 452 97 494.5 108 c 128,-1,4
 537 119 537 119 581 140.5 c 128,-1,5
 625 162 625 162 656 192 c 0,6,7
 717 253 717 253 707 343.5 c 128,-1,8
 697 434 697 434 619 511 c 0,9,10
 577 553 577 553 509.5 587 c 128,-1,11
 442 621 442 621 356.5 642 c 128,-1,12
 271 663 271 663 181 668 c 1,13,-1
 181 83 l 1,0,1
100 43 m 1,14,-1
 101 43 l 1,15,-1
 101 724 l 2,16,17
 101 742 101 742 103.5 745.5 c 128,-1,18
 106 749 106 749 118 749 c 0,19,20
 227 749 227 749 335 726.5 c 128,-1,21
 443 704 443 704 533 662.5 c 128,-1,22
 623 621 623 621 676 568 c 0,23,24
 737 506 737 506 766.5 429.5 c 128,-1,25
 796 353 796 353 783.5 273.5 c 128,-1,26
 771 194 771 194 712 136 c 0,27,28
 691 114 691 114 663.5 96.5 c 128,-1,29
 636 79 636 79 611 66 c 128,-1,30
 586 53 586 53 548.5 43 c 128,-1,31
 511 33 511 33 486.5 26 c 128,-1,32
 462 19 462 19 418 14.5 c 128,-1,33
 374 10 374 10 353 7.5 c 128,-1,34
 332 5 332 5 283.5 4 c 128,-1,35
 235 3 235 3 220.5 2.5 c 128,-1,36
 206 2 206 2 156.5 2.5 c 128,-1,37
 107 3 107 3 100 3 c 1,38,-1
 100 43 l 1,14,-1
EndSplineSet
EndChar

StartChar: E
Encoding: 69 69 40
Width: 845
Flags: W
LayerCount: 2
Fore
SplineSet
145 0 m 5,0,-1
 105 -2 l 5,1,-1
 105 707 l 6,2,3
 105 724 105 724 110 728 c 132,-1,4
 115 732 115 732 130 732 c 6,5,-1
 703 732 l 5,6,-1
 703 652 l 5,7,-1
 185 652 l 5,8,-1
 185 -2 l 5,9,-1
 145 0 l 5,0,-1
145 385 m 5,10,-1
 145 425 l 5,11,-1
 657 425 l 5,12,-1
 657 385 l 5,13,-1
 657 345 l 5,14,-1
 145 345 l 5,15,-1
 145 385 l 5,10,-1
145 40 m 5,16,-1
 145 80 l 5,17,-1
 750 80 l 5,18,-1
 750 0 l 5,19,-1
 145 0 l 5,20,-1
 145 40 l 5,16,-1
EndSplineSet
EndChar

StartChar: F
Encoding: 70 70 41
Width: 706
Flags: W
LayerCount: 2
Fore
SplineSet
141 1 m 1,0,-1
 101 1 l 1,1,-1
 101 709 l 2,2,3
 101 726 101 726 106.5 730 c 128,-1,4
 112 734 112 734 126 734 c 2,5,-1
 668 734 l 1,6,-1
 667 731 l 1,7,-1
 668 654 l 1,8,-1
 181 654 l 1,9,-1
 181 1 l 1,10,-1
 141 1 l 1,0,-1
141 387 m 1,11,-1
 141 427 l 1,12,-1
 590 427 l 1,13,-1
 590 387 l 1,14,-1
 590 347 l 1,15,-1
 141 347 l 1,16,-1
 141 387 l 1,11,-1
EndSplineSet
EndChar

StartChar: G
Encoding: 71 71 42
Width: 937
Flags: W
LayerCount: 2
Fore
SplineSet
775 570 m 1,0,-1
 744 545 l 1,1,2
 726 567 726 567 704 585 c 0,3,4
 638 641 638 641 544.5 661.5 c 128,-1,5
 451 682 451 682 360 657.5 c 128,-1,6
 269 633 269 633 212 565 c 0,7,8
 152 494 152 494 146 412.5 c 0,9,10
 140 342 140 342 182 265 c 0,11,12
 226 184 226 184 311 131.5 c 0,13,14
 398 78 398 78 508 70.5 c 128,-1,15
 618 63 618 63 735 121 c 1,16,-1
 735 290 l 1,17,-1
 542 290 l 1,18,-1
 542 330 l 1,19,-1
 542 370 l 1,20,-1
 785 370 l 2,21,22
 795 370 795 370 800.5 369 c 128,-1,23
 806 368 806 368 810.5 362 c 128,-1,24
 815 356 815 356 815 345 c 2,25,-1
 815 97 l 2,26,27
 815 74 815 74 795 62 c 0,28,29
 657 -14 657 -14 524 -10 c 128,-1,30
 391 -6 391 -6 283 55 c 0,31,32
 173 117 173 117 120 212 c 0,33,34
 -3 435 -3 435 150 616 c 0,35,36
 222 701 222 701 333.5 732.5 c 128,-1,37
 445 764 445 764 559 740 c 128,-1,38
 673 716 673 716 756 646 c 0,39,40
 783 623 783 623 806 596 c 1,41,-1
 775 570 l 1,0,-1
EndSplineSet
EndChar

StartChar: H
Encoding: 72 72 43
Width: 830
Flags: W
LayerCount: 2
Fore
SplineSet
139 0 m 1,0,-1
 99 0 l 1,1,-1
 99 730 l 1,2,-1
 139 730 l 1,3,-1
 179 730 l 1,4,-1
 179 0 l 1,5,-1
 139 0 l 1,0,-1
139 386 m 1,6,-1
 139 426 l 1,7,-1
 687 426 l 1,8,-1
 687 386 l 1,9,-1
 687 346 l 1,10,-1
 139 346 l 1,11,-1
 139 386 l 1,6,-1
687 730 m 1,12,-1
 727 730 l 1,13,-1
 727 0 l 1,14,-1
 687 0 l 1,15,-1
 647 0 l 1,16,-1
 647 730 l 1,17,-1
 687 730 l 1,12,-1
EndSplineSet
EndChar

StartChar: I
Encoding: 73 73 44
Width: 327
Flags: W
LayerCount: 2
Fore
SplineSet
162 0 m 5,0,-1
 122 0 l 5,1,-1
 122 730 l 5,2,-1
 162 730 l 5,3,-1
 202 730 l 5,4,-1
 202 0 l 5,5,-1
 162 0 l 5,0,-1
EndSplineSet
EndChar

StartChar: J
Encoding: 74 74 45
Width: 719
Flags: W
LayerCount: 2
Fore
SplineSet
575 730 m 1,0,-1
 615 730 l 1,1,-1
 615 231 l 2,2,3
 615 211 615 211 612 191 c 0,4,5
 602 134 602 134 560 92.5 c 128,-1,6
 518 51 518 51 459.5 29 c 128,-1,7
 401 7 401 7 329 -2 c 128,-1,8
 257 -11 257 -11 187.5 -8.5 c 128,-1,9
 118 -6 118 -6 52 6 c 1,10,-1
 59 45 l 1,11,-1
 66 84 l 1,12,13
 146 69 146 69 226.5 71.5 c 128,-1,14
 307 74 307 74 372.5 88 c 128,-1,15
 438 102 438 102 482 133 c 128,-1,16
 526 164 526 164 533 205 c 0,17,18
 535 218 535 218 535 231 c 2,19,-1
 535 730 l 1,20,-1
 575 730 l 1,0,-1
EndSplineSet
EndChar

StartChar: K
Encoding: 75 75 46
Width: 845
Flags: W
LayerCount: 2
Fore
SplineSet
148 1 m 1,0,-1
 108 1 l 1,1,-1
 108 731 l 1,2,-1
 148 731 l 1,3,-1
 188 731 l 1,4,-1
 188 1 l 1,5,-1
 148 1 l 1,0,-1
148 335 m 1,6,-1
 124 368 l 1,7,-1
 658 748 l 1,8,-1
 681 715 l 1,9,-1
 705 683 l 1,10,-1
 172 303 l 1,11,-1
 148 335 l 1,6,-1
288 410 m 1,12,-1
 314 440 l 1,13,-1
 782 42 l 1,14,-1
 756 12 l 1,15,-1
 729 -18 l 1,16,-1
 261 380 l 1,17,-1
 288 410 l 1,12,-1
EndSplineSet
EndChar

StartChar: L
Encoding: 76 76 47
Width: 820
Flags: W
LayerCount: 2
Fore
SplineSet
109 42 m 1,0,-1
 109 715 l 1,1,-1
 149 715 l 1,2,-1
 189 715 l 1,3,-1
 189 42 l 1,4,-1
 109 42 l 1,0,-1
109 42 m 1,5,-1
 109 82 l 1,6,-1
 716 82 l 1,7,-1
 716 42 l 1,8,-1
 716 2 l 1,9,-1
 109 2 l 1,10,-1
 109 42 l 1,5,-1
EndSplineSet
EndChar

StartChar: M
Encoding: 77 77 48
Width: 1148
Flags: W
LayerCount: 2
Fore
SplineSet
146 2 m 1,0,-1
 106 2 l 1,1,-1
 106 719 l 2,2,3
 106 730 106 730 112 735 c 128,-1,4
 118 740 118 740 127.5 739.5 c 128,-1,5
 137 739 137 739 149 739 c 0,6,7
 166 737 166 737 177 725 c 2,8,-1
 574 251 l 1,9,-1
 972 725 l 2,10,11
 983 738 983 738 1001 738.5 c 128,-1,12
 1019 739 1019 739 1031 727 c 0,13,14
 1034 725 1034 725 1036.5 723.5 c 128,-1,15
 1039 722 1039 722 1040 722 c 128,-1,16
 1041 722 1041 722 1042 721.5 c 128,-1,17
 1043 721 1043 721 1043 719 c 2,18,-1
 1043 2 l 1,19,-1
 1003 2 l 1,20,-1
 963 2 l 1,21,-1
 963 589 l 1,22,-1
 605 163 l 2,23,24
 594 151 594 151 575.5 150 c 128,-1,25
 557 149 557 149 544 163 c 2,26,-1
 186 589 l 1,27,-1
 186 2 l 1,28,-1
 146 2 l 1,0,-1
EndSplineSet
EndChar

StartChar: N
Encoding: 78 78 49
Width: 1006
Flags: W
LayerCount: 2
Fore
SplineSet
166 1 m 1,0,-1
 126 1 l 1,1,-1
 126 705 l 2,2,3
 126 722 126 722 139 734 c 128,-1,4
 152 746 152 746 169 745 c 0,5,6
 184 744 184 744 195 733 c 2,7,-1
 797 132 l 1,8,-1
 797 731 l 1,9,-1
 837 731 l 1,10,-1
 877 731 l 1,11,-1
 877 32 l 2,12,13
 877 17 877 17 867 6 c 0,14,15
 855 -7 855 -7 837.5 -7.5 c 128,-1,16
 820 -8 820 -8 808 5 c 2,17,-1
 206 605 l 1,18,-1
 206 1 l 1,19,-1
 166 1 l 1,0,-1
EndSplineSet
EndChar

StartChar: O
Encoding: 79 79 50
Width: 966
Flags: W
LayerCount: 2
Fore
SplineSet
160 569 m 5,0,-1
 195 549 l 5,1,2
 85 356 85 356 224 192 c 4,3,4
 265 144 265 144 329 113 c 132,-1,5
 393 82 393 82 464 70.5 c 132,-1,6
 535 59 535 59 610 79 c 132,-1,7
 685 99 685 99 743 148 c 5,8,-1
 769 118 l 5,9,-1
 795 87 l 5,10,11
 723 26 723 26 631.5 2 c 132,-1,12
 540 -22 540 -22 454 -8.5 c 132,-1,13
 368 5 368 5 290.5 43.5 c 132,-1,14
 213 82 213 82 163 141 c 4,15,16
 110 202 110 202 85 271 c 132,-1,17
 60 340 60 340 69 423.5 c 132,-1,18
 78 507 78 507 125 589 c 5,19,-1
 160 569 l 5,0,-1
769 118 m 5,20,-1
 738 143 l 5,21,22
 791 206 791 206 811 268 c 4,23,24
 831 333 831 333 820 389 c 132,-1,25
 809 445 809 445 777.5 494.5 c 132,-1,26
 746 544 746 544 697 585 c 4,27,28
 649 624 649 624 583.5 645.5 c 132,-1,29
 518 667 518 667 448 668 c 132,-1,30
 378 669 378 669 309.5 636.5 c 132,-1,31
 241 604 241 604 191 544 c 5,32,-1
 160 569 l 5,33,-1
 129 595 l 5,34,35
 191 669 191 669 275.5 708.5 c 132,-1,36
 360 748 360 748 445 747 c 132,-1,37
 530 746 530 746 610 720 c 132,-1,38
 690 694 690 694 748 646 c 4,39,40
 807 597 807 597 846 534 c 132,-1,41
 885 471 885 471 898.5 400 c 132,-1,42
 912 329 912 329 888 247 c 4,43,44
 865 171 865 171 800 92 c 5,45,-1
 769 118 l 5,20,-1
EndSplineSet
EndChar

StartChar: P
Encoding: 80 80 51
Width: 813
Flags: W
LayerCount: 2
Fore
SplineSet
186 276 m 1,0,-1
 186 2 l 1,1,-1
 146 2 l 1,2,-1
 106 2 l 1,3,-1
 106 316 l 1,4,-1
 106 703 l 2,5,6
 106 721 106 721 109.5 724.5 c 128,-1,7
 113 728 113 728 126 728 c 0,8,9
 257 728 257 728 388.5 703.5 c 128,-1,10
 520 679 520 679 621 634 c 128,-1,11
 722 589 722 589 755 534 c 0,12,13
 766 516 766 516 770 497 c 128,-1,14
 774 478 774 478 771 459.5 c 128,-1,15
 768 441 768 441 758.5 424 c 128,-1,16
 749 407 749 407 734 391.5 c 128,-1,17
 719 376 719 376 698 364 c 0,18,19
 649 334 649 334 586 315 c 128,-1,20
 523 296 523 296 447.5 288.5 c 128,-1,21
 372 281 372 281 318.5 279 c 128,-1,22
 265 277 265 277 186 276 c 1,0,-1
186 356 m 1,23,24
 243 357 243 357 287.5 358 c 128,-1,25
 332 359 332 359 388.5 363.5 c 128,-1,26
 445 368 445 368 489.5 376 c 128,-1,27
 534 384 534 384 579 398 c 128,-1,28
 624 412 624 412 657 432 c 0,29,30
 679 445 679 445 687 456 c 128,-1,31
 695 467 695 467 694 474 c 128,-1,32
 693 481 693 481 687 492 c 0,33,34
 657 542 657 542 505.5 591.5 c 128,-1,35
 354 641 354 641 186 647 c 1,36,-1
 186 356 l 1,23,24
EndSplineSet
EndChar

StartChar: Q
Encoding: 81 81 52
Width: 983
Flags: W
LayerCount: 2
Fore
SplineSet
166 573 m 1,0,-1
 201 553 l 1,1,2
 162 486 162 486 155.5 417.5 c 128,-1,3
 149 349 149 349 169 294 c 128,-1,4
 189 239 189 239 232 188 c 0,5,6
 273 140 273 140 337 109 c 128,-1,7
 401 78 401 78 472 68.5 c 128,-1,8
 543 59 543 59 618 77 c 128,-1,9
 693 95 693 95 751 145 c 5,10,-1
 777 114 l 5,11,-1
 803 87 l 1,12,13
 731 26 731 26 639.5 2 c 128,-1,14
 548 -22 548 -22 462 -10.5 c 128,-1,15
 376 1 376 1 298.5 39.5 c 128,-1,16
 221 78 221 78 171 136 c 0,17,18
 119 198 119 198 93.5 268.5 c 128,-1,19
 68 339 68 339 76 425 c 128,-1,20
 84 511 84 511 131 593 c 1,21,-1
 166 573 l 1,0,-1
777 114 m 5,22,-1
 746 140 l 5,23,24
 797 201 797 201 817 265 c 132,-1,25
 837 329 837 329 826.5 387.5 c 128,-1,26
 816 446 816 446 785 496.5 c 128,-1,27
 754 547 754 547 705 587 c 0,28,29
 657 627 657 627 591.5 648 c 128,-1,30
 526 669 526 669 456.5 670 c 128,-1,31
 387 671 387 671 317 639.5 c 128,-1,32
 247 608 247 608 197 548 c 1,33,-1
 166 573 l 1,34,-1
 135 599 l 1,35,36
 197 673 197 673 282.5 711.5 c 128,-1,37
 368 750 368 750 453 749.5 c 128,-1,38
 538 749 538 749 618 723 c 128,-1,39
 698 697 698 697 756 649 c 0,40,41
 815 600 815 600 853 536.5 c 128,-1,42
 891 473 891 473 904.5 399 c 128,-1,43
 918 325 918 325 894 244 c 132,-1,44
 870 163 870 163 808 89 c 5,45,-1
 777 114 l 5,22,-1
518 322 m 1,46,-1
 546 351 l 1,47,-1
 853 53 l 1,48,-1
 826 24 l 1,49,-1
 798 -5 l 1,50,-1
 490 294 l 1,51,-1
 518 322 l 1,46,-1
EndSplineSet
EndChar

StartChar: R
Encoding: 82 82 53
Width: 874
Flags: W
LayerCount: 2
Fore
SplineSet
197 280 m 1,0,-1
 197 2 l 1,1,-1
 157 2 l 1,2,-1
 117 2 l 1,3,-1
 117 320 l 1,4,-1
 117 707 l 2,5,6
 117 725 117 725 120.5 729 c 128,-1,7
 124 733 124 733 137 733 c 0,8,9
 277 733 277 733 417.5 707.5 c 128,-1,10
 558 682 558 682 665 634.5 c 128,-1,11
 772 587 772 587 803 530 c 0,12,13
 828 483 828 483 809.5 439.5 c 128,-1,14
 791 396 791 396 739 367 c 0,15,16
 695 343 695 343 639 326 c 128,-1,17
 583 309 583 309 533.5 300 c 128,-1,18
 484 291 484 291 416.5 286.5 c 128,-1,19
 349 282 349 282 306 281 c 128,-1,20
 263 280 263 280 197 280 c 1,0,-1
197 360 m 1,21,22
 276 360 276 360 332.5 362.5 c 128,-1,23
 389 365 389 365 461.5 372 c 128,-1,24
 534 379 534 379 594 395.5 c 128,-1,25
 654 412 654 412 700 437 c 0,26,27
 722 449 722 449 731 459.5 c 128,-1,28
 740 470 740 470 739.5 476 c 128,-1,29
 739 482 739 482 733 491 c 0,30,31
 716 522 716 522 638.5 557.5 c 128,-1,32
 561 593 561 593 440 620.5 c 128,-1,33
 319 648 319 648 197 652 c 1,34,-1
 197 360 l 1,21,22
719 10 m 1,35,-1
 687 -14 l 1,36,-1
 438 296 l 1,37,-1
 471 320 l 1,38,-1
 503 344 l 1,39,-1
 751 34 l 1,40,-1
 719 10 l 1,35,-1
EndSplineSet
EndChar

StartChar: S
Encoding: 83 83 54
Width: 844
Flags: W
LayerCount: 2
Fore
SplineSet
692 571 m 1,0,-1
 663 543 l 1,1,2
 605 603 605 603 527 636 c 0,3,4
 410 684 410 684 319.5 660.5 c 128,-1,5
 229 637 229 637 196 556 c 0,6,7
 180 517 180 517 213.5 491 c 128,-1,8
 247 465 247 465 314.5 450 c 128,-1,9
 382 435 382 435 457 422 c 128,-1,10
 532 409 532 409 612.5 386 c 128,-1,11
 693 363 693 363 738 332 c 0,12,13
 789 294 789 294 783.5 234 c 128,-1,14
 778 174 778 174 723 106 c 0,15,16
 721 103 721 103 718 101 c 0,17,18
 625 20 625 20 499.5 -3.5 c 128,-1,19
 374 -27 374 -27 254 13 c 128,-1,20
 134 53 134 53 56 146 c 1,21,-1
 86 171 l 1,22,-1
 117 197 l 1,23,24
 180 122 180 122 279 89.5 c 128,-1,25
 378 57 378 57 482 75 c 128,-1,26
 586 93 586 93 663 159 c 1,27,28
 691 195 691 195 700.5 219 c 128,-1,29
 710 243 710 243 705 253 c 128,-1,30
 700 263 700 263 687 270 c 0,31,32
 663 283 663 283 626 294 c 128,-1,33
 589 305 589 305 550 313 c 128,-1,34
 511 321 511 321 466.5 329.5 c 128,-1,35
 422 338 422 338 379.5 345.5 c 128,-1,36
 337 353 337 353 295.5 364 c 128,-1,37
 254 375 254 375 220 387.5 c 128,-1,38
 186 400 186 400 159.5 419 c 128,-1,39
 133 438 133 438 118.5 461 c 128,-1,40
 104 484 104 484 104 516 c 128,-1,41
 104 548 104 548 121 586 c 0,42,43
 156 666 156 666 227 707 c 128,-1,44
 298 748 298 748 383.5 747.5 c 128,-1,45
 469 747 469 747 558 710 c 0,46,47
 651 671 651 671 721 598 c 1,48,-1
 692 571 l 1,0,-1
EndSplineSet
EndChar

StartChar: T
Encoding: 84 84 55
Width: 771
Flags: W
LayerCount: 2
Fore
SplineSet
386 3 m 1,0,-1
 346 3 l 1,1,-1
 346 692 l 1,2,-1
 386 692 l 1,3,-1
 426 692 l 1,4,-1
 426 3 l 1,5,-1
 386 3 l 1,0,-1
20 692 m 1,6,-1
 20 732 l 1,7,-1
 749 732 l 1,8,-1
 749 692 l 1,9,-1
 749 652 l 1,10,-1
 20 652 l 1,11,-1
 20 692 l 1,6,-1
EndSplineSet
EndChar

StartChar: U
Encoding: 85 85 56
Width: 955
Flags: W
LayerCount: 2
Fore
SplineSet
796 2 m 5,0,-1
 756 2 l 5,1,-1
 756 731 l 5,2,-1
 796 731 l 5,3,-1
 836 731 l 5,4,-1
 836 2 l 5,5,-1
 796 2 l 5,0,-1
796 154 m 5,6,-1
 808 116 l 5,7,8
 699 80 699 80 625 57 c 132,-1,9
 551 34 551 34 452 12 c 132,-1,10
 353 -10 353 -10 291 -10 c 4,11,12
 213 -10 213 -10 163 31 c 132,-1,13
 113 72 113 72 113 154 c 6,14,-1
 113 731 l 5,15,-1
 153 731 l 5,16,-1
 193 731 l 5,17,-1
 193 154 l 6,18,19
 193 105 193 105 214.5 87.5 c 132,-1,20
 236 70 236 70 291 70 c 4,21,22
 418 70 418 70 783 192 c 5,23,-1
 796 154 l 5,6,-1
EndSplineSet
EndChar

StartChar: V
Encoding: 86 86 57
Width: 893
Flags: W
LayerCount: 2
Fore
SplineSet
839 729 m 1,0,-1
 873 709 l 1,1,-1
 482 15 l 2,2,3
 474 0 474 0 456 -4 c 0,4,5
 439 -8 439 -8 425 2 c 0,6,7
 415.926040062 8.04930662558 415.926040062 8.04930662558 412 15 c 2,8,-1
 20 709 l 1,9,-1
 55 729 l 1,10,-1
 89 749 l 1,11,-1
 447 116 l 1,12,-1
 804 749 l 1,13,-1
 839 729 l 1,0,-1
EndSplineSet
EndChar

StartChar: W
Encoding: 87 87 58
Width: 1322
Flags: W
LayerCount: 2
Fore
SplineSet
53 738 m 1,0,-1
 88 757 l 1,1,-1
 383 124 l 1,2,-1
 624 609 l 2,3,4
 632 624 632 624 649 629 c 128,-1,5
 666 634 666 634 681 625 c 0,6,7
 691 619 691 619 696 609 c 2,8,-1
 937 124 l 1,9,-1
 1232 757 l 1,10,-1
 1267 738 l 1,11,-1
 1303 720 l 1,12,-1
 972 17 l 2,13,14
 966 7 966 7 957 1 c 0,15,16
 942 -8 942 -8 925 -3 c 128,-1,17
 908 2 908 2 900 18 c 2,18,-1
 660 501 l 1,19,-1
 420 18 l 2,20,21
 415 7 415 7 405 1 c 0,22,23
 390 -8 390 -8 373 -3 c 128,-1,24
 356 2 356 2 348 17 c 2,25,-1
 17 720 l 1,26,-1
 53 738 l 1,0,-1
EndSplineSet
EndChar

StartChar: X
Encoding: 88 88 59
Width: 954
Flags: W
LayerCount: 2
Fore
SplineSet
99 725 m 1,0,-1
 126 754 l 1,1,-1
 880 42 l 1,2,-1
 853 13 l 1,3,-1
 825 -16 l 1,4,-1
 71 696 l 1,5,-1
 99 725 l 1,0,-1
853 725 m 1,6,-1
 880 696 l 1,7,-1
 503 340 l 1,8,-1
 476 369 l 1,9,-1
 448 398 l 1,10,-1
 825 754 l 1,11,-1
 853 725 l 1,6,-1
476 369 m 1,12,-1
 503 340 l 1,13,-1
 126 -16 l 1,14,-1
 99 13 l 1,15,-1
 71 42 l 1,16,-1
 448 398 l 1,17,-1
 476 369 l 1,12,-1
EndSplineSet
EndChar

StartChar: Y
Encoding: 89 89 60
Width: 771
Flags: W
LayerCount: 2
Fore
SplineSet
40 722 m 5,0,-1
 68 751 l 5,1,-1
 414 390 l 6,2,3
 426 378 426 378 426 361 c 6,4,-1
 426 4 l 5,5,-1
 386 4 l 5,6,-1
 346 4 l 5,7,-1
 346 345 l 5,8,-1
 11 694 l 5,9,-1
 40 722 l 5,0,-1
732 722 m 5,10,-1
 760 694 l 5,11,-1
 414 333 l 5,12,-1
 386 361 l 5,13,-1
 357 390 l 5,14,-1
 703 751 l 5,15,-1
 732 722 l 5,10,-1
EndSplineSet
EndChar

StartChar: Z
Encoding: 90 90 61
Width: 969
Flags: W
LayerCount: 2
Fore
SplineSet
150 694 m 1,0,-1
 150 734 l 1,1,-1
 827 734 l 2,2,3
 838 734 838 734 843 728 c 128,-1,4
 848 722 848 722 848 712.5 c 128,-1,5
 848 703 848 703 847 691 c 0,6,7
 846 676 846 676 835 665 c 2,8,-1
 227 82 l 1,9,-1
 868 82 l 1,10,-1
 868 42 l 1,11,-1
 868 2 l 1,12,-1
 113 2 l 2,13,14
 98 2 98 2 86 12 c 0,15,16
 75 25 75 25 80.5 41 c 128,-1,17
 86 57 86 57 100 71 c 2,18,-1
 708 654 l 1,19,-1
 150 654 l 1,20,-1
 150 694 l 1,0,-1
EndSplineSet
EndChar

StartChar: bracketleft
Encoding: 91 91 62
Width: 411
Flags: W
LayerCount: 2
Fore
SplineSet
284 776 m 1,0,-1
 284 736 l 1,1,-1
 212 736 l 1,2,-1
 212 37 l 1,3,-1
 284 37 l 1,4,-1
 284 -3 l 1,5,-1
 284 -43 l 1,6,-1
 152 -43 l 2,7,8
 149 -43 149 -43 145 -43 c 128,-1,9
 141 -43 141 -43 140 -43 c 128,-1,10
 139 -43 139 -43 137 -42.5 c 128,-1,11
 135 -42 135 -42 134.5 -41 c 128,-1,12
 134 -40 134 -40 133 -37.5 c 128,-1,13
 132 -35 132 -35 132 -31.5 c 128,-1,14
 132 -28 132 -28 132 -23 c 2,15,-1
 132 796 l 2,16,17
 132 798 132 798 131.5 802 c 128,-1,18
 131 806 131 806 131 807 c 128,-1,19
 131 808 131 808 132 810.5 c 128,-1,20
 133 813 133 813 134 813.5 c 128,-1,21
 135 814 135 814 137.5 814.5 c 128,-1,22
 140 815 140 815 143 815.5 c 128,-1,23
 146 816 146 816 152 816 c 2,24,-1
 284 816 l 1,25,-1
 284 776 l 1,0,-1
EndSplineSet
EndChar

StartChar: bracketright
Encoding: 93 93 63
Width: 406
Flags: W
LayerCount: 2
Fore
SplineSet
117 776 m 1,0,-1
 117 736 l 1,1,-1
 189 736 l 1,2,-1
 189 37 l 1,3,-1
 117 37 l 1,4,-1
 117 -3 l 1,5,-1
 117 -43 l 1,6,-1
 249 -43 l 2,7,8
 251 -43 251 -43 256 -43 c 128,-1,9
 261 -43 261 -43 262 -43 c 128,-1,10
 263 -43 263 -43 265.5 -42 c 128,-1,11
 268 -41 268 -41 268 -39 c 128,-1,12
 268 -37 268 -37 268.5 -33 c 128,-1,13
 269 -29 269 -29 269 -23 c 2,14,-1
 269 796 l 2,15,16
 269 798 269 798 269 802 c 128,-1,17
 269 806 269 806 269 807 c 128,-1,18
 269 808 269 808 268.5 810.5 c 128,-1,19
 268 813 268 813 267 813.5 c 128,-1,20
 266 814 266 814 263.5 814.5 c 128,-1,21
 261 815 261 815 257.5 815.5 c 128,-1,22
 254 816 254 816 249 816 c 2,23,-1
 117 816 l 1,24,-1
 117 776 l 1,0,-1
EndSplineSet
EndChar

StartChar: asciicircum
Encoding: 94 94 64
Width: 518
Flags: W
LayerCount: 2
Fore
SplineSet
71 791 m 5,0,-1
 49 824 l 5,1,-1
 235 921 l 6,2,3
 256.565457051 932.762976573 256.565457051 932.762976573 279 921 c 6,4,-1
 464 824 l 5,5,-1
 442 791 l 5,6,-1
 420 757 l 5,7,-1
 257 840 l 5,8,-1
 93 757 l 5,9,-1
 71 791 l 5,0,-1
EndSplineSet
EndChar

StartChar: underscore
Encoding: 95 95 65
Width: 674
Flags: W
LayerCount: 2
Fore
SplineSet
542 -39 m 1,0,-1
 542 -79 l 1,1,-1
 123 -79 l 1,2,-1
 123 -39 l 1,3,-1
 123 1 l 1,4,-1
 542 1 l 1,5,-1
 542 -39 l 1,0,-1
EndSplineSet
EndChar

StartChar: grave
Encoding: 96 96 66
Width: 503
Flags: W
LayerCount: 2
Fore
SplineSet
39 842 m 5,0,-1
 52 880 l 5,1,-1
 411 757 l 5,2,-1
 398 719 l 5,3,-1
 385 681 l 5,4,-1
 26 804 l 5,5,-1
 39 842 l 5,0,-1
EndSplineSet
EndChar

StartChar: a
Encoding: 97 97 67
Width: 747
Flags: W
LayerCount: 2
Fore
SplineSet
145 406 m 1,0,-1
 113 430 l 1,1,2
 184 527 184 527 345 534 c 0,3,4
 388 536 388 536 430.5 529 c 128,-1,5
 473 522 473 522 513 505 c 128,-1,6
 553 488 553 488 584 462.5 c 128,-1,7
 615 437 615 437 634.5 399 c 128,-1,8
 654 361 654 361 656 315 c 2,9,-1
 656 3 l 1,10,-1
 616 3 l 1,11,-1
 576 3 l 1,12,-1
 576 313 l 2,13,14
 573 380 573 380 506 419.5 c 128,-1,15
 439 459 439 459 346 454 c 0,16,17
 225 448 225 448 177 383 c 1,18,-1
 145 406 l 1,0,-1
616 268 m 1,19,-1
 616 228 l 1,20,-1
 155 228 l 2,21,22
 150 226 150 226 147 224 c 0,23,24
 126 210 126 210 124 194.5 c 128,-1,25
 122 179 122 179 136 157 c 0,26,27
 151 135 151 135 180 115.5 c 128,-1,28
 209 96 209 96 253.5 83.5 c 128,-1,29
 298 71 298 71 349 71 c 128,-1,30
 400 71 400 71 465 91.5 c 128,-1,31
 530 112 530 112 594 154 c 1,32,-1
 616 121 l 1,33,-1
 638 87 l 1,34,35
 548 28 548 28 455 5 c 128,-1,36
 362 -18 362 -18 288 -6.5 c 128,-1,37
 214 5 214 5 156.5 36 c 128,-1,38
 99 67 99 67 69 113 c 0,39,40
 50 142 50 142 46 174.5 c 128,-1,41
 42 207 42 207 56.5 238 c 128,-1,42
 71 269 71 269 103 291 c 0,43,44
 115 298 115 298 129 305 c 0,45,46
 137 308 137 308 145 308 c 2,47,-1
 616 308 l 1,48,-1
 616 268 l 1,19,-1
EndSplineSet
EndChar

StartChar: b
Encoding: 98 98 68
Width: 803
Flags: W
LayerCount: 2
Fore
SplineSet
137 802 m 1,0,-1
 177 802 l 1,1,-1
 177 2 l 1,2,-1
 137 2 l 1,3,-1
 97 2 l 1,4,-1
 97 802 l 1,5,-1
 137 802 l 1,0,-1
137 400 m 1,6,-1
 111 430 l 1,7,8
 172 482 172 482 248 505 c 128,-1,9
 324 528 324 528 395 522.5 c 128,-1,10
 466 517 466 517 532 489 c 0,11,12
 571 473 571 473 604 452 c 128,-1,13
 637 431 637 431 664.5 404.5 c 128,-1,14
 692 378 692 378 710.5 346.5 c 128,-1,15
 729 315 729 315 737.5 280 c 128,-1,16
 746 245 746 245 741.5 203.5 c 128,-1,17
 737 162 737 162 718 118 c 0,18,19
 716 113 716 113 714 109 c 0,20,21
 690 61 690 61 650.5 32.5 c 128,-1,22
 611 4 611 4 561 -3 c 128,-1,23
 511 -10 511 -10 456.5 -5.5 c 128,-1,24
 402 -1 402 -1 341 17 c 128,-1,25
 280 35 280 35 227 56 c 128,-1,26
 174 77 174 77 119 104 c 1,27,-1
 137 140 l 1,28,-1
 154 176 l 1,29,30
 270 119 270 119 370.5 93.5 c 128,-1,31
 471 68 471 68 544 80 c 128,-1,32
 617 92 617 92 642 144 c 0,33,34
 643 146 643 146 644 149 c 0,35,36
 718 323 718 323 501 416 c 0,37,38
 447 439 447 439 389.5 443 c 128,-1,39
 332 447 332 447 272 429 c 128,-1,40
 212 411 212 411 162 369 c 1,41,-1
 137 400 l 1,6,-1
EndSplineSet
EndChar

StartChar: c
Encoding: 99 99 69
Width: 736
Flags: W
LayerCount: 2
Fore
SplineSet
647 331 m 5,0,-1
 608 322 l 5,1,2
 598 358 598 358 557 388 c 4,3,4
 487 439 487 439 448 447.5 c 4,5,6
 340 470 340 470 316.5 469.5 c 4,7,8
 216.553208851 464.933902942 216.553208851 464.933902942 162.5 401 c 4,9,10
 116 346 116 346 130 259.5 c 4,11,12
 137.774642023 219.712488663 137.774642023 219.712488663 187 162 c 4,13,14
 220 124 220 124 271 100.5 c 132,-1,15
 322 77 322 77 396.5 70.5 c 132,-1,16
 471 64 471 64 526.5 82 c 132,-1,17
 582 100 582 100 630 142 c 5,18,-1
 656 112 l 5,19,-1
 683 82 l 5,20,21
 622 28 622 28 550 5 c 132,-1,22
 478 -18 478 -18 388.5 -9.5 c 132,-1,23
 299 -1 299 -1 234.5 30 c 132,-1,24
 170 61 170 61 127 109 c 4,25,26
 -32 289 -32 289 105 451 c 4,27,28
 173 532 173 532 286.5 540.5 c 4,29,30
 379 547 379 547 462 521.5 c 132,-1,31
 545 496 545 496 610 441 c 132,-1,32
 675 386 675 386 686 340 c 5,33,-1
 647 331 l 5,0,-1
EndSplineSet
EndChar

StartChar: d
Encoding: 100 100 70
Width: 805
Flags: W
LayerCount: 2
Fore
SplineSet
672 331 m 1,0,-1
 633 322 l 1,1,2
 623 351 623 351 573 388 c 0,3,4
 503 439 503 439 464 447.5 c 0,5,6
 356 470 356 470 332.5 469.5 c 0,7,8
 233 465 233 465 178.5 401 c 0,9,10
 130 343 130 343 146 259.5 c 0,11,12
 154 220 154 220 203 162 c 0,13,14
 236 124 236 124 287 100.5 c 128,-1,15
 338 77 338 77 412.5 70.5 c 128,-1,16
 487 64 487 64 542.5 82 c 128,-1,17
 598 100 598 100 646 142 c 1,18,-1
 672 112 l 1,19,-1
 699 82 l 1,20,21
 638 28 638 28 566 5 c 128,-1,22
 494 -18 494 -18 404.5 -9.5 c 128,-1,23
 315 -1 315 -1 250.5 30 c 128,-1,24
 186 61 186 61 143 109 c 0,25,26
 -16 289 -16 289 121 451 c 0,27,28
 189 532 189 532 302.5 540.5 c 0,29,30
 395 547 395 547 478 521.5 c 128,-1,31
 561 496 561 496 630.5 441 c 128,-1,32
 700 386 700 386 711 340 c 1,33,-1
 672 331 l 1,0,-1
671 802 m 1,34,-1
 711 802 l 1,35,-1
 711 1 l 1,36,-1
 671 1 l 1,37,-1
 631 1 l 1,38,-1
 631 802 l 1,39,-1
 671 802 l 1,34,-1
EndSplineSet
EndChar

StartChar: e
Encoding: 101 101 71
Width: 756
Flags: W
LayerCount: 2
Fore
SplineSet
126 237 m 5,0,-1
 118 263 l 5,1,-1
 691 328 l 5,2,-1
 710 290 l 5,3,-1
 720 251 l 5,4,-1
 136 183 l 5,5,-1
 126 237 l 5,0,-1
661 300 m 5,6,-1
 622 291 l 5,7,8
 608 354 608 354 562 388 c 4,9,10
 481 445 481 445 453 451.5 c 4,11,12
 370 468 370 468 321.5 466.5 c 4,13,14
 215 462 215 462 167.5 401 c 4,15,16
 120 341 120 341 133 259.5 c 4,17,18
 139 224 139 224 192 162 c 4,19,20
 225 124 225 124 276 100.5 c 132,-1,21
 327 77 327 77 401.5 70.5 c 132,-1,22
 476 64 476 64 531.5 82 c 132,-1,23
 587 100 587 100 635 142 c 5,24,-1
 661 112 l 5,25,-1
 688 82 l 5,26,27
 627 28 627 28 555 5 c 132,-1,28
 483 -18 483 -18 393.5 -9.5 c 132,-1,29
 304 -1 304 -1 239.5 30 c 132,-1,30
 175 61 175 61 132 109 c 4,31,32
 -26 288 -26 288 110 451 c 4,33,34
 175.915039062 530.09765625 175.915039062 530.09765625 291.5 537.5 c 4,35,36
 396 544 396 544 467 524 c 4,37,38
 538 505 538 505 611 447 c 4,39,40
 681 392 681 392 700 309 c 5,41,-1
 661 300 l 5,6,-1
EndSplineSet
EndChar

StartChar: f
Encoding: 102 102 72
Width: 652
Flags: W
LayerCount: 2
Fore
SplineSet
662 740 m 1,0,-1
 642 705 l 1,1,2
 588 736 588 736 528 736 c 0,3,4
 473 736 473 736 418 713 c 128,-1,5
 363 690 363 690 325 647 c 128,-1,6
 287 604 287 604 287 553 c 2,7,-1
 286 0 l 1,8,-1
 246 0 l 1,9,-1
 206 0 l 1,10,-1
 207 553 l 2,11,12
 207 610 207 610 236.5 660.5 c 128,-1,13
 266 711 266 711 313 744.5 c 128,-1,14
 360 778 360 778 417 797 c 128,-1,15
 474 816 474 816 528 816 c 0,16,17
 610 816 610 816 682 774 c 1,18,-1
 662 740 l 1,0,-1
60 483 m 1,19,-1
 60 523 l 1,20,-1
 569 523 l 1,21,-1
 569 483 l 1,22,-1
 569 443 l 1,23,-1
 60 443 l 1,24,-1
 60 483 l 1,19,-1
EndSplineSet
EndChar

StartChar: g
Encoding: 103 103 73
Width: 787
Flags: W
LayerCount: 2
Fore
SplineSet
665 331 m 5,0,-1
 626 322 l 5,1,2
 616 344 616 344 557 388 c 0,3,4
 487 439 487 439 448 447.5 c 0,5,6
 340 470 340 470 316.5 469.5 c 0,7,8
 217 465 217 465 162.5 401 c 0,9,10
 114 343 114 343 130 259.5 c 0,11,12
 138 220 138 220 187 162 c 0,13,14
 220 124 220 124 271 100.5 c 128,-1,15
 322 77 322 77 396.5 70.5 c 128,-1,16
 471 64 471 64 526.5 82 c 128,-1,17
 582 100 582 100 630 142 c 1,18,-1
 656 112 l 1,19,-1
 683 82 l 1,20,21
 622 28 622 28 550 5 c 128,-1,22
 478 -18 478 -18 388.5 -9.5 c 128,-1,23
 299 -1 299 -1 234.5 30 c 128,-1,24
 170 61 170 61 127 109 c 0,25,26
 -32 289 -32 289 105 451 c 0,27,28
 173 532 173 532 286.5 540.5 c 0,29,30
 379 547 379 547 462 521.5 c 128,-1,31
 545 496 545 496 619 441 c 128,-1,32
 693 386 693 386 704 340 c 5,33,-1
 665 331 l 5,0,-1
662 522 m 1,34,-1
 702 522 l 1,35,-1
 702 -61 l 2,36,37
 702 -147 702 -147 637 -202 c 0,38,39
 595 -237 595 -237 520.5 -249 c 128,-1,40
 446 -261 446 -261 364.5 -250 c 128,-1,41
 283 -239 283 -239 200.5 -199 c 128,-1,42
 118 -159 118 -159 65 -96 c 1,43,-1
 96 -70 l 1,44,-1
 127 -45 l 1,45,46
 163 -88 163 -88 216.5 -118 c 128,-1,47
 270 -148 270 -148 324 -160.5 c 128,-1,48
 378 -173 378 -173 431 -174.5 c 128,-1,49
 484 -176 484 -176 524.5 -167 c 128,-1,50
 565 -158 565 -158 585 -141 c 0,51,52
 622 -110 622 -110 622 -61 c 2,53,-1
 622 522 l 1,54,-1
 662 522 l 1,34,-1
EndSplineSet
EndChar

StartChar: h
Encoding: 104 104 74
Width: 820
Flags: W
LayerCount: 2
Fore
SplineSet
143 2 m 1,0,-1
 103 2 l 1,1,-1
 103 802 l 1,2,-1
 143 802 l 1,3,-1
 183 802 l 1,4,-1
 183 2 l 1,5,-1
 143 2 l 1,0,-1
145 374 m 1,6,-1
 122 407 l 1,7,8
 211 471 211 471 309.5 500.5 c 128,-1,9
 408 530 408 530 501 530 c 0,10,11
 545 530 545 530 584 520 c 128,-1,12
 623 510 623 510 655 490.5 c 128,-1,13
 687 471 687 471 705.5 438 c 128,-1,14
 724 405 724 405 724 362 c 2,15,-1
 724 4 l 1,16,-1
 684 4 l 1,17,-1
 644 4 l 1,18,-1
 644 362 l 2,19,20
 644 389 644 389 629.5 408 c 128,-1,21
 615 427 615 427 582.5 438.5 c 128,-1,22
 550 450 550 450 501 450 c 0,23,24
 422 450 422 450 335 424.5 c 128,-1,25
 248 399 248 399 169 342 c 1,26,-1
 145 374 l 1,6,-1
EndSplineSet
EndChar

StartChar: i
Encoding: 105 105 75
Width: 316
Flags: W
LayerCount: 2
Fore
SplineSet
153 2 m 5,0,-1
 113 2 l 5,1,-1
 113 462 l 5,2,-1
 113 502 l 5,3,-1
 113 542 l 5,4,-1
 173 542 l 6,5,6
 176 542 176 542 178.5 542 c 4,7,8
 182 542 182 542 183 542 c 132,-1,9
 184 542 184 542 186 542 c 132,-1,10
 188 542 188 542 189 541 c 132,-1,11
 190 540 190 540 191 539 c 132,-1,12
 192 538 192 538 192 535.5 c 132,-1,13
 192 533 192 533 192.5 530 c 132,-1,14
 193 527 193 527 193 522 c 6,15,-1
 193 2 l 5,16,-1
 153 2 l 5,0,-1
67 633 m 1,17,-1
 49 669 l 1,18,-1
 202 716 l 1,19,-1
 220 680 l 1,20,-1
 238 644 l 1,21,-1
 85 597 l 1,22,-1
 67 633 l 1,17,-1
EndSplineSet
EndChar

StartChar: j
Encoding: 106 106 76
Width: 534
Flags: W
LayerCount: 2
Fore
SplineSet
302 632 m 1,0,-1
 284 668 l 1,1,-1
 437 715 l 1,2,-1
 455 679 l 1,3,-1
 473 643 l 1,4,-1
 320 596 l 1,5,-1
 302 632 l 1,0,-1
393 522 m 1,6,-1
 433 522 l 1,7,-1
 433 -18 l 2,8,9
 433 -60 433 -60 413 -95 c 0,10,11
 385 -144 385 -144 325.5 -172 c 128,-1,12
 266 -200 266 -200 199.5 -203.5 c 128,-1,13
 133 -207 133 -207 67.5 -194.5 c 128,-1,14
 2 -182 2 -182 -44 -155 c 1,15,-1
 -24 -121 l 1,16,-1
 -4 -86 l 1,17,18
 33 -107 33 -107 87 -115.5 c 128,-1,19
 141 -124 141 -124 192 -119.5 c 128,-1,20
 243 -115 243 -115 286 -98 c 128,-1,21
 329 -81 329 -81 344 -55 c 0,22,23
 353 -39 353 -39 353 -18 c 2,24,-1
 353 522 l 1,25,-1
 393 522 l 1,6,-1
EndSplineSet
EndChar

StartChar: k
Encoding: 107 107 77
Width: 765
Flags: W
LayerCount: 2
Fore
SplineSet
138 2 m 1,0,-1
 98 2 l 1,1,-1
 98 803 l 1,2,-1
 138 803 l 1,3,-1
 178 803 l 1,4,-1
 178 2 l 1,5,-1
 138 2 l 1,0,-1
596 491 m 1,6,-1
 614 455 l 1,7,-1
 155 269 l 1,8,-1
 138 304 l 1,9,-1
 120 340 l 1,10,-1
 578 527 l 1,11,-1
 596 491 l 1,6,-1
212 323 m 1,12,-1
 236 355 l 1,13,-1
 714 57 l 1,14,-1
 689 25 l 1,15,-1
 665 -7 l 1,16,-1
 188 291 l 1,17,-1
 212 323 l 1,12,-1
EndSplineSet
EndChar

StartChar: l
Encoding: 108 108 78
Width: 317
Flags: W
LayerCount: 2
Fore
SplineSet
157 2 m 1,0,-1
 117 2 l 1,1,-1
 117 720 l 1,2,-1
 117 760 l 1,3,-1
 117 800 l 1,4,-1
 177 800 l 2,5,6
 179 800 179 800 183 800 c 128,-1,7
 187 800 187 800 188.5 800.5 c 128,-1,8
 190 801 190 801 192 800 c 128,-1,9
 194 799 194 799 194.5 798 c 128,-1,10
 195 797 195 797 196 794.5 c 128,-1,11
 197 792 197 792 197 789 c 128,-1,12
 197 786 197 786 197 780 c 2,13,-1
 197 2 l 1,14,-1
 157 2 l 1,0,-1
EndSplineSet
EndChar

StartChar: m
Encoding: 109 109 79
Width: 1260
Flags: W
LayerCount: 2
Fore
SplineSet
144 1 m 1,0,-1
 104 1 l 1,1,-1
 104 524 l 1,2,-1
 144 524 l 1,3,-1
 184 524 l 1,4,-1
 184 1 l 1,5,-1
 144 1 l 1,0,-1
144 401 m 1,6,-1
 128 438 l 1,7,8
 337 532 337 532 488 532 c 0,9,10
 522 532 522 532 552 525 c 128,-1,11
 582 518 582 518 607.5 503.5 c 128,-1,12
 633 489 633 489 648.5 463 c 128,-1,13
 664 437 664 437 664 401 c 2,14,-1
 664 1 l 1,15,-1
 624 1 l 1,16,-1
 584 1 l 1,17,-1
 584 401 l 2,18,19
 584 426 584 426 563 439 c 128,-1,20
 542 452 542 452 489 452 c 0,21,22
 426 452 426 452 338 428.5 c 128,-1,23
 250 405 250 405 161 365 c 1,24,-1
 144 401 l 1,6,-1
624 401 m 1,25,-1
 607 438 l 1,26,27
 816 532 816 532 968 532 c 0,28,29
 990 532 990 532 1010.5 529 c 128,-1,30
 1031 526 1031 526 1051 520 c 128,-1,31
 1071 514 1071 514 1087.5 503.5 c 128,-1,32
 1104 493 1104 493 1116.5 479 c 128,-1,33
 1129 465 1129 465 1136 445 c 128,-1,34
 1143 425 1143 425 1143 401 c 2,35,-1
 1143 1 l 1,36,-1
 1103 1 l 1,37,-1
 1063 1 l 1,38,-1
 1063 401 l 2,39,40
 1063 426 1063 426 1042.5 439 c 128,-1,41
 1022 452 1022 452 968 452 c 0,42,43
 905 452 905 452 817 428.5 c 128,-1,44
 729 405 729 405 640 365 c 1,45,-1
 624 401 l 1,25,-1
EndSplineSet
EndChar

StartChar: n
Encoding: 110 110 80
Width: 832
Flags: W
LayerCount: 2
Fore
SplineSet
145 374 m 1,0,-1
 122 407 l 1,1,2
 211 471 211 471 309.5 500.5 c 128,-1,3
 408 530 408 530 501 530 c 0,4,5
 545 530 545 530 584 520 c 128,-1,6
 623 510 623 510 655 490.5 c 128,-1,7
 687 471 687 471 705.5 438 c 128,-1,8
 724 405 724 405 724 362 c 2,9,-1
 724 4 l 1,10,-1
 684 4 l 1,11,-1
 644 4 l 1,12,-1
 644 362 l 2,13,14
 644 389 644 389 629.5 408 c 128,-1,15
 615 427 615 427 582.5 438.5 c 128,-1,16
 550 450 550 450 501 450 c 0,17,18
 422 450 422 450 335 424.5 c 128,-1,19
 248 399 248 399 169 342 c 1,20,-1
 145 374 l 1,0,-1
140 -1 m 1,21,-1
 100 -1 l 1,22,-1
 100 522 l 1,23,-1
 140 522 l 1,24,-1
 180 522 l 1,25,-1
 180 -1 l 1,26,-1
 140 -1 l 1,21,-1
EndSplineSet
EndChar

StartChar: o
Encoding: 111 111 81
Width: 793
Flags: W
LayerCount: 2
Fore
SplineSet
162 429 m 5,0,-1
 192 403 l 5,1,2
 152 356 152 356 140 317 c 132,-1,3
 128 278 128 278 140 243.5 c 132,-1,4
 152 209 152 209 185 168 c 4,5,6
 223 121 223 121 296 95 c 132,-1,7
 369 69 369 69 453 74 c 132,-1,8
 537 79 537 79 595 125 c 5,9,-1
 620 94 l 5,10,-1
 645 63 l 5,11,12
 587 17 587 17 509.5 -0.5 c 132,-1,13
 432 -18 432 -18 360 -4 c 132,-1,14
 288 10 288 10 223.5 41 c 132,-1,15
 159 72 159 72 122 118 c 4,16,17
 -17 285 -17 285 132 455 c 5,18,-1
 162 429 l 5,0,-1
620 94 m 5,19,-1
 590 121 l 5,20,21
 631 167 631 167 642.5 206.5 c 132,-1,22
 654 246 654 246 642 280.5 c 132,-1,23
 630 315 630 315 598 356 c 4,24,25
 570 391 570 391 519 415 c 132,-1,26
 468 439 468 439 410.5 449.5 c 132,-1,27
 353 460 353 460 292 446.5 c 132,-1,28
 231 433 231 433 187 398 c 5,29,-1
 162 429 l 5,30,-1
 137 460 l 5,31,32
 195 507 195 507 272.5 524 c 132,-1,33
 350 541 350 541 422.5 528 c 132,-1,34
 495 515 495 515 559 483.5 c 132,-1,35
 623 452 623 452 660 406 c 4,36,37
 799 239 799 239 650 68 c 5,38,-1
 620 94 l 5,19,-1
EndSplineSet
EndChar

StartChar: p
Encoding: 112 112 82
Width: 794
Flags: W
LayerCount: 2
Fore
SplineSet
146 522 m 1,0,-1
 186 522 l 1,1,-1
 186 -175 l 1,2,-1
 146 -175 l 1,3,-1
 106 -175 l 1,4,-1
 106 522 l 1,5,-1
 146 522 l 1,0,-1
146 401 m 1,6,-1
 117 429 l 1,7,8
 164 478 164 478 224 504.5 c 128,-1,9
 284 531 284 531 342 532.5 c 128,-1,10
 400 534 400 534 458 519 c 0,11,12
 518 502 518 502 573.5 467.5 c 128,-1,13
 629 433 629 433 673.5 382.5 c 128,-1,14
 718 332 718 332 735 270.5 c 128,-1,15
 752 209 752 209 734 139 c 0,16,17
 723 101 723 101 700 72 c 0,18,19
 649 6 649 6 543.5 -7 c 128,-1,20
 438 -20 438 -20 323.5 15 c 128,-1,21
 209 50 209 50 122 119 c 1,22,-1
 146 150 l 1,23,-1
 171 182 l 1,24,25
 249 120 249 120 349.5 92 c 128,-1,26
 450 64 450 64 528.5 73.5 c 128,-1,27
 607 83 607 83 637 121 c 0,28,29
 651 138 651 138 657 161 c 0,30,31
 669 202 669 202 661 239 c 128,-1,32
 653 276 653 276 631.5 308.5 c 128,-1,33
 610 341 610 341 578 367.5 c 128,-1,34
 546 394 546 394 509.5 413 c 128,-1,35
 473 432 473 432 436 442 c 0,36,37
 390 454 390 454 346 453 c 128,-1,38
 302 452 302 452 256.5 431.5 c 128,-1,39
 211 411 211 411 175 373 c 1,40,-1
 146 401 l 1,6,-1
EndSplineSet
EndChar

StartChar: q
Encoding: 113 113 83
Width: 826
Flags: W
LayerCount: 2
Fore
SplineSet
686 331 m 1,0,-1
 647 322 l 1,1,2
 637 345 637 345 579 388 c 0,3,4
 509 439 509 439 470 447.5 c 0,5,6
 362 470 362 470 338.5 469.5 c 0,7,8
 239 465 239 465 184.5 401 c 0,9,10
 136 343 136 343 152 259.5 c 0,11,12
 160 220 160 220 209 162 c 0,13,14
 242 124 242 124 293 100.5 c 128,-1,15
 344 77 344 77 418.5 70.5 c 128,-1,16
 493 64 493 64 548.5 82 c 128,-1,17
 604 100 604 100 652 142 c 1,18,-1
 678 112 l 1,19,-1
 705 82 l 1,20,21
 644 28 644 28 572 5 c 128,-1,22
 500 -18 500 -18 410.5 -9.5 c 128,-1,23
 321 -1 321 -1 256.5 30 c 128,-1,24
 192 61 192 61 149 109 c 0,25,26
 -10 289 -10 289 127 451 c 0,27,28
 195 532 195 532 308.5 540.5 c 0,29,30
 401 547 401 547 484 521.5 c 128,-1,31
 567 496 567 496 640.5 441 c 128,-1,32
 714 386 714 386 725 340 c 1,33,-1
 686 331 l 1,0,-1
683 523 m 1,34,-1
 723 523 l 1,35,-1
 723 -129 l 1,36,-1
 683 -129 l 1,37,-1
 643 -129 l 1,38,-1
 643 523 l 1,39,-1
 683 523 l 1,34,-1
EndSplineSet
EndChar

StartChar: r
Encoding: 114 114 84
Width: 744
Flags: W
LayerCount: 2
Fore
SplineSet
140 2 m 1,0,-1
 100 2 l 1,1,-1
 100 523 l 1,2,-1
 140 523 l 1,3,-1
 180 523 l 1,4,-1
 180 2 l 1,5,-1
 140 2 l 1,0,-1
623 362 m 1,6,-1
 603 365 l 1,7,8
 616 438 616 438 531 452 c 0,9,10
 465 464 465 464 358 432 c 128,-1,11
 251 400 251 400 166 328 c 1,12,-1
 140 358 l 1,13,-1
 114 389 l 1,14,15
 211 471 211 471 334 508.5 c 128,-1,16
 457 546 457 546 545 531 c 0,17,18
 614 519 614 519 654.5 470.5 c 128,-1,19
 695 422 695 422 682 351 c 1,20,-1
 643 358 l 1,21,-1
 623 362 l 1,6,-1
EndSplineSet
EndChar

StartChar: s
Encoding: 115 115 85
Width: 754
Flags: W
LayerCount: 2
Fore
SplineSet
604 394 m 1,0,-1
 575 367 l 1,1,2
 532 412 532 412 479 432 c 128,-1,3
 426 452 426 452 361.5 452.5 c 0,4,5
 300 453 300 453 247.5 432.5 c 128,-1,6
 195 412 195 412 185 379 c 0,7,8
 182 367 182 367 191.5 348 c 128,-1,9
 201 329 201 329 220 323.5 c 128,-1,10
 239 318 239 318 265 313.5 c 128,-1,11
 291 309 291 309 323.5 304.5 c 128,-1,12
 356 300 356 300 390 295.5 c 128,-1,13
 424 291 424 291 461.5 285.5 c 0,14,15
 521.04709665 276.766425825 521.04709665 276.766425825 533 274 c 0,16,17
 567 266 567 266 601 260 c 0,18,19
 656 250 656 250 661 248 c 0,20,21
 695 236 695 236 699.5 198.5 c 0,22,23
 706 138 706 138 681 111.5 c 0,24,25
 631 59 631 59 631 61.5 c 128,-1,26
 631 64 631 64 628 62 c 0,27,28
 550 5 550 5 436 -7.5 c 128,-1,29
 322 -20 322 -20 214.5 16 c 128,-1,30
 107 52 107 52 50 128 c 1,31,-1
 82 152 l 1,32,-1
 114 176 l 1,33,34
 157 119 157 119 243.5 91 c 128,-1,35
 330 63 330 63 423 71.5 c 128,-1,36
 516 80 516 80 577 124 c 1,37,38
 610 143 610 143 610 143.5 c 0,39,40
 618 161 618 161 615.5 166 c 128,-1,41
 613 171 613 171 605.5 178.5 c 128,-1,42
 598 186 598 186 560.5 191.5 c 128,-1,43
 523 197 523 197 473 201 c 128,-1,44
 423 205 423 205 364 212.5 c 128,-1,45
 305 220 305 220 253 231.5 c 128,-1,46
 201 243 201 243 160.5 263 c 128,-1,47
 120 283 120 283 106.5 312 c 0,48,49
 91 345 91 345 111 399.5 c 128,-1,50
 131 454 131 454 179.5 483.5 c 128,-1,51
 228 513 228 513 285 523.5 c 128,-1,52
 342 534 342 534 402.5 529.5 c 128,-1,53
 463 525 463 525 509 506 c 0,54,55
 580 477 580 477 633 422 c 1,56,-1
 604 394 l 1,0,-1
EndSplineSet
EndChar

StartChar: t
Encoding: 116 116 86
Width: 710
Flags: W
LayerCount: 2
Fore
SplineSet
287 624 m 5,0,-1
 327 624 l 5,1,-1
 327 123 l 6,2,3
 327 92 327 92 419 76.5 c 132,-1,4
 511 61 511 61 610 70 c 5,5,-1
 610 30 l 5,6,-1
 610 -10 l 5,7,8
 605 -10 605 -10 592 -10 c 4,9,10
 572 -11 572 -11 547 -10 c 132,-1,11
 522 -9 522 -9 494 -8.5 c 132,-1,12
 466 -8 466 -8 437 -4 c 132,-1,13
 408 0 408 0 380.5 5.5 c 132,-1,14
 353 11 353 11 329 21.5 c 132,-1,15
 305 32 305 32 286.5 45 c 132,-1,16
 268 58 268 58 257.5 78.5 c 132,-1,17
 247 99 247 99 247 123 c 6,18,-1
 247 624 l 5,19,-1
 287 624 l 5,0,-1
54 483 m 5,20,-1
 54 523 l 5,21,-1
 629 523 l 5,22,-1
 629 483 l 5,23,-1
 629 443 l 5,24,-1
 54 443 l 5,25,-1
 54 483 l 5,20,-1
EndSplineSet
EndChar

StartChar: u
Encoding: 117 117 87
Width: 825
Flags: W
LayerCount: 2
Fore
SplineSet
671 0 m 5,0,-1
 631 0 l 5,1,-1
 631 504 l 5,2,-1
 671 504 l 5,3,-1
 711 504 l 5,4,-1
 711 0 l 5,5,-1
 671 0 l 5,0,-1
670 132 m 5,6,-1
 688 96 l 5,7,8
 598 51 598 51 477 21 c 132,-1,9
 356 -9 356 -9 275 -9 c 4,10,11
 202 -9 202 -9 152 26 c 132,-1,12
 102 61 102 61 102 132 c 6,13,-1
 102 502 l 5,14,-1
 142 502 l 5,15,-1
 182 502 l 5,16,-1
 182 132 l 6,17,18
 182 100 182 100 202.5 85.5 c 132,-1,19
 223 71 223 71 275 71 c 4,20,21
 343 71 343 71 456 98.5 c 132,-1,22
 569 126 569 126 652 168 c 5,23,-1
 670 132 l 5,6,-1
EndSplineSet
EndChar

StartChar: v
Encoding: 118 118 88
Width: 793
Flags: W
LayerCount: 2
Fore
SplineSet
76 521 m 1,0,-1
 111 542 l 1,1,-1
 396 123 l 1,2,-1
 681 542 l 1,3,-1
 715 521 l 1,4,-1
 749 501 l 1,5,-1
 430 25 l 2,6,7
 426 18 426 18 419 13 c 0,8,9
 405 3 405 3 387.5 6.5 c 128,-1,10
 370 10 370 10 361 25 c 2,11,-1
 42 501 l 1,12,-1
 76 521 l 1,0,-1
EndSplineSet
EndChar

StartChar: w
Encoding: 119 119 89
Width: 1127
Flags: W
LayerCount: 2
Fore
SplineSet
78 523 m 1,0,-1
 114 541 l 1,1,-1
 333 122 l 1,2,-1
 529 496 l 1,3,-1
 564 477 l 1,4,-1
 599 436 l 1,5,-1
 366 17 l 2,6,7
 361 8 361 8 352 2 c 0,8,9
 341 -3 341 -3 330.5 -3 c 128,-1,10
 320 -3 320 -3 310 2.5 c 128,-1,11
 300 8 300 8 295 19 c 2,12,-1
 43 505 l 1,13,-1
 78 523 l 1,0,-1
564 477 m 1,14,-1
 599 496 l 1,15,-1
 795 122 l 1,16,-1
 1014 541 l 1,17,-1
 1050 523 l 1,18,-1
 1086 505 l 1,19,-1
 833 19 l 2,20,21
 828 9 828 9 819 3 c 0,22,23
 805 -6 805 -6 787.5 -2 c 128,-1,24
 770 2 770 2 762 17 c 2,25,-1
 529 436 l 1,26,-1
 564 477 l 1,14,-1
EndSplineSet
EndChar

StartChar: x
Encoding: 120 120 90
Width: 796
Flags: W
LayerCount: 2
Fore
SplineSet
88 513 m 1,0,-1
 114 544 l 1,1,-1
 729 42 l 1,2,-1
 703 11 l 1,3,-1
 677 -20 l 1,4,-1
 62 482 l 1,5,-1
 88 513 l 1,0,-1
703 513 m 1,6,-1
 729 482 l 1,7,-1
 420 230 l 1,8,-1
 395 261 l 1,9,-1
 369 292 l 1,10,-1
 677 544 l 1,11,-1
 703 513 l 1,6,-1
395 261 m 1,12,-1
 420 230 l 1,13,-1
 114 -20 l 1,14,-1
 88 11 l 1,15,-1
 62 42 l 1,16,-1
 369 292 l 1,17,-1
 395 261 l 1,12,-1
EndSplineSet
EndChar

StartChar: y
Encoding: 121 121 91
Width: 802
Flags: W
LayerCount: 2
Fore
SplineSet
662 -7 m 5,0,-1
 622 -7 l 5,1,-1
 622 522 l 5,2,-1
 662 522 l 5,3,-1
 702 522 l 5,4,-1
 702 -7 l 5,5,-1
 662 -7 l 5,0,-1
662 160 m 5,6,-1
 686 128 l 5,7,8
 640 94 640 94 590.5 68 c 132,-1,9
 541 42 541 42 493 25.5 c 132,-1,10
 445 9 445 9 399 0 c 132,-1,11
 353 -9 353 -9 310 -9 c 4,12,13
 251 -9 251 -9 202.5 8 c 132,-1,14
 154 25 154 25 121.5 64.5 c 132,-1,15
 89 104 89 104 89 160 c 6,16,-1
 89 522 l 5,17,-1
 129 522 l 5,18,-1
 169 522 l 5,19,-1
 169 160 l 6,20,21
 169 119 169 119 204 95 c 132,-1,22
 239 71 239 71 310 71 c 4,23,24
 383 71 383 71 470.5 102 c 132,-1,25
 558 133 558 133 639 193 c 5,26,-1
 662 160 l 5,6,-1
662 522 m 5,27,-1
 702 522 l 5,28,-1
 702 -7 l 6,29,30
 702 -67 702 -67 668 -114 c 4,31,32
 619 -181 619 -181 524.5 -205 c 132,-1,33
 430 -229 430 -229 316.5 -202.5 c 132,-1,34
 203 -176 203 -176 106 -105 c 5,35,-1
 129 -73 l 5,36,-1
 153 -40 l 5,37,38
 197 -73 197 -73 245 -94 c 132,-1,39
 293 -115 293 -115 337.5 -124 c 132,-1,40
 382 -133 382 -133 424.5 -133.5 c 132,-1,41
 467 -134 467 -134 501.5 -125.5 c 132,-1,42
 536 -117 536 -117 562.5 -102 c 132,-1,43
 589 -87 589 -87 603 -67 c 4,44,45
 622 -41 622 -41 622 -7 c 6,46,-1
 622 522 l 5,47,-1
 662 522 l 5,27,-1
EndSplineSet
EndChar

StartChar: z
Encoding: 122 122 92
Width: 818
Flags: W
LayerCount: 2
Fore
SplineSet
131 482 m 1,0,-1
 131 522 l 1,1,-1
 697 522 l 2,2,3
 708 522 708 522 712.5 516 c 128,-1,4
 717 510 717 510 717 500.5 c 128,-1,5
 717 491 717 491 716 479 c 0,6,7
 715 462 715 462 701 451 c 2,8,-1
 221 84 l 1,9,-1
 738 84 l 1,10,-1
 738 44 l 1,11,-1
 738 4 l 1,12,-1
 99 4 l 2,13,14
 96 4 96 4 94 4.5 c 128,-1,15
 92 5 92 5 90 6.5 c 128,-1,16
 88 8 88 8 87 9 c 128,-1,17
 86 10 86 10 83.5 12.5 c 128,-1,18
 81 15 81 15 80 17 c 0,19,20
 68 29 68 29 69 46.5 c 128,-1,21
 70 64 70 64 83 75 c 2,22,-1
 564 442 l 1,23,-1
 131 442 l 1,24,-1
 131 482 l 1,0,-1
EndSplineSet
EndChar

StartChar: braceleft
Encoding: 123 123 93
Width: 407
Flags: W
LayerCount: 2
Fore
SplineSet
128 372 m 1,0,-1
 128 406 l 1,1,2
 157 406 157 406 164.5 416.5 c 128,-1,3
 172 427 172 427 171 462 c 0,4,5
 171 476 171 476 165.5 511.5 c 128,-1,6
 160 547 160 547 154.5 581 c 128,-1,7
 149 615 149 615 149.5 655.5 c 128,-1,8
 150 696 150 696 160 725.5 c 128,-1,9
 170 755 170 755 198.5 775.5 c 128,-1,10
 227 796 227 796 274 796 c 1,11,-1
 274 752 l 1,12,-1
 274 716 l 1,13,14
 250 716 250 716 240 705.5 c 128,-1,15
 230 695 230 695 230.5 671 c 128,-1,16
 231 647 231 647 235.5 620.5 c 128,-1,17
 240 594 240 594 245.5 548.5 c 128,-1,18
 251 503 251 503 251 462 c 0,19,20
 252 436 252 436 245.5 413.5 c 128,-1,21
 239 391 239 391 225.5 370.5 c 128,-1,22
 212 350 212 350 187 338 c 128,-1,23
 162 326 162 326 128 326 c 1,24,-1
 128 372 l 1,0,-1
274 -17 m 1,25,-1
 274 -63 l 1,26,27
 240 -63 240 -63 215 -51 c 128,-1,28
 190 -39 190 -39 176.5 -19 c 128,-1,29
 163 1 163 1 156.5 24 c 128,-1,30
 150 47 150 47 150 73 c 0,31,32
 151 114 151 114 156.5 159 c 128,-1,33
 162 204 162 204 166.5 231 c 128,-1,34
 171 258 171 258 171.5 282 c 128,-1,35
 172 306 172 306 162 316 c 128,-1,36
 152 326 152 326 128 326 c 1,37,-1
 128 363 l 1,38,-1
 128 406 l 1,39,40
 175 406 175 406 203.5 386 c 128,-1,41
 232 366 232 366 242 336 c 128,-1,42
 252 306 252 306 252.5 266 c 128,-1,43
 253 226 253 226 247.5 191.5 c 128,-1,44
 242 157 242 157 236.5 121.5 c 128,-1,45
 231 86 231 86 230 73 c 0,46,47
 230 37 230 37 237.5 27 c 128,-1,48
 245 17 245 17 274 17 c 1,49,-1
 274 -17 l 1,25,-1
EndSplineSet
EndChar

StartChar: braceright
Encoding: 125 125 94
Width: 404
Flags: W
LayerCount: 2
Fore
SplineSet
273 372 m 1,0,-1
 273 406 l 1,1,2
 244 406 244 406 236.5 416.5 c 128,-1,3
 229 427 229 427 229 462 c 0,4,5
 230 475 230 475 234.5 503 c 128,-1,6
 239 531 239 531 243.5 560 c 128,-1,7
 248 589 248 589 251 623.5 c 128,-1,8
 254 658 254 658 249.5 687.5 c 128,-1,9
 245 717 245 717 233 742 c 128,-1,10
 221 767 221 767 194 781.5 c 128,-1,11
 167 796 167 796 127 796 c 1,12,-1
 127 752 l 1,13,-1
 127 716 l 1,14,15
 151 716 151 716 161 705.5 c 128,-1,16
 171 695 171 695 170.5 671 c 128,-1,17
 170 647 170 647 165.5 620.5 c 128,-1,18
 161 594 161 594 155.5 548.5 c 128,-1,19
 150 503 150 503 149 462 c 0,20,21
 149 436 149 436 155.5 413.5 c 128,-1,22
 162 391 162 391 175.5 370.5 c 128,-1,23
 189 350 189 350 214 338 c 128,-1,24
 239 326 239 326 273 326 c 1,25,-1
 273 372 l 1,0,-1
127 -17 m 1,26,-1
 127 -63 l 1,27,28
 161 -63 161 -63 186 -51 c 128,-1,29
 211 -39 211 -39 224.5 -19 c 128,-1,30
 238 1 238 1 244.5 24 c 128,-1,31
 251 47 251 47 250 73 c 0,32,33
 250 114 250 114 244.5 159 c 128,-1,34
 239 204 239 204 234.5 231 c 128,-1,35
 230 258 230 258 229.5 282 c 128,-1,36
 229 306 229 306 239 316 c 128,-1,37
 249 326 249 326 273 326 c 1,38,-1
 273 363 l 1,39,-1
 273 406 l 1,40,41
 226 406 226 406 197.5 386 c 128,-1,42
 169 366 169 366 159 336 c 128,-1,43
 149 306 149 306 148.5 266 c 128,-1,44
 148 226 148 226 153.5 191.5 c 128,-1,45
 159 157 159 157 164.5 121.5 c 128,-1,46
 170 86 170 86 170 73 c 0,47,48
 171 48 171 48 168 37 c 128,-1,49
 165 26 165 26 156 21.5 c 128,-1,50
 147 17 147 17 127 17 c 1,51,-1
 127 -17 l 1,26,-1
EndSplineSet
EndChar

StartChar: cent
Encoding: 162 162 95
Width: 964
Flags: W
LayerCount: 2
Fore
SplineSet
864 577 m 1,0,-1
 834 552 l 1,1,2
 815 574 815 574 793 592 c 0,3,4
 727 647 727 647 630 663 c 128,-1,5
 533 679 533 679 438 649.5 c 128,-1,6
 343 620 343 620 286 552 c 0,7,8
 224 478 224 478 220 404 c 128,-1,9
 216 330 216 330 263 254 c 0,10,11
 309 175 309 175 402.5 124.5 c 128,-1,12
 496 74 496 74 611 71.5 c 128,-1,13
 726 69 726 69 844 134 c 1,14,-1
 864 99 l 1,15,-1
 884 64 l 1,16,17
 746 -12 746 -12 609.5 -8 c 128,-1,18
 473 -4 473 -4 361 57 c 128,-1,19
 249 118 249 118 194 214 c 0,20,21
 74 423 74 423 225 603 c 0,22,23
 296 688 296 688 411 724.5 c 128,-1,24
 526 761 526 761 644.5 741.5 c 128,-1,25
 763 722 763 722 845 653 c 0,26,27
 872 630 872 630 895 603 c 1,28,-1
 864 577 l 1,0,-1
65 433 m 1,29,-1
 65 473 l 1,30,-1
 437 473 l 1,31,-1
 437 433 l 1,32,-1
 437 393 l 1,33,-1
 65 393 l 1,34,-1
 65 433 l 1,29,-1
65 310 m 1,35,-1
 65 350 l 1,36,-1
 437 350 l 1,37,-1
 437 310 l 1,38,-1
 437 270 l 1,39,-1
 65 270 l 1,40,-1
 65 310 l 1,35,-1
EndSplineSet
EndChar

StartChar: yen
Encoding: 165 165 96
Width: 777
Flags: W
LayerCount: 2
Fore
SplineSet
40 722 m 1,0,-1
 68 751 l 1,1,-1
 414 390 l 2,2,3
 426 378 426 378 426 361 c 2,4,-1
 426 4 l 1,5,-1
 386 4 l 1,6,-1
 346 4 l 1,7,-1
 346 345 l 1,8,-1
 11 694 l 1,9,-1
 40 722 l 1,0,-1
732 722 m 1,10,-1
 760 694 l 1,11,-1
 414 333 l 1,12,-1
 386 361 l 1,13,-1
 357 390 l 1,14,-1
 703 751 l 1,15,-1
 732 722 l 1,10,-1
212 214 m 1,16,-1
 212 254 l 1,17,-1
 551 254 l 1,18,-1
 551 214 l 1,19,-1
 551 174 l 1,20,-1
 212 174 l 1,21,-1
 212 214 l 1,16,-1
212 342 m 1,22,-1
 212 382 l 1,23,-1
 551 382 l 1,24,-1
 551 342 l 1,25,-1
 551 302 l 1,26,-1
 212 302 l 1,27,-1
 212 342 l 1,22,-1
EndSplineSet
EndChar

StartChar: dieresis
Encoding: 168 168 97
Width: 468
Flags: W
LayerCount: 2
Fore
SplineSet
113 760 m 5,0,-1
 73 760 l 5,1,-1
 73 843 l 5,2,-1
 113 843 l 5,3,-1
 153 843 l 5,4,-1
 153 760 l 5,5,-1
 113 760 l 5,0,-1
347 760 m 5,6,-1
 307 760 l 5,7,-1
 307 843 l 5,8,-1
 347 843 l 5,9,-1
 387 843 l 5,10,-1
 387 760 l 5,11,-1
 347 760 l 5,6,-1
EndSplineSet
EndChar

StartChar: guillemotleft
Encoding: 171 171 98
Width: 1106
Flags: W
LayerCount: 2
Fore
SplineSet
584 134 m 1,0,-1
 551 112 l 1,1,-1
 454 258 l 2,2,3
 439 280 439 280 454 302 c 2,4,-1
 551 448 l 1,5,-1
 584 426 l 1,6,-1
 618 404 l 1,7,-1
 535 280 l 1,8,-1
 618 156 l 1,9,-1
 584 134 l 1,0,-1
371 134 m 1,10,-1
 338 112 l 1,11,-1
 241 258 l 2,12,13
 226 280 226 280 241 302 c 2,14,-1
 338 448 l 1,15,-1
 371 426 l 1,16,-1
 405 404 l 1,17,-1
 322 280 l 1,18,-1
 405 156 l 1,19,-1
 371 134 l 1,10,-1
EndSplineSet
EndChar

StartChar: uni00AD
Encoding: 173 173 99
Width: 1452
Flags: W
LayerCount: 2
Fore
SplineSet
622 316 m 1,0,-1
 622 276 l 1,1,-1
 233 276 l 1,2,-1
 233 316 l 1,3,-1
 233 356 l 1,4,-1
 622 356 l 1,5,-1
 622 316 l 1,0,-1
EndSplineSet
EndChar

StartChar: macron
Encoding: 175 175 100
Width: 1536
Flags: W
LayerCount: 2
Fore
SplineSet
752 342 m 1,0,-1
 752 302 l 1,1,-1
 265 302 l 1,2,-1
 265 342 l 1,3,-1
 265 382 l 1,4,-1
 752 382 l 1,5,-1
 752 342 l 1,0,-1
EndSplineSet
EndChar

StartChar: acute
Encoding: 180 180 101
Width: 1469
Flags: W
LayerCount: 2
Fore
SplineSet
-50 719 m 5,0,-1
 -63 757 l 5,1,-1
 229 855 l 5,2,-1
 242 817 l 5,3,-1
 255 779 l 5,4,-1
 -37 681 l 5,5,-1
 -50 719 l 5,0,-1
EndSplineSet
EndChar

StartChar: guillemotright
Encoding: 187 187 102
Width: 1106
Flags: W
LayerCount: 2
Fore
SplineSet
274 426 m 1,0,-1
 307 448 l 1,1,-1
 405 302 l 2,2,3
 419 280 419 280 405 258 c 2,4,-1
 307 112 l 1,5,-1
 274 134 l 1,6,-1
 241 156 l 1,7,-1
 323 280 l 1,8,-1
 241 404 l 1,9,-1
 274 426 l 1,0,-1
487 426 m 1,10,-1
 520 448 l 1,11,-1
 618 302 l 2,12,13
 632 280 632 280 618 258 c 2,14,-1
 520 112 l 1,15,-1
 487 134 l 1,16,-1
 454 156 l 1,17,-1
 536 280 l 1,18,-1
 454 404 l 1,19,-1
 487 426 l 1,10,-1
EndSplineSet
EndChar

StartChar: Agrave
Encoding: 192 192 103
Width: 931
Flags: W
LayerCount: 2
Fore
SplineSet
284 943 m 5,0,-1
 297 981 l 5,1,-1
 656 858 l 5,2,-1
 643 820 l 5,3,-1
 630 782 l 5,4,-1
 271 905 l 5,5,-1
 284 943 l 5,0,-1
77 9 m 1,6,-1
 42 29 l 1,7,-1
 426 729 l 2,8,9
 435 744 435 744 452 748 c 128,-1,10
 469 752 469 752 483 743 c 0,11,12
 491 737 491 737 496 729 c 2,13,-1
 886 26 l 1,14,-1
 851 7 l 1,15,-1
 816 -13 l 1,16,-1
 461 627 l 1,17,-1
 112 -10 l 1,18,-1
 77 9 l 1,6,-1
204 244 m 1,19,-1
 204 284 l 1,20,-1
 720 284 l 1,21,-1
 720 244 l 1,22,-1
 720 204 l 1,23,-1
 204 204 l 1,24,-1
 204 244 l 1,19,-1
EndSplineSet
EndChar

StartChar: Aacute
Encoding: 193 193 104
Width: 931
Flags: W
LayerCount: 2
Fore
SplineSet
277 823 m 5,0,-1
 264 861 l 5,1,-1
 614 977 l 5,2,-1
 627 939 l 5,3,-1
 640 901 l 5,4,-1
 290 785 l 5,5,-1
 277 823 l 5,0,-1
77 9 m 1,6,-1
 42 29 l 1,7,-1
 426 729 l 2,8,9
 435 744 435 744 452 748 c 128,-1,10
 469 752 469 752 483 743 c 0,11,12
 491 737 491 737 496 729 c 2,13,-1
 886 26 l 1,14,-1
 851 7 l 1,15,-1
 816 -13 l 1,16,-1
 461 627 l 1,17,-1
 112 -10 l 1,18,-1
 77 9 l 1,6,-1
204 244 m 1,19,-1
 204 284 l 1,20,-1
 720 284 l 1,21,-1
 720 244 l 1,22,-1
 720 204 l 1,23,-1
 204 204 l 1,24,-1
 204 244 l 1,19,-1
EndSplineSet
EndChar

StartChar: Acircumflex
Encoding: 194 194 105
Width: 931
Flags: W
LayerCount: 2
Fore
SplineSet
273 820 m 5,0,-1
 251 853 l 5,1,-1
 437 950 l 6,2,3
 458.565429688 961.762695312 458.565429688 961.762695312 481 950 c 6,4,-1
 666 853 l 5,5,-1
 644 820 l 5,6,-1
 622 786 l 5,7,-1
 459 869 l 5,8,-1
 295 786 l 5,9,-1
 273 820 l 5,0,-1
77 9 m 1,10,-1
 42 29 l 1,11,-1
 426 729 l 2,12,13
 435 744 435 744 452 748 c 128,-1,14
 469 752 469 752 483 743 c 0,15,16
 491 737 491 737 496 729 c 2,17,-1
 886 26 l 1,18,-1
 851 7 l 1,19,-1
 816 -13 l 1,20,-1
 461 627 l 1,21,-1
 112 -10 l 1,22,-1
 77 9 l 1,10,-1
204 244 m 1,23,-1
 204 284 l 1,24,-1
 720 284 l 1,25,-1
 720 244 l 1,26,-1
 720 204 l 1,27,-1
 204 204 l 1,28,-1
 204 244 l 1,23,-1
EndSplineSet
EndChar

StartChar: Adieresis
Encoding: 196 196 106
Width: 931
Flags: W
LayerCount: 2
Fore
SplineSet
342 797 m 5,0,-1
 302 797 l 5,1,-1
 302 880 l 5,2,-1
 342 880 l 5,3,-1
 382 880 l 5,4,-1
 382 797 l 5,5,-1
 342 797 l 5,0,-1
576 797 m 5,6,-1
 536 797 l 5,7,-1
 536 880 l 5,8,-1
 576 880 l 5,9,-1
 616 880 l 5,10,-1
 616 797 l 5,11,-1
 576 797 l 5,6,-1
77 9 m 1,12,-1
 42 29 l 1,13,-1
 426 729 l 2,14,15
 435 744 435 744 452 748 c 128,-1,16
 469 752 469 752 483 743 c 0,17,18
 491 737 491 737 496 729 c 2,19,-1
 886 26 l 1,20,-1
 851 7 l 1,21,-1
 816 -13 l 1,22,-1
 461 627 l 1,23,-1
 112 -10 l 1,24,-1
 77 9 l 1,12,-1
204 244 m 1,25,-1
 204 284 l 1,26,-1
 720 284 l 1,27,-1
 720 244 l 1,28,-1
 720 204 l 1,29,-1
 204 204 l 1,30,-1
 204 244 l 1,25,-1
EndSplineSet
EndChar

StartChar: Ccedilla
Encoding: 199 199 107
Width: 901
Flags: W
LayerCount: 2
Fore
SplineSet
490 -227 m 5,0,-1
 453 -212 l 5,1,2
 499 -103 499 -103 499 16 c 5,3,-1
 539 16 l 5,4,-1
 579 16 l 5,5,6
 579 -118 579 -118 527 -243 c 5,7,-1
 490 -227 l 5,0,-1
794 567 m 1,8,-1
 764 542 l 1,9,10
 745 564 745 564 723 582 c 0,11,12
 657 637 657 637 560 660.5 c 128,-1,13
 463 684 463 684 368 659.5 c 128,-1,14
 273 635 273 635 216 567 c 0,15,16
 154 493 154 493 150 404.5 c 0,17,18
 146 332 146 332 193 254 c 0,19,20
 241 174 241 174 332.5 124.5 c 0,21,22
 426 74 426 74 541 71.5 c 128,-1,23
 656 69 656 69 774 134 c 1,24,-1
 794 99 l 1,25,-1
 814 64 l 1,26,27
 676 -12 676 -12 539.5 -8 c 128,-1,28
 403 -4 403 -4 291 57 c 0,29,30
 175 120 175 120 124 214 c 0,31,32
 4 438 4 438 155 618 c 0,33,34
 226 703 226 703 341 734.5 c 128,-1,35
 456 766 456 766 574.5 739 c 128,-1,36
 693 712 693 712 775 643 c 0,37,38
 802 620 802 620 825 593 c 1,39,-1
 794 567 l 1,8,-1
EndSplineSet
EndChar

StartChar: Egrave
Encoding: 200 200 108
Width: 845
Flags: W
LayerCount: 2
Fore
SplineSet
248 943 m 5,0,-1
 261 981 l 5,1,-1
 620 858 l 5,2,-1
 607 820 l 5,3,-1
 594 782 l 5,4,-1
 235 905 l 5,5,-1
 248 943 l 5,0,-1
145 0 m 1,6,-1
 105 -2 l 1,7,-1
 105 707 l 2,8,9
 105 724 105 724 110 728 c 128,-1,10
 115 732 115 732 130 732 c 2,11,-1
 703 732 l 1,12,-1
 703 652 l 1,13,-1
 185 652 l 1,14,-1
 185 -2 l 1,15,-1
 145 0 l 1,6,-1
145 385 m 1,16,-1
 145 425 l 1,17,-1
 657 425 l 1,18,-1
 657 385 l 1,19,-1
 657 345 l 1,20,-1
 145 345 l 1,21,-1
 145 385 l 1,16,-1
145 40 m 1,22,-1
 145 80 l 1,23,-1
 750 80 l 1,24,-1
 750 0 l 1,25,-1
 145 0 l 1,26,-1
 145 40 l 1,22,-1
EndSplineSet
EndChar

StartChar: Eacute
Encoding: 201 201 109
Width: 845
Flags: W
LayerCount: 2
Fore
SplineSet
248 823 m 5,0,-1
 235 861 l 5,1,-1
 585 977 l 5,2,-1
 598 939 l 5,3,-1
 611 901 l 5,4,-1
 261 785 l 5,5,-1
 248 823 l 5,0,-1
145 0 m 1,6,-1
 105 -2 l 1,7,-1
 105 707 l 2,8,9
 105 724 105 724 110 728 c 128,-1,10
 115 732 115 732 130 732 c 2,11,-1
 703 732 l 1,12,-1
 703 652 l 1,13,-1
 185 652 l 1,14,-1
 185 -2 l 1,15,-1
 145 0 l 1,6,-1
145 385 m 1,16,-1
 145 425 l 1,17,-1
 657 425 l 1,18,-1
 657 385 l 1,19,-1
 657 345 l 1,20,-1
 145 345 l 1,21,-1
 145 385 l 1,16,-1
145 40 m 1,22,-1
 145 80 l 1,23,-1
 750 80 l 1,24,-1
 750 0 l 1,25,-1
 145 0 l 1,26,-1
 145 40 l 1,22,-1
EndSplineSet
EndChar

StartChar: Ecircumflex
Encoding: 202 202 110
Width: 845
Flags: W
LayerCount: 2
Fore
SplineSet
228 820 m 5,0,-1
 206 853 l 5,1,-1
 392 950 l 6,2,3
 413.565429688 961.762695312 413.565429688 961.762695312 436 950 c 6,4,-1
 621 853 l 5,5,-1
 599 820 l 5,6,-1
 577 786 l 5,7,-1
 414 869 l 5,8,-1
 250 786 l 5,9,-1
 228 820 l 5,0,-1
145 0 m 1,10,-1
 105 -2 l 1,11,-1
 105 707 l 2,12,13
 105 724 105 724 110 728 c 128,-1,14
 115 732 115 732 130 732 c 2,15,-1
 703 732 l 1,16,-1
 703 652 l 1,17,-1
 185 652 l 1,18,-1
 185 -2 l 1,19,-1
 145 0 l 1,10,-1
145 385 m 1,20,-1
 145 425 l 1,21,-1
 657 425 l 1,22,-1
 657 385 l 1,23,-1
 657 345 l 1,24,-1
 145 345 l 1,25,-1
 145 385 l 1,20,-1
145 40 m 1,26,-1
 145 80 l 1,27,-1
 750 80 l 1,28,-1
 750 0 l 1,29,-1
 145 0 l 1,30,-1
 145 40 l 1,26,-1
EndSplineSet
EndChar

StartChar: Edieresis
Encoding: 203 203 111
Width: 845
Flags: W
LayerCount: 2
Fore
SplineSet
309 797 m 5,0,-1
 269 797 l 5,1,-1
 269 880 l 5,2,-1
 309 880 l 5,3,-1
 349 880 l 5,4,-1
 349 797 l 5,5,-1
 309 797 l 5,0,-1
543 797 m 5,6,-1
 503 797 l 5,7,-1
 503 880 l 5,8,-1
 543 880 l 5,9,-1
 583 880 l 5,10,-1
 583 797 l 5,11,-1
 543 797 l 5,6,-1
145 0 m 1,12,-1
 105 -2 l 1,13,-1
 105 707 l 2,14,15
 105 724 105 724 110 728 c 128,-1,16
 115 732 115 732 130 732 c 2,17,-1
 703 732 l 1,18,-1
 703 652 l 1,19,-1
 185 652 l 1,20,-1
 185 -2 l 1,21,-1
 145 0 l 1,12,-1
145 385 m 1,22,-1
 145 425 l 1,23,-1
 657 425 l 1,24,-1
 657 385 l 1,25,-1
 657 345 l 1,26,-1
 145 345 l 1,27,-1
 145 385 l 1,22,-1
145 40 m 1,28,-1
 145 80 l 1,29,-1
 750 80 l 1,30,-1
 750 0 l 1,31,-1
 145 0 l 1,32,-1
 145 40 l 1,28,-1
EndSplineSet
EndChar

StartChar: Igrave
Encoding: 204 204 112
Width: 327
Flags: W
LayerCount: 2
Fore
SplineSet
-5 943 m 5,0,-1
 8 981 l 5,1,-1
 367 858 l 5,2,-1
 354 820 l 5,3,-1
 341 782 l 5,4,-1
 -18 905 l 5,5,-1
 -5 943 l 5,0,-1
162 0 m 1,6,-1
 122 0 l 1,7,-1
 122 730 l 1,8,-1
 162 730 l 1,9,-1
 202 730 l 1,10,-1
 202 0 l 1,11,-1
 162 0 l 1,6,-1
EndSplineSet
EndChar

StartChar: Iacute
Encoding: 205 205 113
Width: 327
Flags: W
LayerCount: 2
Fore
SplineSet
-15 823 m 5,0,-1
 -28 861 l 5,1,-1
 322 977 l 5,2,-1
 335 939 l 5,3,-1
 348 901 l 5,4,-1
 -2 785 l 5,5,-1
 -15 823 l 5,0,-1
162 0 m 1,6,-1
 122 0 l 1,7,-1
 122 730 l 1,8,-1
 162 730 l 1,9,-1
 202 730 l 1,10,-1
 202 0 l 1,11,-1
 162 0 l 1,6,-1
EndSplineSet
EndChar

StartChar: Icircumflex
Encoding: 206 206 114
Width: 327
Flags: W
LayerCount: 2
Fore
SplineSet
-23 820 m 5,0,-1
 -45 853 l 5,1,-1
 141 950 l 6,2,3
 162.565429688 961.762695312 162.565429688 961.762695312 185 950 c 6,4,-1
 370 853 l 5,5,-1
 348 820 l 5,6,-1
 326 786 l 5,7,-1
 163 869 l 5,8,-1
 -1 786 l 5,9,-1
 -23 820 l 5,0,-1
162 0 m 1,10,-1
 122 0 l 1,11,-1
 122 730 l 1,12,-1
 162 730 l 1,13,-1
 202 730 l 1,14,-1
 202 0 l 1,15,-1
 162 0 l 1,10,-1
EndSplineSet
EndChar

StartChar: Idieresis
Encoding: 207 207 115
Width: 327
Flags: W
LayerCount: 2
Fore
SplineSet
44 797 m 5,0,-1
 4 797 l 5,1,-1
 4 880 l 5,2,-1
 44 880 l 5,3,-1
 84 880 l 5,4,-1
 84 797 l 5,5,-1
 44 797 l 5,0,-1
278 797 m 5,6,-1
 238 797 l 5,7,-1
 238 880 l 5,8,-1
 278 880 l 5,9,-1
 318 880 l 5,10,-1
 318 797 l 5,11,-1
 278 797 l 5,6,-1
162 0 m 1,12,-1
 122 0 l 1,13,-1
 122 730 l 1,14,-1
 162 730 l 1,15,-1
 202 730 l 1,16,-1
 202 0 l 1,17,-1
 162 0 l 1,12,-1
EndSplineSet
EndChar

StartChar: Ograve
Encoding: 210 210 116
Width: 966
Flags: W
LayerCount: 2
Fore
SplineSet
294 943 m 5,0,-1
 307 981 l 5,1,-1
 666 858 l 5,2,-1
 653 820 l 5,3,-1
 640 782 l 5,4,-1
 281 905 l 5,5,-1
 294 943 l 5,0,-1
160 569 m 1,6,-1
 195 549 l 1,7,8
 85 356 85 356 224 192 c 0,9,10
 265 144 265 144 329 113 c 128,-1,11
 393 82 393 82 464 70.5 c 128,-1,12
 535 59 535 59 610 79 c 128,-1,13
 685 99 685 99 743 148 c 1,14,-1
 769 118 l 1,15,-1
 795 87 l 1,16,17
 723 26 723 26 631.5 2 c 128,-1,18
 540 -22 540 -22 454 -8.5 c 128,-1,19
 368 5 368 5 290.5 43.5 c 128,-1,20
 213 82 213 82 163 141 c 0,21,22
 110 202 110 202 85 271 c 128,-1,23
 60 340 60 340 69 423.5 c 128,-1,24
 78 507 78 507 125 589 c 1,25,-1
 160 569 l 1,6,-1
769 118 m 1,26,-1
 738 143 l 1,27,28
 791 206 791 206 811 268 c 0,29,30
 831 333 831 333 820 389 c 128,-1,31
 809 445 809 445 777.5 494.5 c 128,-1,32
 746 544 746 544 697 585 c 0,33,34
 649 624 649 624 583.5 645.5 c 128,-1,35
 518 667 518 667 448 668 c 128,-1,36
 378 669 378 669 309.5 636.5 c 128,-1,37
 241 604 241 604 191 544 c 1,38,-1
 160 569 l 1,39,-1
 129 595 l 1,40,41
 191 669 191 669 275.5 708.5 c 128,-1,42
 360 748 360 748 445 747 c 128,-1,43
 530 746 530 746 610 720 c 128,-1,44
 690 694 690 694 748 646 c 0,45,46
 807 597 807 597 846 534 c 128,-1,47
 885 471 885 471 898.5 400 c 128,-1,48
 912 329 912 329 888 247 c 0,49,50
 865 171 865 171 800 92 c 1,51,-1
 769 118 l 1,26,-1
EndSplineSet
EndChar

StartChar: Oacute
Encoding: 211 211 117
Width: 966
Flags: W
LayerCount: 2
Fore
SplineSet
267 823 m 5,0,-1
 254 861 l 5,1,-1
 604 977 l 5,2,-1
 617 939 l 5,3,-1
 630 901 l 5,4,-1
 280 785 l 5,5,-1
 267 823 l 5,0,-1
160 569 m 1,6,-1
 195 549 l 1,7,8
 85 356 85 356 224 192 c 0,9,10
 265 144 265 144 329 113 c 128,-1,11
 393 82 393 82 464 70.5 c 128,-1,12
 535 59 535 59 610 79 c 128,-1,13
 685 99 685 99 743 148 c 1,14,-1
 769 118 l 1,15,-1
 795 87 l 1,16,17
 723 26 723 26 631.5 2 c 128,-1,18
 540 -22 540 -22 454 -8.5 c 128,-1,19
 368 5 368 5 290.5 43.5 c 128,-1,20
 213 82 213 82 163 141 c 0,21,22
 110 202 110 202 85 271 c 128,-1,23
 60 340 60 340 69 423.5 c 128,-1,24
 78 507 78 507 125 589 c 1,25,-1
 160 569 l 1,6,-1
769 118 m 1,26,-1
 738 143 l 1,27,28
 791 206 791 206 811 268 c 0,29,30
 831 333 831 333 820 389 c 128,-1,31
 809 445 809 445 777.5 494.5 c 128,-1,32
 746 544 746 544 697 585 c 0,33,34
 649 624 649 624 583.5 645.5 c 128,-1,35
 518 667 518 667 448 668 c 128,-1,36
 378 669 378 669 309.5 636.5 c 128,-1,37
 241 604 241 604 191 544 c 1,38,-1
 160 569 l 1,39,-1
 129 595 l 1,40,41
 191 669 191 669 275.5 708.5 c 128,-1,42
 360 748 360 748 445 747 c 128,-1,43
 530 746 530 746 610 720 c 128,-1,44
 690 694 690 694 748 646 c 0,45,46
 807 597 807 597 846 534 c 128,-1,47
 885 471 885 471 898.5 400 c 128,-1,48
 912 329 912 329 888 247 c 0,49,50
 865 171 865 171 800 92 c 1,51,-1
 769 118 l 1,26,-1
EndSplineSet
EndChar

StartChar: Ocircumflex
Encoding: 212 212 118
Width: 966
Flags: W
LayerCount: 2
Fore
SplineSet
273 820 m 5,0,-1
 251 853 l 5,1,-1
 437 950 l 6,2,3
 458.565429688 961.762695312 458.565429688 961.762695312 481 950 c 6,4,-1
 666 853 l 5,5,-1
 644 820 l 5,6,-1
 622 786 l 5,7,-1
 459 869 l 5,8,-1
 295 786 l 5,9,-1
 273 820 l 5,0,-1
160 569 m 1,10,-1
 195 549 l 1,11,12
 85 356 85 356 224 192 c 0,13,14
 265 144 265 144 329 113 c 128,-1,15
 393 82 393 82 464 70.5 c 128,-1,16
 535 59 535 59 610 79 c 128,-1,17
 685 99 685 99 743 148 c 1,18,-1
 769 118 l 1,19,-1
 795 87 l 1,20,21
 723 26 723 26 631.5 2 c 128,-1,22
 540 -22 540 -22 454 -8.5 c 128,-1,23
 368 5 368 5 290.5 43.5 c 128,-1,24
 213 82 213 82 163 141 c 0,25,26
 110 202 110 202 85 271 c 128,-1,27
 60 340 60 340 69 423.5 c 128,-1,28
 78 507 78 507 125 589 c 1,29,-1
 160 569 l 1,10,-1
769 118 m 1,30,-1
 738 143 l 1,31,32
 791 206 791 206 811 268 c 0,33,34
 831 333 831 333 820 389 c 128,-1,35
 809 445 809 445 777.5 494.5 c 128,-1,36
 746 544 746 544 697 585 c 0,37,38
 649 624 649 624 583.5 645.5 c 128,-1,39
 518 667 518 667 448 668 c 128,-1,40
 378 669 378 669 309.5 636.5 c 128,-1,41
 241 604 241 604 191 544 c 1,42,-1
 160 569 l 1,43,-1
 129 595 l 1,44,45
 191 669 191 669 275.5 708.5 c 128,-1,46
 360 748 360 748 445 747 c 128,-1,47
 530 746 530 746 610 720 c 128,-1,48
 690 694 690 694 748 646 c 0,49,50
 807 597 807 597 846 534 c 128,-1,51
 885 471 885 471 898.5 400 c 128,-1,52
 912 329 912 329 888 247 c 0,53,54
 865 171 865 171 800 92 c 1,55,-1
 769 118 l 1,30,-1
EndSplineSet
EndChar

StartChar: Odieresis
Encoding: 214 214 119
Width: 966
Flags: W
LayerCount: 2
Fore
SplineSet
342 797 m 5,0,-1
 302 797 l 5,1,-1
 302 880 l 5,2,-1
 342 880 l 5,3,-1
 382 880 l 5,4,-1
 382 797 l 5,5,-1
 342 797 l 5,0,-1
576 797 m 5,6,-1
 536 797 l 5,7,-1
 536 880 l 5,8,-1
 576 880 l 5,9,-1
 616 880 l 5,10,-1
 616 797 l 5,11,-1
 576 797 l 5,6,-1
160 569 m 1,12,-1
 195 549 l 1,13,14
 85 356 85 356 224 192 c 0,15,16
 265 144 265 144 329 113 c 128,-1,17
 393 82 393 82 464 70.5 c 128,-1,18
 535 59 535 59 610 79 c 128,-1,19
 685 99 685 99 743 148 c 1,20,-1
 769 118 l 1,21,-1
 795 87 l 1,22,23
 723 26 723 26 631.5 2 c 128,-1,24
 540 -22 540 -22 454 -8.5 c 128,-1,25
 368 5 368 5 290.5 43.5 c 128,-1,26
 213 82 213 82 163 141 c 0,27,28
 110 202 110 202 85 271 c 128,-1,29
 60 340 60 340 69 423.5 c 128,-1,30
 78 507 78 507 125 589 c 1,31,-1
 160 569 l 1,12,-1
769 118 m 1,32,-1
 738 143 l 1,33,34
 791 206 791 206 811 268 c 0,35,36
 831 333 831 333 820 389 c 128,-1,37
 809 445 809 445 777.5 494.5 c 128,-1,38
 746 544 746 544 697 585 c 0,39,40
 649 624 649 624 583.5 645.5 c 128,-1,41
 518 667 518 667 448 668 c 128,-1,42
 378 669 378 669 309.5 636.5 c 128,-1,43
 241 604 241 604 191 544 c 1,44,-1
 160 569 l 1,45,-1
 129 595 l 1,46,47
 191 669 191 669 275.5 708.5 c 128,-1,48
 360 748 360 748 445 747 c 128,-1,49
 530 746 530 746 610 720 c 128,-1,50
 690 694 690 694 748 646 c 0,51,52
 807 597 807 597 846 534 c 128,-1,53
 885 471 885 471 898.5 400 c 128,-1,54
 912 329 912 329 888 247 c 0,55,56
 865 171 865 171 800 92 c 1,57,-1
 769 118 l 1,32,-1
EndSplineSet
EndChar

StartChar: Oslash
Encoding: 216 216 120
Width: 966
Flags: W
LayerCount: 2
Fore
SplineSet
861.228515625 658.137695312 m 5,0,-1
 888 628 l 5,1,-1
 141.771484375 33.2265625 l 5,2,-1
 115 63.3642578125 l 5,3,-1
 88.228515625 93.501953125 l 5,4,-1
 834.45703125 688.275390625 l 5,5,-1
 861.228515625 658.137695312 l 5,0,-1
160 569 m 1,6,-1
 195 549 l 1,7,8
 85 356 85 356 224 192 c 0,9,10
 265 144 265 144 329 113 c 128,-1,11
 393 82 393 82 464 70.5 c 128,-1,12
 535 59 535 59 610 79 c 128,-1,13
 685 99 685 99 743 148 c 1,14,-1
 769 118 l 1,15,-1
 795 87 l 1,16,17
 723 26 723 26 631.5 2 c 128,-1,18
 540 -22 540 -22 454 -8.5 c 128,-1,19
 368 5 368 5 290.5 43.5 c 128,-1,20
 213 82 213 82 163 141 c 0,21,22
 110 202 110 202 85 271 c 128,-1,23
 60 340 60 340 69 423.5 c 128,-1,24
 78 507 78 507 125 589 c 1,25,-1
 160 569 l 1,6,-1
769 118 m 1,26,-1
 738 143 l 1,27,28
 791 206 791 206 811 268 c 0,29,30
 831 333 831 333 820 389 c 128,-1,31
 809 445 809 445 777.5 494.5 c 128,-1,32
 746 544 746 544 697 585 c 0,33,34
 649 624 649 624 583.5 645.5 c 128,-1,35
 518 667 518 667 448 668 c 128,-1,36
 378 669 378 669 309.5 636.5 c 128,-1,37
 241 604 241 604 191 544 c 1,38,-1
 160 569 l 1,39,-1
 129 595 l 1,40,41
 191 669 191 669 275.5 708.5 c 128,-1,42
 360 748 360 748 445 747 c 128,-1,43
 530 746 530 746 610 720 c 128,-1,44
 690 694 690 694 748 646 c 0,45,46
 807 597 807 597 846 534 c 128,-1,47
 885 471 885 471 898.5 400 c 128,-1,48
 912 329 912 329 888 247 c 0,49,50
 865 171 865 171 800 92 c 1,51,-1
 769 118 l 1,26,-1
EndSplineSet
EndChar

StartChar: Ugrave
Encoding: 217 217 121
Width: 955
Flags: W
LayerCount: 2
Fore
SplineSet
289 943 m 5,0,-1
 302 981 l 5,1,-1
 661 858 l 5,2,-1
 648 820 l 5,3,-1
 635 782 l 5,4,-1
 276 905 l 5,5,-1
 289 943 l 5,0,-1
796 2 m 1,6,-1
 756 2 l 1,7,-1
 756 731 l 1,8,-1
 796 731 l 1,9,-1
 836 731 l 1,10,-1
 836 2 l 1,11,-1
 796 2 l 1,6,-1
796 154 m 1,12,-1
 808 116 l 1,13,14
 699 80 699 80 625 57 c 128,-1,15
 551 34 551 34 452 12 c 128,-1,16
 353 -10 353 -10 291 -10 c 0,17,18
 213 -10 213 -10 163 31 c 128,-1,19
 113 72 113 72 113 154 c 2,20,-1
 113 731 l 1,21,-1
 153 731 l 1,22,-1
 193 731 l 1,23,-1
 193 154 l 2,24,25
 193 105 193 105 214.5 87.5 c 128,-1,26
 236 70 236 70 291 70 c 0,27,28
 418 70 418 70 783 192 c 1,29,-1
 796 154 l 1,12,-1
EndSplineSet
EndChar

StartChar: Uacute
Encoding: 218 218 122
Width: 955
Flags: W
LayerCount: 2
Fore
SplineSet
301 823 m 5,0,-1
 288 861 l 5,1,-1
 638 977 l 5,2,-1
 651 939 l 5,3,-1
 664 901 l 5,4,-1
 314 785 l 5,5,-1
 301 823 l 5,0,-1
796 2 m 1,6,-1
 756 2 l 1,7,-1
 756 731 l 1,8,-1
 796 731 l 1,9,-1
 836 731 l 1,10,-1
 836 2 l 1,11,-1
 796 2 l 1,6,-1
796 154 m 1,12,-1
 808 116 l 1,13,14
 699 80 699 80 625 57 c 128,-1,15
 551 34 551 34 452 12 c 128,-1,16
 353 -10 353 -10 291 -10 c 0,17,18
 213 -10 213 -10 163 31 c 128,-1,19
 113 72 113 72 113 154 c 2,20,-1
 113 731 l 1,21,-1
 153 731 l 1,22,-1
 193 731 l 1,23,-1
 193 154 l 2,24,25
 193 105 193 105 214.5 87.5 c 128,-1,26
 236 70 236 70 291 70 c 0,27,28
 418 70 418 70 783 192 c 1,29,-1
 796 154 l 1,12,-1
EndSplineSet
EndChar

StartChar: Ucircumflex
Encoding: 219 219 123
Width: 955
Flags: W
LayerCount: 2
Fore
SplineSet
291 820 m 5,0,-1
 269 853 l 5,1,-1
 455 950 l 6,2,3
 476.565429688 961.762695312 476.565429688 961.762695312 499 950 c 6,4,-1
 684 853 l 5,5,-1
 662 820 l 5,6,-1
 640 786 l 5,7,-1
 477 869 l 5,8,-1
 313 786 l 5,9,-1
 291 820 l 5,0,-1
796 2 m 1,10,-1
 756 2 l 1,11,-1
 756 731 l 1,12,-1
 796 731 l 1,13,-1
 836 731 l 1,14,-1
 836 2 l 1,15,-1
 796 2 l 1,10,-1
796 154 m 1,16,-1
 808 116 l 1,17,18
 699 80 699 80 625 57 c 128,-1,19
 551 34 551 34 452 12 c 128,-1,20
 353 -10 353 -10 291 -10 c 0,21,22
 213 -10 213 -10 163 31 c 128,-1,23
 113 72 113 72 113 154 c 2,24,-1
 113 731 l 1,25,-1
 153 731 l 1,26,-1
 193 731 l 1,27,-1
 193 154 l 2,28,29
 193 105 193 105 214.5 87.5 c 128,-1,30
 236 70 236 70 291 70 c 0,31,32
 418 70 418 70 783 192 c 1,33,-1
 796 154 l 1,16,-1
EndSplineSet
EndChar

StartChar: Udieresis
Encoding: 220 220 124
Width: 955
Flags: W
LayerCount: 2
Fore
SplineSet
353 797 m 5,0,-1
 313 797 l 5,1,-1
 313 880 l 5,2,-1
 353 880 l 5,3,-1
 393 880 l 5,4,-1
 393 797 l 5,5,-1
 353 797 l 5,0,-1
587 797 m 5,6,-1
 547 797 l 5,7,-1
 547 880 l 5,8,-1
 587 880 l 5,9,-1
 627 880 l 5,10,-1
 627 797 l 5,11,-1
 587 797 l 5,6,-1
796 2 m 1,12,-1
 756 2 l 1,13,-1
 756 731 l 1,14,-1
 796 731 l 1,15,-1
 836 731 l 1,16,-1
 836 2 l 1,17,-1
 796 2 l 1,12,-1
796 154 m 1,18,-1
 808 116 l 1,19,20
 699 80 699 80 625 57 c 128,-1,21
 551 34 551 34 452 12 c 128,-1,22
 353 -10 353 -10 291 -10 c 0,23,24
 213 -10 213 -10 163 31 c 128,-1,25
 113 72 113 72 113 154 c 2,26,-1
 113 731 l 1,27,-1
 153 731 l 1,28,-1
 193 731 l 1,29,-1
 193 154 l 2,30,31
 193 105 193 105 214.5 87.5 c 128,-1,32
 236 70 236 70 291 70 c 0,33,34
 418 70 418 70 783 192 c 1,35,-1
 796 154 l 1,18,-1
EndSplineSet
EndChar

StartChar: Yacute
Encoding: 221 221 125
Width: 771
Flags: W
LayerCount: 2
Fore
SplineSet
219 823 m 5,0,-1
 206 861 l 5,1,-1
 556 977 l 5,2,-1
 569 939 l 5,3,-1
 582 901 l 5,4,-1
 232 785 l 5,5,-1
 219 823 l 5,0,-1
40 722 m 1,6,-1
 68 751 l 1,7,-1
 414 390 l 2,8,9
 426 378 426 378 426 361 c 2,10,-1
 426 4 l 1,11,-1
 386 4 l 1,12,-1
 346 4 l 1,13,-1
 346 345 l 1,14,-1
 11 694 l 1,15,-1
 40 722 l 1,6,-1
732 722 m 1,16,-1
 760 694 l 1,17,-1
 414 333 l 1,18,-1
 386 361 l 1,19,-1
 357 390 l 1,20,-1
 703 751 l 1,21,-1
 732 722 l 1,16,-1
EndSplineSet
EndChar

StartChar: agrave
Encoding: 224 224 126
Width: 754
Flags: W
LayerCount: 2
Fore
SplineSet
218 740 m 5,0,-1
 231 778 l 5,1,-1
 590 655 l 5,2,-1
 577 617 l 5,3,-1
 564 579 l 5,4,-1
 205 702 l 5,5,-1
 218 740 l 5,0,-1
152 406 m 1,6,-1
 120 430 l 1,7,8
 191 527 191 527 352 534 c 0,9,10
 395 536 395 536 437.5 529 c 128,-1,11
 480 522 480 522 520 505 c 128,-1,12
 560 488 560 488 591 462.5 c 128,-1,13
 622 437 622 437 641.5 399 c 128,-1,14
 661 361 661 361 663 315 c 2,15,-1
 663 3 l 1,16,-1
 623 3 l 1,17,-1
 583 3 l 1,18,-1
 583 313 l 2,19,20
 580 380 580 380 513 419.5 c 128,-1,21
 446 459 446 459 353 454 c 0,22,23
 232 448 232 448 184 383 c 1,24,-1
 152 406 l 1,6,-1
623 268 m 1,25,-1
 623 228 l 1,26,-1
 162 228 l 2,27,28
 157 226 157 226 154 224 c 0,29,30
 133 210 133 210 131 194.5 c 128,-1,31
 129 179 129 179 143 157 c 0,32,33
 158 135 158 135 187 115.5 c 128,-1,34
 216 96 216 96 260.5 83.5 c 128,-1,35
 305 71 305 71 356 71 c 128,-1,36
 407 71 407 71 472 91.5 c 128,-1,37
 537 112 537 112 601 154 c 1,38,-1
 623 121 l 1,39,-1
 645 87 l 1,40,41
 555 28 555 28 462 5 c 128,-1,42
 369 -18 369 -18 295 -6.5 c 128,-1,43
 221 5 221 5 163.5 36 c 128,-1,44
 106 67 106 67 76 113 c 0,45,46
 57 142 57 142 53 174.5 c 128,-1,47
 49 207 49 207 63.5 238 c 128,-1,48
 78 269 78 269 110 291 c 0,49,50
 122 298 122 298 136 305 c 0,51,52
 144 308 144 308 152 308 c 2,53,-1
 623 308 l 1,54,-1
 623 268 l 1,25,-1
EndSplineSet
EndChar

StartChar: aacute
Encoding: 225 225 127
Width: 754
Flags: W
LayerCount: 2
Fore
SplineSet
200 626 m 5,0,-1
 187 664 l 5,1,-1
 537 780 l 5,2,-1
 550 742 l 5,3,-1
 563 704 l 5,4,-1
 213 588 l 5,5,-1
 200 626 l 5,0,-1
152 406 m 1,6,-1
 120 430 l 1,7,8
 191 527 191 527 352 534 c 0,9,10
 395 536 395 536 437.5 529 c 128,-1,11
 480 522 480 522 520 505 c 128,-1,12
 560 488 560 488 591 462.5 c 128,-1,13
 622 437 622 437 641.5 399 c 128,-1,14
 661 361 661 361 663 315 c 2,15,-1
 663 3 l 1,16,-1
 623 3 l 1,17,-1
 583 3 l 1,18,-1
 583 313 l 2,19,20
 580 380 580 380 513 419.5 c 128,-1,21
 446 459 446 459 353 454 c 0,22,23
 232 448 232 448 184 383 c 1,24,-1
 152 406 l 1,6,-1
623 268 m 1,25,-1
 623 228 l 1,26,-1
 162 228 l 2,27,28
 157 226 157 226 154 224 c 0,29,30
 133 210 133 210 131 194.5 c 128,-1,31
 129 179 129 179 143 157 c 0,32,33
 158 135 158 135 187 115.5 c 128,-1,34
 216 96 216 96 260.5 83.5 c 128,-1,35
 305 71 305 71 356 71 c 128,-1,36
 407 71 407 71 472 91.5 c 128,-1,37
 537 112 537 112 601 154 c 1,38,-1
 623 121 l 1,39,-1
 645 87 l 1,40,41
 555 28 555 28 462 5 c 128,-1,42
 369 -18 369 -18 295 -6.5 c 128,-1,43
 221 5 221 5 163.5 36 c 128,-1,44
 106 67 106 67 76 113 c 0,45,46
 57 142 57 142 53 174.5 c 128,-1,47
 49 207 49 207 63.5 238 c 128,-1,48
 78 269 78 269 110 291 c 0,49,50
 122 298 122 298 136 305 c 0,51,52
 144 308 144 308 152 308 c 2,53,-1
 623 308 l 1,54,-1
 623 268 l 1,25,-1
EndSplineSet
EndChar

StartChar: acircumflex
Encoding: 226 226 128
Width: 754
Flags: W
LayerCount: 2
Fore
SplineSet
197 614 m 5,0,-1
 175 647 l 5,1,-1
 361 744 l 6,2,3
 382.565429688 755.762695312 382.565429688 755.762695312 405 744 c 6,4,-1
 590 647 l 5,5,-1
 568 614 l 5,6,-1
 546 580 l 5,7,-1
 383 663 l 5,8,-1
 219 580 l 5,9,-1
 197 614 l 5,0,-1
152 406 m 1,10,-1
 120 430 l 1,11,12
 191 527 191 527 352 534 c 0,13,14
 395 536 395 536 437.5 529 c 128,-1,15
 480 522 480 522 520 505 c 128,-1,16
 560 488 560 488 591 462.5 c 128,-1,17
 622 437 622 437 641.5 399 c 128,-1,18
 661 361 661 361 663 315 c 2,19,-1
 663 3 l 1,20,-1
 623 3 l 1,21,-1
 583 3 l 1,22,-1
 583 313 l 2,23,24
 580 380 580 380 513 419.5 c 128,-1,25
 446 459 446 459 353 454 c 0,26,27
 232 448 232 448 184 383 c 1,28,-1
 152 406 l 1,10,-1
623 268 m 1,29,-1
 623 228 l 1,30,-1
 162 228 l 2,31,32
 157 226 157 226 154 224 c 0,33,34
 133 210 133 210 131 194.5 c 128,-1,35
 129 179 129 179 143 157 c 0,36,37
 158 135 158 135 187 115.5 c 128,-1,38
 216 96 216 96 260.5 83.5 c 128,-1,39
 305 71 305 71 356 71 c 128,-1,40
 407 71 407 71 472 91.5 c 128,-1,41
 537 112 537 112 601 154 c 1,42,-1
 623 121 l 1,43,-1
 645 87 l 1,44,45
 555 28 555 28 462 5 c 128,-1,46
 369 -18 369 -18 295 -6.5 c 128,-1,47
 221 5 221 5 163.5 36 c 128,-1,48
 106 67 106 67 76 113 c 0,49,50
 57 142 57 142 53 174.5 c 128,-1,51
 49 207 49 207 63.5 238 c 128,-1,52
 78 269 78 269 110 291 c 0,53,54
 122 298 122 298 136 305 c 0,55,56
 144 308 144 308 152 308 c 2,57,-1
 623 308 l 1,58,-1
 623 268 l 1,29,-1
EndSplineSet
EndChar

StartChar: adieresis
Encoding: 228 228 129
Width: 754
Flags: W
LayerCount: 2
Fore
SplineSet
269 614 m 5,0,-1
 229 614 l 5,1,-1
 229 697 l 5,2,-1
 269 697 l 5,3,-1
 309 697 l 5,4,-1
 309 614 l 5,5,-1
 269 614 l 5,0,-1
503 614 m 5,6,-1
 463 614 l 5,7,-1
 463 697 l 5,8,-1
 503 697 l 5,9,-1
 543 697 l 5,10,-1
 543 614 l 5,11,-1
 503 614 l 5,6,-1
152 406 m 1,12,-1
 120 430 l 1,13,14
 191 527 191 527 352 534 c 0,15,16
 395 536 395 536 437.5 529 c 128,-1,17
 480 522 480 522 520 505 c 128,-1,18
 560 488 560 488 591 462.5 c 128,-1,19
 622 437 622 437 641.5 399 c 128,-1,20
 661 361 661 361 663 315 c 2,21,-1
 663 3 l 1,22,-1
 623 3 l 1,23,-1
 583 3 l 1,24,-1
 583 313 l 2,25,26
 580 380 580 380 513 419.5 c 128,-1,27
 446 459 446 459 353 454 c 0,28,29
 232 448 232 448 184 383 c 1,30,-1
 152 406 l 1,12,-1
623 268 m 1,31,-1
 623 228 l 1,32,-1
 162 228 l 2,33,34
 157 226 157 226 154 224 c 0,35,36
 133 210 133 210 131 194.5 c 128,-1,37
 129 179 129 179 143 157 c 0,38,39
 158 135 158 135 187 115.5 c 128,-1,40
 216 96 216 96 260.5 83.5 c 128,-1,41
 305 71 305 71 356 71 c 128,-1,42
 407 71 407 71 472 91.5 c 128,-1,43
 537 112 537 112 601 154 c 1,44,-1
 623 121 l 1,45,-1
 645 87 l 1,46,47
 555 28 555 28 462 5 c 128,-1,48
 369 -18 369 -18 295 -6.5 c 128,-1,49
 221 5 221 5 163.5 36 c 128,-1,50
 106 67 106 67 76 113 c 0,51,52
 57 142 57 142 53 174.5 c 128,-1,53
 49 207 49 207 63.5 238 c 128,-1,54
 78 269 78 269 110 291 c 0,55,56
 122 298 122 298 136 305 c 0,57,58
 144 308 144 308 152 308 c 2,59,-1
 623 308 l 1,60,-1
 623 268 l 1,31,-1
EndSplineSet
EndChar

StartChar: ccedilla
Encoding: 231 231 130
Width: 736
Flags: W
LayerCount: 2
Fore
SplineSet
340 -227 m 5,0,-1
 303 -212 l 5,1,2
 349 -103 349 -103 349 16 c 5,3,-1
 389 16 l 5,4,-1
 429 16 l 5,5,6
 429 -118 429 -118 377 -243 c 5,7,-1
 340 -227 l 5,0,-1
647 331 m 1,8,-1
 608 322 l 1,9,10
 598 358 598 358 557 388 c 0,11,12
 487 439 487 439 448 447.5 c 0,13,14
 340 470 340 470 316.5 469.5 c 0,15,16
 216.553208851 464.933902942 216.553208851 464.933902942 162.5 401 c 0,17,18
 116 346 116 346 130 259.5 c 0,19,20
 137.774642023 219.712488663 137.774642023 219.712488663 187 162 c 0,21,22
 220 124 220 124 271 100.5 c 128,-1,23
 322 77 322 77 396.5 70.5 c 128,-1,24
 471 64 471 64 526.5 82 c 128,-1,25
 582 100 582 100 630 142 c 1,26,-1
 656 112 l 1,27,-1
 683 82 l 1,28,29
 622 28 622 28 550 5 c 128,-1,30
 478 -18 478 -18 388.5 -9.5 c 128,-1,31
 299 -1 299 -1 234.5 30 c 128,-1,32
 170 61 170 61 127 109 c 0,33,34
 -32 289 -32 289 105 451 c 0,35,36
 173 532 173 532 286.5 540.5 c 0,37,38
 379 547 379 547 462 521.5 c 128,-1,39
 545 496 545 496 610 441 c 128,-1,40
 675 386 675 386 686 340 c 1,41,-1
 647 331 l 1,8,-1
EndSplineSet
EndChar

StartChar: egrave
Encoding: 232 232 131
Width: 776
Flags: W
LayerCount: 2
Fore
SplineSet
233 740 m 5,0,-1
 246 778 l 5,1,-1
 605 655 l 5,2,-1
 592 617 l 5,3,-1
 579 579 l 5,4,-1
 220 702 l 5,5,-1
 233 740 l 5,0,-1
136 237 m 5,6,-1
 128 263 l 5,7,-1
 701 328 l 5,8,-1
 720 290 l 5,9,-1
 730 251 l 5,10,-1
 146 183 l 5,11,-1
 136 237 l 5,6,-1
671 300 m 5,12,-1
 632 291 l 5,13,14
 618 354 618 354 572 388 c 4,15,16
 502 439 502 439 463 447.5 c 4,17,18
 355 470 355 470 331.5 469.5 c 4,19,20
 227.985351562 464.770507812 227.985351562 464.770507812 177.5 401 c 4,21,22
 130 341 130 341 143 259.5 c 4,23,24
 149.059570312 223.763671875 149.059570312 223.763671875 202 162 c 4,25,26
 235 124 235 124 286 100.5 c 132,-1,27
 337 77 337 77 411.5 70.5 c 132,-1,28
 486 64 486 64 541.5 82 c 132,-1,29
 597 100 597 100 645 142 c 5,30,-1
 671 112 l 5,31,-1
 698 82 l 5,32,33
 637 28 637 28 565 5 c 132,-1,34
 493 -18 493 -18 403.5 -9.5 c 132,-1,35
 314 -1 314 -1 249.5 30 c 132,-1,36
 185 61 185 61 142 109 c 4,37,38
 -17 289 -17 289 120 451 c 4,39,40
 188 532 188 532 301.5 540.5 c 4,41,42
 394 547 394 547 477 521.5 c 132,-1,43
 560 496 560 496 621 447 c 4,44,45
 691 392 691 392 710 309 c 5,46,-1
 671 300 l 5,12,-1
EndSplineSet
EndChar

StartChar: eacute
Encoding: 233 233 132
Width: 778
Flags: W
LayerCount: 2
Fore
SplineSet
140 626 m 1,0,-1
 127 664 l 1,1,-1
 477 780 l 1,2,-1
 490 742 l 1,3,-1
 503 704 l 1,4,-1
 153 588 l 1,5,-1
 140 626 l 1,0,-1
137 237 m 1,6,-1
 129 263 l 1,7,-1
 702 328 l 1,8,-1
 721 290 l 1,9,-1
 731 251 l 1,10,-1
 147 183 l 1,11,-1
 137 237 l 1,6,-1
672 300 m 1,12,-1
 633 291 l 1,13,14
 619 354 619 354 573 388 c 0,15,16
 503 439 503 439 464 447.5 c 0,17,18
 356 470 356 470 332.5 469.5 c 0,19,20
 228.985351562 464.770507812 228.985351562 464.770507812 178.5 401 c 0,21,22
 131 341 131 341 144 259.5 c 0,23,24
 150.059570312 223.763671875 150.059570312 223.763671875 203 162 c 0,25,26
 236 124 236 124 287 100.5 c 128,-1,27
 338 77 338 77 412.5 70.5 c 128,-1,28
 487 64 487 64 542.5 82 c 128,-1,29
 598 100 598 100 646 142 c 1,30,-1
 672 112 l 1,31,-1
 699 82 l 1,32,33
 638 28 638 28 566 5 c 128,-1,34
 494 -18 494 -18 404.5 -9.5 c 128,-1,35
 315 -1 315 -1 250.5 30 c 128,-1,36
 186 61 186 61 143 109 c 0,37,38
 -16 289 -16 289 121 451 c 0,39,40
 189 532 189 532 302.5 540.5 c 0,41,42
 395 547 395 547 478 521.5 c 128,-1,43
 561 496 561 496 622 447 c 0,44,45
 692 392 692 392 711 309 c 1,46,-1
 672 300 l 1,12,-1
EndSplineSet
EndChar

StartChar: ecircumflex
Encoding: 234 234 133
Width: 776
Flags: W
LayerCount: 2
Fore
SplineSet
143 614 m 1,0,-1
 121 647 l 1,1,-1
 307 744 l 2,2,3
 328.565429688 755.762695312 328.565429688 755.762695312 351 744 c 2,4,-1
 536 647 l 1,5,-1
 514 614 l 1,6,-1
 492 580 l 1,7,-1
 329 663 l 1,8,-1
 165 580 l 1,9,-1
 143 614 l 1,0,-1
131 237 m 1,10,-1
 123 263 l 1,11,-1
 696 328 l 1,12,-1
 715 290 l 1,13,-1
 725 251 l 1,14,-1
 141 183 l 1,15,-1
 131 237 l 1,10,-1
666 300 m 1,16,-1
 627 291 l 1,17,18
 613 354 613 354 567 388 c 0,19,20
 497 439 497 439 458 447.5 c 0,21,22
 350 470 350 470 326.5 469.5 c 0,23,24
 222.985351562 464.770507812 222.985351562 464.770507812 172.5 401 c 0,25,26
 125 341 125 341 138 259.5 c 0,27,28
 144.059570312 223.763671875 144.059570312 223.763671875 197 162 c 0,29,30
 230 124 230 124 281 100.5 c 128,-1,31
 332 77 332 77 406.5 70.5 c 128,-1,32
 481 64 481 64 536.5 82 c 128,-1,33
 592 100 592 100 640 142 c 1,34,-1
 666 112 l 1,35,-1
 693 82 l 1,36,37
 632 28 632 28 560 5 c 128,-1,38
 488 -18 488 -18 398.5 -9.5 c 128,-1,39
 309 -1 309 -1 244.5 30 c 128,-1,40
 180 61 180 61 137 109 c 0,41,42
 -22 289 -22 289 115 451 c 0,43,44
 183 532 183 532 296.5 540.5 c 0,45,46
 389 547 389 547 472 521.5 c 128,-1,47
 555 496 555 496 616 447 c 0,48,49
 686 392 686 392 705 309 c 1,50,-1
 666 300 l 1,16,-1
EndSplineSet
EndChar

StartChar: edieresis
Encoding: 235 235 134
Width: 774
Flags: W
LayerCount: 2
Fore
SplineSet
203 614 m 1,0,-1
 163 614 l 1,1,-1
 163 697 l 1,2,-1
 203 697 l 1,3,-1
 243 697 l 1,4,-1
 243 614 l 1,5,-1
 203 614 l 1,0,-1
437 614 m 1,6,-1
 397 614 l 1,7,-1
 397 697 l 1,8,-1
 437 697 l 1,9,-1
 477 697 l 1,10,-1
 477 614 l 1,11,-1
 437 614 l 1,6,-1
130 237 m 1,12,-1
 122 263 l 1,13,-1
 695 328 l 1,14,-1
 714 290 l 1,15,-1
 724 251 l 1,16,-1
 140 183 l 1,17,-1
 130 237 l 1,12,-1
665 300 m 1,18,-1
 626 291 l 1,19,20
 612 354 612 354 566 388 c 0,21,22
 496 439 496 439 457 447.5 c 0,23,24
 349 470 349 470 325.5 469.5 c 0,25,26
 221.985351562 464.770507812 221.985351562 464.770507812 171.5 401 c 0,27,28
 124 341 124 341 137 259.5 c 0,29,30
 143.059570312 223.763671875 143.059570312 223.763671875 196 162 c 0,31,32
 229 124 229 124 280 100.5 c 128,-1,33
 331 77 331 77 405.5 70.5 c 128,-1,34
 480 64 480 64 535.5 82 c 128,-1,35
 591 100 591 100 639 142 c 1,36,-1
 665 112 l 1,37,-1
 692 82 l 1,38,39
 631 28 631 28 559 5 c 128,-1,40
 487 -18 487 -18 397.5 -9.5 c 128,-1,41
 308 -1 308 -1 243.5 30 c 128,-1,42
 179 61 179 61 136 109 c 0,43,44
 -23 289 -23 289 114 451 c 0,45,46
 182 532 182 532 295.5 540.5 c 0,47,48
 388 547 388 547 471 521.5 c 128,-1,49
 554 496 554 496 615 447 c 0,50,51
 685 392 685 392 704 309 c 1,52,-1
 665 300 l 1,18,-1
EndSplineSet
EndChar

StartChar: igrave
Encoding: 236 236 135
Width: 316
Flags: W
LayerCount: 2
Fore
SplineSet
-11 740 m 5,0,-1
 2 778 l 5,1,-1
 361 655 l 5,2,-1
 348 617 l 5,3,-1
 335 579 l 5,4,-1
 -24 702 l 5,5,-1
 -11 740 l 5,0,-1
153 2 m 1,6,-1
 113 2 l 1,7,-1
 113 462 l 1,8,-1
 113 502 l 1,9,-1
 113 542 l 1,10,-1
 173 542 l 2,11,12
 176 542 176 542 178.5 542 c 0,13,14
 182 542 182 542 183 542 c 128,-1,15
 184 542 184 542 186 542 c 128,-1,16
 188 542 188 542 189 541 c 128,-1,17
 190 540 190 540 191 539 c 128,-1,18
 192 538 192 538 192 535.5 c 128,-1,19
 192 533 192 533 192.5 530 c 128,-1,20
 193 527 193 527 193 522 c 2,21,-1
 193 2 l 1,22,-1
 153 2 l 1,6,-1
EndSplineSet
EndChar

StartChar: iacute
Encoding: 237 237 136
Width: 316
Flags: W
LayerCount: 2
Fore
SplineSet
-18 626 m 5,0,-1
 -31 664 l 5,1,-1
 319 780 l 5,2,-1
 332 742 l 5,3,-1
 345 704 l 5,4,-1
 -5 588 l 5,5,-1
 -18 626 l 5,0,-1
153 2 m 1,6,-1
 113 2 l 1,7,-1
 113 462 l 1,8,-1
 113 502 l 1,9,-1
 113 542 l 1,10,-1
 173 542 l 2,11,12
 176 542 176 542 178.5 542 c 0,13,14
 182 542 182 542 183 542 c 128,-1,15
 184 542 184 542 186 542 c 128,-1,16
 188 542 188 542 189 541 c 128,-1,17
 190 540 190 540 191 539 c 128,-1,18
 192 538 192 538 192 535.5 c 128,-1,19
 192 533 192 533 192.5 530 c 128,-1,20
 193 527 193 527 193 522 c 2,21,-1
 193 2 l 1,22,-1
 153 2 l 1,6,-1
EndSplineSet
EndChar

StartChar: icircumflex
Encoding: 238 238 137
Width: 316
Flags: W
LayerCount: 2
Fore
SplineSet
-29 614 m 5,0,-1
 -51 647 l 5,1,-1
 135 744 l 6,2,3
 156.565429688 755.762695312 156.565429688 755.762695312 179 744 c 6,4,-1
 364 647 l 5,5,-1
 342 614 l 5,6,-1
 320 580 l 5,7,-1
 157 663 l 5,8,-1
 -7 580 l 5,9,-1
 -29 614 l 5,0,-1
153 2 m 1,10,-1
 113 2 l 1,11,-1
 113 462 l 1,12,-1
 113 502 l 1,13,-1
 113 542 l 1,14,-1
 173 542 l 2,15,16
 176 542 176 542 178.5 542 c 0,17,18
 182 542 182 542 183 542 c 128,-1,19
 184 542 184 542 186 542 c 128,-1,20
 188 542 188 542 189 541 c 128,-1,21
 190 540 190 540 191 539 c 128,-1,22
 192 538 192 538 192 535.5 c 128,-1,23
 192 533 192 533 192.5 530 c 128,-1,24
 193 527 193 527 193 522 c 2,25,-1
 193 2 l 1,26,-1
 153 2 l 1,10,-1
EndSplineSet
EndChar

StartChar: idieresis
Encoding: 239 239 138
Width: 316
Flags: W
LayerCount: 2
Fore
SplineSet
41 614 m 5,0,-1
 1 614 l 5,1,-1
 1 697 l 5,2,-1
 41 697 l 5,3,-1
 81 697 l 5,4,-1
 81 614 l 5,5,-1
 41 614 l 5,0,-1
275 614 m 5,6,-1
 235 614 l 5,7,-1
 235 697 l 5,8,-1
 275 697 l 5,9,-1
 315 697 l 5,10,-1
 315 614 l 5,11,-1
 275 614 l 5,6,-1
153 2 m 1,12,-1
 113 2 l 1,13,-1
 113 462 l 1,14,-1
 113 502 l 1,15,-1
 113 542 l 1,16,-1
 173 542 l 2,17,18
 176 542 176 542 178.5 542 c 0,19,20
 182 542 182 542 183 542 c 128,-1,21
 184 542 184 542 186 542 c 128,-1,22
 188 542 188 542 189 541 c 128,-1,23
 190 540 190 540 191 539 c 128,-1,24
 192 538 192 538 192 535.5 c 128,-1,25
 192 533 192 533 192.5 530 c 128,-1,26
 193 527 193 527 193 522 c 2,27,-1
 193 2 l 1,28,-1
 153 2 l 1,12,-1
EndSplineSet
EndChar

StartChar: ograve
Encoding: 242 242 139
Width: 793
Flags: W
LayerCount: 2
Fore
SplineSet
218 740 m 5,0,-1
 231 778 l 5,1,-1
 590 655 l 5,2,-1
 577 617 l 5,3,-1
 564 579 l 5,4,-1
 205 702 l 5,5,-1
 218 740 l 5,0,-1
162 429 m 1,6,-1
 192 403 l 1,7,8
 152 356 152 356 140 317 c 128,-1,9
 128 278 128 278 140 243.5 c 128,-1,10
 152 209 152 209 185 168 c 0,11,12
 223 121 223 121 296 95 c 128,-1,13
 369 69 369 69 453 74 c 128,-1,14
 537 79 537 79 595 125 c 1,15,-1
 620 94 l 1,16,-1
 645 63 l 1,17,18
 587 17 587 17 509.5 -0.5 c 128,-1,19
 432 -18 432 -18 360 -4 c 128,-1,20
 288 10 288 10 223.5 41 c 128,-1,21
 159 72 159 72 122 118 c 0,22,23
 -17 285 -17 285 132 455 c 1,24,-1
 162 429 l 1,6,-1
620 94 m 1,25,-1
 590 121 l 1,26,27
 631 167 631 167 642.5 206.5 c 128,-1,28
 654 246 654 246 642 280.5 c 128,-1,29
 630 315 630 315 598 356 c 0,30,31
 570 391 570 391 519 415 c 128,-1,32
 468 439 468 439 410.5 449.5 c 128,-1,33
 353 460 353 460 292 446.5 c 128,-1,34
 231 433 231 433 187 398 c 1,35,-1
 162 429 l 1,36,-1
 137 460 l 1,37,38
 195 507 195 507 272.5 524 c 128,-1,39
 350 541 350 541 422.5 528 c 128,-1,40
 495 515 495 515 559 483.5 c 128,-1,41
 623 452 623 452 660 406 c 0,42,43
 799 239 799 239 650 68 c 1,44,-1
 620 94 l 1,25,-1
EndSplineSet
EndChar

StartChar: oacute
Encoding: 243 243 140
Width: 793
Flags: W
LayerCount: 2
Fore
SplineSet
185 626 m 5,0,-1
 172 664 l 5,1,-1
 522 780 l 5,2,-1
 535 742 l 5,3,-1
 548 704 l 5,4,-1
 198 588 l 5,5,-1
 185 626 l 5,0,-1
162 429 m 1,6,-1
 192 403 l 1,7,8
 152 356 152 356 140 317 c 128,-1,9
 128 278 128 278 140 243.5 c 128,-1,10
 152 209 152 209 185 168 c 0,11,12
 223 121 223 121 296 95 c 128,-1,13
 369 69 369 69 453 74 c 128,-1,14
 537 79 537 79 595 125 c 1,15,-1
 620 94 l 1,16,-1
 645 63 l 1,17,18
 587 17 587 17 509.5 -0.5 c 128,-1,19
 432 -18 432 -18 360 -4 c 128,-1,20
 288 10 288 10 223.5 41 c 128,-1,21
 159 72 159 72 122 118 c 0,22,23
 -17 285 -17 285 132 455 c 1,24,-1
 162 429 l 1,6,-1
620 94 m 1,25,-1
 590 121 l 1,26,27
 631 167 631 167 642.5 206.5 c 128,-1,28
 654 246 654 246 642 280.5 c 128,-1,29
 630 315 630 315 598 356 c 0,30,31
 570 391 570 391 519 415 c 128,-1,32
 468 439 468 439 410.5 449.5 c 128,-1,33
 353 460 353 460 292 446.5 c 128,-1,34
 231 433 231 433 187 398 c 1,35,-1
 162 429 l 1,36,-1
 137 460 l 1,37,38
 195 507 195 507 272.5 524 c 128,-1,39
 350 541 350 541 422.5 528 c 128,-1,40
 495 515 495 515 559 483.5 c 128,-1,41
 623 452 623 452 660 406 c 0,42,43
 799 239 799 239 650 68 c 1,44,-1
 620 94 l 1,25,-1
EndSplineSet
EndChar

StartChar: ocircumflex
Encoding: 244 244 141
Width: 793
Flags: W
LayerCount: 2
Fore
SplineSet
187 614 m 5,0,-1
 165 647 l 5,1,-1
 351 744 l 6,2,3
 372.565429688 755.762695312 372.565429688 755.762695312 395 744 c 6,4,-1
 580 647 l 5,5,-1
 558 614 l 5,6,-1
 536 580 l 5,7,-1
 373 663 l 5,8,-1
 209 580 l 5,9,-1
 187 614 l 5,0,-1
162 429 m 1,10,-1
 192 403 l 1,11,12
 152 356 152 356 140 317 c 128,-1,13
 128 278 128 278 140 243.5 c 128,-1,14
 152 209 152 209 185 168 c 0,15,16
 223 121 223 121 296 95 c 128,-1,17
 369 69 369 69 453 74 c 128,-1,18
 537 79 537 79 595 125 c 1,19,-1
 620 94 l 1,20,-1
 645 63 l 1,21,22
 587 17 587 17 509.5 -0.5 c 128,-1,23
 432 -18 432 -18 360 -4 c 128,-1,24
 288 10 288 10 223.5 41 c 128,-1,25
 159 72 159 72 122 118 c 0,26,27
 -17 285 -17 285 132 455 c 1,28,-1
 162 429 l 1,10,-1
620 94 m 1,29,-1
 590 121 l 1,30,31
 631 167 631 167 642.5 206.5 c 128,-1,32
 654 246 654 246 642 280.5 c 128,-1,33
 630 315 630 315 598 356 c 0,34,35
 570 391 570 391 519 415 c 128,-1,36
 468 439 468 439 410.5 449.5 c 128,-1,37
 353 460 353 460 292 446.5 c 128,-1,38
 231 433 231 433 187 398 c 1,39,-1
 162 429 l 1,40,-1
 137 460 l 1,41,42
 195 507 195 507 272.5 524 c 128,-1,43
 350 541 350 541 422.5 528 c 128,-1,44
 495 515 495 515 559 483.5 c 128,-1,45
 623 452 623 452 660 406 c 0,46,47
 799 239 799 239 650 68 c 1,48,-1
 620 94 l 1,29,-1
EndSplineSet
EndChar

StartChar: odieresis
Encoding: 246 246 142
Width: 793
Flags: W
LayerCount: 2
Fore
SplineSet
259 614 m 5,0,-1
 219 614 l 5,1,-1
 219 697 l 5,2,-1
 259 697 l 5,3,-1
 299 697 l 5,4,-1
 299 614 l 5,5,-1
 259 614 l 5,0,-1
493 614 m 5,6,-1
 453 614 l 5,7,-1
 453 697 l 5,8,-1
 493 697 l 5,9,-1
 533 697 l 5,10,-1
 533 614 l 5,11,-1
 493 614 l 5,6,-1
162 429 m 1,12,-1
 192 403 l 1,13,14
 152 356 152 356 140 317 c 128,-1,15
 128 278 128 278 140 243.5 c 128,-1,16
 152 209 152 209 185 168 c 0,17,18
 223 121 223 121 296 95 c 128,-1,19
 369 69 369 69 453 74 c 128,-1,20
 537 79 537 79 595 125 c 1,21,-1
 620 94 l 1,22,-1
 645 63 l 1,23,24
 587 17 587 17 509.5 -0.5 c 128,-1,25
 432 -18 432 -18 360 -4 c 128,-1,26
 288 10 288 10 223.5 41 c 128,-1,27
 159 72 159 72 122 118 c 0,28,29
 -17 285 -17 285 132 455 c 1,30,-1
 162 429 l 1,12,-1
620 94 m 1,31,-1
 590 121 l 1,32,33
 631 167 631 167 642.5 206.5 c 128,-1,34
 654 246 654 246 642 280.5 c 128,-1,35
 630 315 630 315 598 356 c 0,36,37
 570 391 570 391 519 415 c 128,-1,38
 468 439 468 439 410.5 449.5 c 128,-1,39
 353 460 353 460 292 446.5 c 128,-1,40
 231 433 231 433 187 398 c 1,41,-1
 162 429 l 1,42,-1
 137 460 l 1,43,44
 195 507 195 507 272.5 524 c 128,-1,45
 350 541 350 541 422.5 528 c 128,-1,46
 495 515 495 515 559 483.5 c 128,-1,47
 623 452 623 452 660 406 c 0,48,49
 799 239 799 239 650 68 c 1,50,-1
 620 94 l 1,31,-1
EndSplineSet
EndChar

StartChar: oslash
Encoding: 248 248 143
Width: 793
Flags: W
LayerCount: 2
Fore
SplineSet
683.228515625 495.137695312 m 5,0,-1
 710 465 l 5,1,-1
 129.771484375 1.2265625 l 5,2,-1
 103 31.3642578125 l 5,3,-1
 76.228515625 61.501953125 l 5,4,-1
 656.45703125 525.275390625 l 5,5,-1
 683.228515625 495.137695312 l 5,0,-1
162 429 m 1,6,-1
 192 403 l 1,7,8
 152 356 152 356 140 317 c 128,-1,9
 128 278 128 278 140 243.5 c 128,-1,10
 152 209 152 209 185 168 c 0,11,12
 223 121 223 121 296 95 c 128,-1,13
 369 69 369 69 453 74 c 128,-1,14
 537 79 537 79 595 125 c 1,15,-1
 620 94 l 1,16,-1
 645 63 l 1,17,18
 587 17 587 17 509.5 -0.5 c 128,-1,19
 432 -18 432 -18 360 -4 c 128,-1,20
 288 10 288 10 223.5 41 c 128,-1,21
 159 72 159 72 122 118 c 0,22,23
 -17 285 -17 285 132 455 c 1,24,-1
 162 429 l 1,6,-1
620 94 m 1,25,-1
 590 121 l 1,26,27
 631 167 631 167 642.5 206.5 c 128,-1,28
 654 246 654 246 642 280.5 c 128,-1,29
 630 315 630 315 598 356 c 0,30,31
 570 391 570 391 519 415 c 128,-1,32
 468 439 468 439 410.5 449.5 c 128,-1,33
 353 460 353 460 292 446.5 c 128,-1,34
 231 433 231 433 187 398 c 1,35,-1
 162 429 l 1,36,-1
 137 460 l 1,37,38
 195 507 195 507 272.5 524 c 128,-1,39
 350 541 350 541 422.5 528 c 128,-1,40
 495 515 495 515 559 483.5 c 128,-1,41
 623 452 623 452 660 406 c 0,42,43
 799 239 799 239 650 68 c 1,44,-1
 620 94 l 1,25,-1
EndSplineSet
EndChar

StartChar: ugrave
Encoding: 249 249 144
Width: 825
Flags: W
LayerCount: 2
Fore
SplineSet
225 740 m 5,0,-1
 238 778 l 5,1,-1
 597 655 l 5,2,-1
 584 617 l 5,3,-1
 571 579 l 5,4,-1
 212 702 l 5,5,-1
 225 740 l 5,0,-1
671 0 m 1,6,-1
 631 0 l 1,7,-1
 631 504 l 1,8,-1
 671 504 l 1,9,-1
 711 504 l 1,10,-1
 711 0 l 1,11,-1
 671 0 l 1,6,-1
670 132 m 1,12,-1
 688 96 l 1,13,14
 598 51 598 51 477 21 c 128,-1,15
 356 -9 356 -9 275 -9 c 0,16,17
 202 -9 202 -9 152 26 c 128,-1,18
 102 61 102 61 102 132 c 2,19,-1
 102 502 l 1,20,-1
 142 502 l 1,21,-1
 182 502 l 1,22,-1
 182 132 l 2,23,24
 182 100 182 100 202.5 85.5 c 128,-1,25
 223 71 223 71 275 71 c 0,26,27
 343 71 343 71 456 98.5 c 128,-1,28
 569 126 569 126 652 168 c 1,29,-1
 670 132 l 1,12,-1
EndSplineSet
EndChar

StartChar: uacute
Encoding: 250 250 145
Width: 825
Flags: W
LayerCount: 2
Fore
SplineSet
224 626 m 5,0,-1
 211 664 l 5,1,-1
 561 780 l 5,2,-1
 574 742 l 5,3,-1
 587 704 l 5,4,-1
 237 588 l 5,5,-1
 224 626 l 5,0,-1
671 0 m 1,6,-1
 631 0 l 1,7,-1
 631 504 l 1,8,-1
 671 504 l 1,9,-1
 711 504 l 1,10,-1
 711 0 l 1,11,-1
 671 0 l 1,6,-1
670 132 m 1,12,-1
 688 96 l 1,13,14
 598 51 598 51 477 21 c 128,-1,15
 356 -9 356 -9 275 -9 c 0,16,17
 202 -9 202 -9 152 26 c 128,-1,18
 102 61 102 61 102 132 c 2,19,-1
 102 502 l 1,20,-1
 142 502 l 1,21,-1
 182 502 l 1,22,-1
 182 132 l 2,23,24
 182 100 182 100 202.5 85.5 c 128,-1,25
 223 71 223 71 275 71 c 0,26,27
 343 71 343 71 456 98.5 c 128,-1,28
 569 126 569 126 652 168 c 1,29,-1
 670 132 l 1,12,-1
EndSplineSet
EndChar

StartChar: ucircumflex
Encoding: 251 251 146
Width: 825
Flags: W
LayerCount: 2
Fore
SplineSet
217 614 m 5,0,-1
 195 647 l 5,1,-1
 381 744 l 6,2,3
 402.565429688 755.762695312 402.565429688 755.762695312 425 744 c 6,4,-1
 610 647 l 5,5,-1
 588 614 l 5,6,-1
 566 580 l 5,7,-1
 403 663 l 5,8,-1
 239 580 l 5,9,-1
 217 614 l 5,0,-1
671 0 m 1,10,-1
 631 0 l 1,11,-1
 631 504 l 1,12,-1
 671 504 l 1,13,-1
 711 504 l 1,14,-1
 711 0 l 1,15,-1
 671 0 l 1,10,-1
670 132 m 1,16,-1
 688 96 l 1,17,18
 598 51 598 51 477 21 c 128,-1,19
 356 -9 356 -9 275 -9 c 0,20,21
 202 -9 202 -9 152 26 c 128,-1,22
 102 61 102 61 102 132 c 2,23,-1
 102 502 l 1,24,-1
 142 502 l 1,25,-1
 182 502 l 1,26,-1
 182 132 l 2,27,28
 182 100 182 100 202.5 85.5 c 128,-1,29
 223 71 223 71 275 71 c 0,30,31
 343 71 343 71 456 98.5 c 128,-1,32
 569 126 569 126 652 168 c 1,33,-1
 670 132 l 1,16,-1
EndSplineSet
EndChar

StartChar: udieresis
Encoding: 252 252 147
Width: 825
Flags: W
LayerCount: 2
Fore
SplineSet
286 614 m 5,0,-1
 246 614 l 5,1,-1
 246 697 l 5,2,-1
 286 697 l 5,3,-1
 326 697 l 5,4,-1
 326 614 l 5,5,-1
 286 614 l 5,0,-1
520 614 m 5,6,-1
 480 614 l 5,7,-1
 480 697 l 5,8,-1
 520 697 l 5,9,-1
 560 697 l 5,10,-1
 560 614 l 5,11,-1
 520 614 l 5,6,-1
671 0 m 1,12,-1
 631 0 l 1,13,-1
 631 504 l 1,14,-1
 671 504 l 1,15,-1
 711 504 l 1,16,-1
 711 0 l 1,17,-1
 671 0 l 1,12,-1
670 132 m 1,18,-1
 688 96 l 1,19,20
 598 51 598 51 477 21 c 128,-1,21
 356 -9 356 -9 275 -9 c 0,22,23
 202 -9 202 -9 152 26 c 128,-1,24
 102 61 102 61 102 132 c 2,25,-1
 102 502 l 1,26,-1
 142 502 l 1,27,-1
 182 502 l 1,28,-1
 182 132 l 2,29,30
 182 100 182 100 202.5 85.5 c 128,-1,31
 223 71 223 71 275 71 c 0,32,33
 343 71 343 71 456 98.5 c 128,-1,34
 569 126 569 126 652 168 c 1,35,-1
 670 132 l 1,18,-1
EndSplineSet
EndChar

StartChar: yacute
Encoding: 253 253 148
Width: 802
Flags: W
LayerCount: 2
Fore
SplineSet
220 626 m 5,0,-1
 207 664 l 5,1,-1
 557 780 l 5,2,-1
 570 742 l 5,3,-1
 583 704 l 5,4,-1
 233 588 l 5,5,-1
 220 626 l 5,0,-1
662 -7 m 1,6,-1
 622 -7 l 1,7,-1
 622 522 l 1,8,-1
 662 522 l 1,9,-1
 702 522 l 1,10,-1
 702 -7 l 1,11,-1
 662 -7 l 1,6,-1
662 160 m 1,12,-1
 686 128 l 1,13,14
 640 94 640 94 590.5 68 c 128,-1,15
 541 42 541 42 493 25.5 c 128,-1,16
 445 9 445 9 399 0 c 128,-1,17
 353 -9 353 -9 310 -9 c 0,18,19
 251 -9 251 -9 202.5 8 c 128,-1,20
 154 25 154 25 121.5 64.5 c 128,-1,21
 89 104 89 104 89 160 c 2,22,-1
 89 522 l 1,23,-1
 129 522 l 1,24,-1
 169 522 l 1,25,-1
 169 160 l 2,26,27
 169 119 169 119 204 95 c 128,-1,28
 239 71 239 71 310 71 c 0,29,30
 383 71 383 71 470.5 102 c 128,-1,31
 558 133 558 133 639 193 c 1,32,-1
 662 160 l 1,12,-1
662 522 m 1,33,-1
 702 522 l 1,34,-1
 702 -7 l 2,35,36
 702 -67 702 -67 668 -114 c 0,37,38
 619 -181 619 -181 524.5 -205 c 128,-1,39
 430 -229 430 -229 316.5 -202.5 c 128,-1,40
 203 -176 203 -176 106 -105 c 1,41,-1
 129 -73 l 1,42,-1
 153 -40 l 1,43,44
 197 -73 197 -73 245 -94 c 128,-1,45
 293 -115 293 -115 337.5 -124 c 128,-1,46
 382 -133 382 -133 424.5 -133.5 c 128,-1,47
 467 -134 467 -134 501.5 -125.5 c 128,-1,48
 536 -117 536 -117 562.5 -102 c 128,-1,49
 589 -87 589 -87 603 -67 c 0,50,51
 622 -41 622 -41 622 -7 c 2,52,-1
 622 522 l 1,53,-1
 662 522 l 1,33,-1
EndSplineSet
EndChar

StartChar: ydieresis
Encoding: 255 255 149
Width: 802
Flags: W
LayerCount: 2
Fore
SplineSet
281 614 m 5,0,-1
 241 614 l 5,1,-1
 241 697 l 5,2,-1
 281 697 l 5,3,-1
 321 697 l 5,4,-1
 321 614 l 5,5,-1
 281 614 l 5,0,-1
515 614 m 5,6,-1
 475 614 l 5,7,-1
 475 697 l 5,8,-1
 515 697 l 5,9,-1
 555 697 l 5,10,-1
 555 614 l 5,11,-1
 515 614 l 5,6,-1
662 -7 m 1,12,-1
 622 -7 l 1,13,-1
 622 522 l 1,14,-1
 662 522 l 1,15,-1
 702 522 l 1,16,-1
 702 -7 l 1,17,-1
 662 -7 l 1,12,-1
662 160 m 1,18,-1
 686 128 l 1,19,20
 640 94 640 94 590.5 68 c 128,-1,21
 541 42 541 42 493 25.5 c 128,-1,22
 445 9 445 9 399 0 c 128,-1,23
 353 -9 353 -9 310 -9 c 0,24,25
 251 -9 251 -9 202.5 8 c 128,-1,26
 154 25 154 25 121.5 64.5 c 128,-1,27
 89 104 89 104 89 160 c 2,28,-1
 89 522 l 1,29,-1
 129 522 l 1,30,-1
 169 522 l 1,31,-1
 169 160 l 2,32,33
 169 119 169 119 204 95 c 128,-1,34
 239 71 239 71 310 71 c 0,35,36
 383 71 383 71 470.5 102 c 128,-1,37
 558 133 558 133 639 193 c 1,38,-1
 662 160 l 1,18,-1
662 522 m 1,39,-1
 702 522 l 1,40,-1
 702 -7 l 2,41,42
 702 -67 702 -67 668 -114 c 0,43,44
 619 -181 619 -181 524.5 -205 c 128,-1,45
 430 -229 430 -229 316.5 -202.5 c 128,-1,46
 203 -176 203 -176 106 -105 c 1,47,-1
 129 -73 l 1,48,-1
 153 -40 l 1,49,50
 197 -73 197 -73 245 -94 c 128,-1,51
 293 -115 293 -115 337.5 -124 c 128,-1,52
 382 -133 382 -133 424.5 -133.5 c 128,-1,53
 467 -134 467 -134 501.5 -125.5 c 128,-1,54
 536 -117 536 -117 562.5 -102 c 128,-1,55
 589 -87 589 -87 603 -67 c 0,56,57
 622 -41 622 -41 622 -7 c 2,58,-1
 622 522 l 1,59,-1
 662 522 l 1,39,-1
EndSplineSet
EndChar
